<?xml version="1.0" encoding="utf-8"?>
<!-- Generator: Adobe Illustrator 13.0.0, SVG Export Plug-In . SVG Version: 6.00 Build 14948)  -->
<!DOCTYPE svg PUBLIC "-//W3C//DTD SVG 1.1//EN" "http://www.w3.org/Graphics/SVG/1.1/DTD/svg11.dtd">
<svg version="1.1" id="Material" xmlns="http://www.w3.org/2000/svg" xmlns:xlink="http://www.w3.org/1999/xlink" x="0px" y="0px"
	 width="24px" height="19px" viewBox="3.849 6.3 24 19" enable-background="new 3.849 6.3 24 19" xml:space="preserve">
<g id="Layer_2">
	<g id="Layer_3">
		
			<rect x="6.601" y="10.426" transform="matrix(0.929 -0.3701 0.3701 0.929 -4.4698 4.7066)" fill="#FFFFFF" stroke="#000000" stroke-width="0.25" width="6.861" height="7.155"/>
		<path fill="#494645" d="M5.464,11.922c-0.181,0.37-0.479,0.779-0.401,1.236c0.301-0.143,0.463-0.104,0.672-0.424
			c-0.058-0.231-0.185-0.445-0.296-0.647"/>
		
			<rect x="6.183" y="11.596" transform="matrix(0.9289 -0.3704 0.3704 0.9289 -4.9368 4.6399)" fill="#494645" stroke="#000000" stroke-width="0.25" width="6.86" height="7.155"/>
	</g>
	<path fill="#FCD8C0" d="M14.048,15.52c-0.047-0.186-0.336-0.386-0.479-0.496c-0.357-0.271-0.797-0.467-1.238-0.553
		c-0.882-0.168-1.777,0.149-1.958,1.114c-0.175,0.935,0.832,1.019,1.535,1.082c0.48,0.044,1.041,0.276,1.521,0.146
		C13.883,16.688,14.162,15.98,14.048,15.52z"/>
	<path fill="#FFD2A9" d="M5.798,15.536c0.324,0.349,0.643,0.065,0.926,0.565c0.208,0.366,0.43,0.865,0.063,1.191
		c-0.397,0.354-0.81-0.039-1.089-0.436c-0.316-0.446-0.15-0.687-0.054-1.17"/>
	<path fill="#FFFFFF" d="M19.004,14.2c-0.09,0.668,0.516,1.899,0.158,2.519c-0.325,0.563-2.525,0.156-3.139,0.104
		c-1.291-0.113-1.242-1.15-0.629-2.007c0.228-0.313,0.391-0.688,0.781-0.822c0.471-0.158,1.219,0.102,1.694,0.154
		c0.348,0.037,0.772,0.018,1.08,0.207"/>
	<path d="M16.896,14.354c-0.086,0.443-1.179,2.888,0.205,2.621c0.435-0.084,0.25-1.068,0.313-1.49
		c0.052-0.35,0.177-1.657-0.568-1.183"/>
	<path fill="#494645" d="M18.747,12.968c0,0.13-0.207,0.234-0.462,0.234h-2.158c-0.256,0-0.463-0.104-0.463-0.234l0,0
		c0-0.13,0.207-0.235,0.463-0.235h2.158C18.54,12.732,18.747,12.838,18.747,12.968L18.747,12.968z"/>
	<ellipse cx="15.253" cy="10.681" rx="0.771" ry="0.693"/>
	<ellipse cx="20.288" cy="10.886" rx="0.771" ry="0.643"/>
	<path d="M22.498,11.169c0.419-0.586,0.771-1.623,0.863-2.313c0.143-1.055-0.861-1.604-1.633-1.951
		c-0.875-0.396-1.533-0.974-2.57-1.03c-1.178-0.064-2.657-0.317-3.756,0.103C15.15,6.074,14.932,6.26,14.646,6.34
		c-0.312,0.088-0.586,0.055-0.849,0.243c-0.313,0.225-0.702,0.948-0.848,1.308c-0.063,0.162,0.034,0.3-0.021,0.441
		c-0.049,0.114-0.248,0.19-0.291,0.319c-0.074,0.224-0.012,0.585-0.009,0.822c0.009,0.676,0.218,1.023,0.771,1.395
		c0.541-0.522-0.678-1.646,0.221-2.306c0.955-0.701,1.925,0.229,2.865,0.345c1.041,0.128,2.016,0.19,3.039,0.101
		c0.504-0.044,0.982-0.058,1.48-0.102c0.523-0.046,1.262,0.287,1.398,0.874c0.058,0.24-0.752,1.706,0.134,1.483
		c0.053-0.139,0.09-0.308,0.062-0.455"/>
</g>
<path fill="none" stroke="#605E58" stroke-width="0.25" d="M17.625,9.016c-2.423-0.187-4.844-1.859-4.221,1.031
	C13.568,10.813,13.792,14,17.357,14c3.563,0,4.602-2.801,4.76-3.204C23.156,8.141,20.236,9.217,17.625,9.016z"/>
</svg>
