<?xml version="1.0" encoding="utf-8"?>
<!-- Generator: Adobe Illustrator 13.0.0, SVG Export Plug-In . SVG Version: 6.00 Build 14948)  -->
<!DOCTYPE svg PUBLIC "-//W3C//DTD SVG 1.1//EN" "http://www.w3.org/Graphics/SVG/1.1/DTD/svg11.dtd">
<svg version="1.1" id="Email" xmlns="http://www.w3.org/2000/svg" xmlns:xlink="http://www.w3.org/1999/xlink" x="0px" y="0px"
	 width="120px" height="120px" viewBox="0 0 120 120" enable-background="new 0 0 120 120" xml:space="preserve">
<g opacity="0.5">
	<path fill-rule="evenodd" clip-rule="evenodd" d="M87.78,17.18c22.361,10.94,29.025,46.691,9.04,65.68
		C85.68,93.445,75.821,82.517,72.18,81.26c-40.086,20.18-51.083-54.747-1.439-42.48c-0.181-8.121,8.399-3.6,8.64-3.6
		c0.112,0.847-2.551,29.645,4.32,35.28c2.105,1.728,10.382,1.252,10.8-1.44c1.593-10.263,3.734-32.748-11.2-39.879
		C5.754-7.891-8.311,132.756,107.78,93.5c0,0.72,2.655,9.775-4.32,15.12C-28.001,148.355-5.799-28.604,87.78,17.18z M60.26,48.02
		c10.959,0.554,11.006,24.407-1.04,24.44C45.902,72.497,46.431,47.321,60.26,48.02z"/>
</g>
<g>
	<path fill-rule="evenodd" clip-rule="evenodd" fill="#FFFFFF" stroke="#000000" stroke-width="0.25" d="M84.78,14.18
		c22.663,10.3,28.445,48.668,9.04,65.68C82.265,89.99,72.821,79.517,69.18,78.26c-40.086,20.18-51.083-54.747-1.439-42.48
		c-0.181-8.121,8.399-3.6,8.64-3.6c0.112,0.847-2.551,29.645,4.32,35.28c2.105,1.728,9.99,1.161,10.8-1.44
		c3.058-9.82,3.909-33.125-11.2-39.879C2.242-8.753-11.311,129.756,104.78,90.5c0,0.72,2.655,9.775-4.32,15.12
		C-31.001,145.355-9.009-28.444,84.78,14.18z M57.26,45.02c10.959,0.554,11.006,24.407-1.04,24.44
		C42.902,69.497,43.431,44.321,57.26,45.02z"/>
</g>
</svg>
