<?xml version="1.0" encoding="utf-8"?>
<!-- Generator: Adobe Illustrator 13.0.0, SVG Export Plug-In . SVG Version: 6.00 Build 14948)  -->
<!DOCTYPE svg PUBLIC "-//W3C//DTD SVG 1.1//EN" "http://www.w3.org/Graphics/SVG/1.1/DTD/svg11.dtd">
<svg version="1.1" id="Material" xmlns="http://www.w3.org/2000/svg" xmlns:xlink="http://www.w3.org/1999/xlink" x="0px" y="0px"
	 width="18px" height="18px" viewBox="2.911 4.703 18 18" enable-background="new 2.911 4.703 18 18" xml:space="preserve">
<path fill="#930000" d="M5.794,5.15c1.85,2.081,2.876,4.47,4.946,6.336c1.275-1.709,4.298-4.918,3.904-6.333
	c0.693,0,1.888,0,2.578,0c0.08,3.288-3.522,5.426-5.455,7.598c1.604,2.744,3.642,4.819,5.727,7.094
	c-2.637,4.257-5.426-3.565-7.016-5.069c-2.306,1.637-3.53,3.588-4.693,6.338C5.163,20.959,3.4,21.43,3.206,20.857
	c0.857-3.725,4.063-4.914,5.726-7.854C7.26,10.581,5.208,8.771,3.465,6.417C3.642,5.828,5.448,5.15,5.794,5.15z"/>
<path fill="#FF0000" d="M5.882,5.216c1.748,2.016,2.981,4.566,4.937,6.374c1.207-1.656,4.412-4.983,4.041-6.354
	c0.654,0,1.557,0,2.209,0c0.074,3.186-3.801,5.424-5.625,7.528c1.516,2.657,3.677,4.672,5.646,6.872
	c-2.488,4.123-4.982-4.09-6.626-5.153c-2.179,1.584-3.811,3.717-4.909,6.383c-0.587-0.15-1.781,0.307-1.963-0.246
	c0.81-3.609,4.075-4.762,5.646-7.609c-1.58-2.347-3.917-4.408-5.563-6.688C3.84,5.75,5.555,5.216,5.882,5.216z"/>
<path fill="#CE0000" d="M5.674,5.299c1.691,1.95,3.131,4.776,5.021,6.526c1.168-1.604,4.521-5.263,4.166-6.589
	c0.634,0,1.472,0,2.104,0c0.073,3.082-3.939,5.423-5.708,7.458c1.468,2.574,3.781,4.912,5.688,7.043
	c-2.408,3.99-4.896-4.27-6.485-5.299c-2.181,1.215-3.95,3.847-5.014,6.424c-0.568-0.146-1.698,0.244-1.875-0.291
	c0.784-3.491,4.182-4.801,5.701-7.557c-1.528-2.272-4.003-4.488-5.598-6.695C3.835,5.768,5.357,5.299,5.674,5.299z"/>
</svg>
