<?xml version="1.0" encoding="utf-8"?>
<!-- Generator: Adobe Illustrator 13.0.0, SVG Export Plug-In . SVG Version: 6.00 Build 14948)  -->
<!DOCTYPE svg PUBLIC "-//W3C//DTD SVG 1.1//EN" "http://www.w3.org/Graphics/SVG/1.1/DTD/svg11.dtd">
<svg version="1.1" id="gmail" xmlns="http://www.w3.org/2000/svg" xmlns:xlink="http://www.w3.org/1999/xlink" x="0px" y="0px"
	 width="120px" height="120px" viewBox="0 0 120 120" enable-background="new 0 0 120 120" xml:space="preserve">
<path fill-rule="evenodd" clip-rule="evenodd" fill="#FFFFFF" d="M104.02,13.22c1.184,3.487,0.721,7.286,0.721,11.04
	c0,26.392,0.198,54.634-0.24,80.88c-6.872,1.517-14.389,0.96-22.08,0.96c-7.41,0-15.229,0-22.8,0c-15.317,0-30.955,0.682-44.64-0.96
	c-1.178-14.317-0.72-29.87-0.72-45.36c0-15.489-0.467-31.047,0.72-45.36c1.605,0.646,0.311-1.609,1.68-1.2
	c0.26-0.06,0.163-0.478,0.48-0.48C45.942,13.057,76.017,12.104,104.02,13.22z M25.3,20.66c-0.671,0.369-1.909,0.171-1.68,1.44
	c-0.343,0.058-0.405,0.395-0.72,0.48c-0.014-0.146-0.036-0.284-0.24-0.24c0.054,0.454-0.271,0.53-0.24,0.96c0,0.16,0,0.32,0,0.48
	c-1.174,0.026-0.523,1.877-1.2,2.4c-0.521-0.041-0.109,0.851-0.24,1.2c0.16,22.08-0.32,44.8,0.24,66.48
	c0.054,0.186,0.006,0.473,0.24,0.479c-0.013,0.413,0.185,0.615,0.48,0.72c0,0.16,0,0.32,0,0.48c-0.175,0.654,0.477,0.483,0.48,0.96
	c0.377,0.183,0.359,0.762,0.96,0.72c-0.013,0.413,0.185,0.615,0.48,0.721c0.036,0.443,0.813,0.146,0.96,0.479
	c1.604,0.399,4.877,0.399,6.48,0c0.24,0,0.48,0,0.72,0c18.64,0,37.28,0,55.92,0c0.159,0,0.319,0,0.479,0
	c1.459,0.413,5.815,0.382,6.48,0c0.021-0.378,0.611-0.188,0.479-0.72c0.24,0,0.48,0,0.72,0c0.661-0.055,1.222-0.393,1.681-1.2
	c0.318-0.401,0.636-0.804,0.479-1.68c0.27-0.051,0.374-0.267,0.48-0.48c0.399-22,0.399-45.68,0-67.68
	c-0.22-0.421-0.083-1.198-0.48-1.44c0-0.24,0-0.48,0-0.72c-0.33,0.01-0.526-0.113-0.72-0.24c0-0.08,0-0.16,0-0.24
	c0.013-0.413-0.185-0.615-0.48-0.72c0-0.16,0-0.32,0-0.48c-0.119-1.241-0.644-2.076-2.159-1.92c-0.054-0.187-0.201-0.279-0.48-0.24
	c0-0.08,0-0.16,0-0.24c-0.24,0.001-0.285-0.194-0.479-0.24c-0.082-0.782-1.97-0.551-2.4-0.24c-21.36,0.16-43.36-0.32-64.32,0.24
	c-0.349,0.131-1.241-0.281-1.2,0.24c-0.146,0.014-0.284,0.036-0.24,0.24C25.62,20.66,25.46,20.66,25.3,20.66z"/>
<path fill-rule="evenodd" clip-rule="evenodd" fill="#CA1407" d="M97.3,95.78c-0.502,0.298-0.901,0.697-1.2,1.2
	c-0.654-0.175-0.482,0.477-0.96,0.479c-0.319,0-0.64,0-0.96,0c-1.68,0-3.359,0-5.04,0c0-18.88,0-37.76,0-56.64
	c2.648-3.192,5.863-5.816,8.641-8.88c0,20.8,0,41.6,0,62.4C97.843,95.043,97.237,95.077,97.3,95.78z"/>
<path fill-rule="evenodd" clip-rule="evenodd" fill="#CA1407" d="M24.58,97.46c-0.106-0.214-0.211-0.43-0.48-0.479
	c-0.379-0.582-0.859-1.062-1.44-1.44c-0.27-0.051-0.374-0.267-0.48-0.48c0-0.319,0-0.64,0-0.96c0-20.64,0-41.28,0-61.919
	c2.773,3.146,5.974,5.865,8.64,9.12c0,18.72,0,37.439,0,56.16c-1.68,0-3.36,0-5.04,0C25.38,97.46,24.98,97.46,24.58,97.46z"/>
<path fill-rule="evenodd" clip-rule="evenodd" fill="#E4E4E5" d="M86.98,42.98c0.259,0.156,0.818-0.375,0.72-0.48
	c1.086,1.164,0.24,10.513,0.24,13.44c0,13.561,0,30.137,0,41.28c-1.301-0.779-1.816-2.344-3.36-2.88
	c-0.106-0.214-0.211-0.429-0.48-0.479c0.021-1.061-0.904-1.176-1.439-1.681c-0.08,0-0.16,0-0.24,0
	c-1.847-2.473-4.117-4.522-6.479-6.479c0.044-0.204-0.094-0.227-0.24-0.24c-0.278-0.762-0.97-1.11-1.44-1.68c-0.08,0-0.16,0-0.24,0
	c-0.642-0.958-1.441-1.759-2.399-2.4c0-0.08,0-0.16,0-0.24c-0.442-0.757-1.545-0.854-1.68-1.92c0.26,0.06,0.162,0.478,0.479,0.48
	c0.613,0.032-0.937-1.631-0.72-0.48c-0.233-0.006-0.187-0.294-0.24-0.479c-0.279,0.039-0.427-0.054-0.479-0.24
	c1.456-0.146-1.526-1.481,0-0.48c0,0.08,0,0.16,0,0.24c-1.856-0.783-2.464-2.816-4.32-3.6c0-0.08,0-0.16,0-0.24
	c-0.485-0.555-0.798-1.282-1.68-1.439c-0.507-0.214-0.417-1.023-1.2-0.961c0.039-0.278-0.054-0.427-0.24-0.479
	c0.044-0.523-0.196-0.764-0.72-0.72c-0.106-0.214-0.211-0.43-0.48-0.48c-0.213-0.106-0.429-0.211-0.48-0.479c0.16,0,0.32,0,0.48,0
	c0.759,0.506,0.045-0.316,0.72-0.721c0.458-0.602,1.929-1.134,1.44-1.92c0.234-0.245,0.475-0.485,0.72-0.72
	c0.36,0.574,1.201-0.38,1.2-0.96c0.558-0.162,0.643-0.798,1.2-0.96c0.423-0.217,0.743-0.537,0.96-0.96
	c0.135-0.346,0.374-0.586,0.72-0.72c1.907-1.613,3.615-3.425,5.28-5.28c-0.044-0.204,0.094-0.227,0.24-0.24
	c0.74-0.539,1.381-1.179,1.92-1.92c-0.044-0.204,0.094-0.227,0.24-0.24c1.8-1.56,3.415-3.305,5.039-5.04
	c0.135-0.346,0.375-0.586,0.721-0.72c0.265-0.163,1.245-0.797,0.72-0.96c0-0.16,0-0.32,0-0.48c0.536-0.104,0.855-0.424,0.96-0.96
	c1.77-0.021,3.164-2.415,4.32-3.84C86.754,43.074,86.775,42.936,86.98,42.98z M80.98,89.78c-0.014,0.413,0.185,0.615,0.479,0.72
	C81.473,90.087,81.275,89.885,80.98,89.78z M78.58,87.62C77.95,86.243,77.236,86.957,78.58,87.62L78.58,87.62z M65.62,74.42
	c-0.284-0.034-0.544-0.428-0.72,0C65.184,74.455,65.444,74.848,65.62,74.42z M61.54,71.06c0.543,0.178,0.525,0.915,1.2,0.96
	C62.816,71.365,61.63,70.756,61.54,71.06z"/>
<path fill-rule="evenodd" clip-rule="evenodd" fill="#F6F6F6" d="M32.02,42.98c0.744,0.136,0.631,1.129,1.44,1.2
	c0.458,0.102,0.434,0.686,1.2,0.48c0.08,0,0.16,0,0.24,0c-0.039,0.279,0.053,0.427,0.24,0.48c0.258,1.502,1.552,1.968,2.4,2.88
	c0.262,0.618,0.606,1.153,1.2,1.44c0.345,0.134,0.585,0.375,0.72,0.72c0.298,0.502,0.698,0.902,1.2,1.2c0.16,0,0.32,0,0.48,0
	c0.246,0.234,0.485,0.475,0.72,0.72c0.071,0.489,0.649,0.471,0.72,0.96c-0.044,0.204,0.094,0.227,0.24,0.24
	c-0.039,0.279,0.053,0.427,0.24,0.48c0.543,0.577,0.893,1.347,1.68,1.68c0.315,0.085,0.377,0.422,0.72,0.48
	c0.347,0.373,0.797,0.643,0.96,1.2c0.539,0.741,1.179,1.381,1.92,1.92c0.346,0.134,0.586,0.375,0.72,0.72c0,0.08,0,0.16,0,0.24
	c0.321,0.239,0.471,0.649,0.96,0.72c1.061,0.859,2.021,1.819,2.88,2.88c0.217,0.423,0.537,0.743,0.96,0.96
	c0.502,0.298,0.902,0.698,1.2,1.2c0.217,0.423,0.537,0.743,0.96,0.96c0.346,0.134,0.585,0.374,0.72,0.72
	c0.378,0.581,0.858,1.062,1.44,1.44c0.204-0.045,0.226,0.093,0.24,0.239c9.775,9.585,19.354,19.366,29.28,28.801
	c-18.017-0.243-38.291-0.713-55.68,0.239c-0.187-0.053-0.279-0.2-0.24-0.479c0-0.08,0-0.16,0-0.24
	C32.34,79.78,31.86,61.06,32.02,42.98z"/>
<path fill-rule="evenodd" clip-rule="evenodd" fill="#F2F2F2" d="M89.14,22.34c-0.134,0.346-0.374,0.586-0.72,0.72
	c-0.423,0.217-0.743,0.537-0.96,0.96c-0.162,0.558-0.798,0.643-0.96,1.2c-0.453,0.667-1.405,0.834-1.44,1.92
	c-0.239,0-0.479,0-0.72,0c-0.74,0.539-1.381,1.179-1.92,1.92c-0.051,0.269-0.267,0.374-0.479,0.48
	c-0.331,0.248-1.423,0.952-0.96,1.2c-0.163,0.557-0.798,0.642-0.961,1.2c-0.07,0.489-0.648,0.471-0.72,0.96
	c-0.146,0.014-0.284,0.036-0.24,0.24c-0.159,0-0.319,0-0.479,0c-0.98,0.779-1.86,1.66-2.64,2.64c-0.051,0.27-0.267,0.374-0.48,0.48
	c-0.502,0.298-0.902,0.698-1.2,1.2c-0.217,0.423-0.536,0.743-0.96,0.96c-0.74,0.539-1.381,1.179-1.92,1.92
	c-0.134,0.346-0.374,0.586-0.72,0.72c-0.266,0.163-1.245,0.797-0.72,0.96c-0.014,0.146-0.036,0.284-0.24,0.24
	c-0.536,0.104-0.855,0.425-0.96,0.96c-0.077,0.563-0.743,0.537-0.96,0.96c-0.412,0.309-0.944,0.496-0.96,1.2
	c-0.014,0.146-0.036,0.284-0.24,0.24c-1.165,0.355-1.621,1.418-2.4,2.16c-0.777,0.583-1.49,1.23-1.92,2.16
	c-0.014,0.146-0.035,0.284-0.24,0.24c0-0.587-1.307,0.719-0.72,0.72c0,0.08,0,0.16,0,0.24c-0.795,0.084-1.041,0.719-1.44,1.2
	c-0.08,0-0.16,0-0.24,0c-0.249-0.631-0.952-0.808-1.2-1.44c-1.063-1.178-2.182-2.297-3.36-3.36c-0.554,0.073-0.267-0.693-0.72-0.72
	c-0.292-0.027-0.568-0.072-0.48-0.48c-0.741-0.939-1.687-1.673-2.4-2.64c-0.309-0.412-0.496-0.944-1.2-0.96
	c-0.345-0.135-0.585-0.375-0.72-0.72c0.525-0.163-0.455-0.797-0.72-0.96c-0.345-0.134-0.585-0.375-0.72-0.72
	c-0.459-0.661-1.019-1.221-1.68-1.68c-0.014-0.146-0.036-0.284-0.24-0.24c-0.217-0.423-0.537-0.743-0.96-0.96
	c-0.217-0.423-0.884-0.396-0.96-0.96c-0.104-0.536-0.424-0.855-0.96-0.96c-0.146-0.014-0.284-0.036-0.24-0.24
	c0.525-0.162-0.455-0.797-0.72-0.96c-0.346-0.134-0.585-0.374-0.72-0.72c-1.26-1.46-2.62-2.82-4.08-4.08
	c-0.27-0.051-0.374-0.267-0.48-0.48c-0.78-0.98-1.66-1.86-2.64-2.64c-0.16,0-0.32,0-0.48,0c-0.014-0.146-0.036-0.284-0.24-0.24
	c0-0.08,0-0.16,0-0.24c-0.346-0.134-0.586-0.375-0.72-0.72c-0.163-0.558-0.797-0.643-0.96-1.2c0.517-0.075-0.885-1.477-0.96-0.96
	c-0.27-0.051-0.374-0.267-0.48-0.48c0-0.08,0-0.16,0-0.24c-0.249-0.631-0.952-0.808-1.2-1.44c20.32,0,40.64,0,60.96,0
	C90.092,21.532,89.389,21.708,89.14,22.34z"/>
<path fill-rule="evenodd" clip-rule="evenodd" fill="#ED2116" d="M97.78,30.74c0,0.16,0,0.32,0,0.48
	c-0.146,0.013-0.284,0.036-0.24,0.24c-3,3-6.217,5.783-8.88,9.12c-4.957,3.203-8.292,8.028-12.48,12
	c-0.134,0.346-0.374,0.585-0.72,0.72c-4.183,3.737-8.033,7.807-12,11.76c-0.227,0.414-0.887,0.394-0.72,1.2
	c-0.27,0.051-0.374,0.267-0.48,0.48c-0.16,0-0.319,0-0.479,0c-0.623,0.497-0.836,1.403-1.68,1.68c-1.798-0.281-2.008-2.151-3.6-2.64
	c-0.346-0.135-0.585-0.375-0.72-0.721c-0.106-0.693-0.506-1.094-1.2-1.199c-0.051-0.27-0.267-0.374-0.48-0.48
	c-0.263-0.856-0.823-1.417-1.68-1.68c0-0.08,0-0.16,0-0.24c-0.378-0.581-0.858-1.062-1.44-1.44c-0.08,0-0.16,0-0.24,0
	c-2.095-2.705-4.55-5.05-7.2-7.2c-0.08,0-0.16,0-0.24,0c-0.109-0.703-1.135-1.729-1.44-1.44c-0.553,0.074-0.267-0.693-0.72-0.72
	c0.043-0.524-0.197-0.764-0.72-0.72c0-0.08,0-0.16,0-0.24c-0.948-1.132-1.805-2.355-3.12-3.12c-0.051-0.27-0.266-0.374-0.48-0.48
	c-0.157-0.882-0.885-1.195-1.44-1.68c-0.08,0-0.16,0-0.24,0c-0.958-1.364-2.604-3.313-3.84-3.6c-2.918-3.481-6.762-6.038-9.12-10.08
	c0-1.12,0-2.24,0-3.36c0-0.4,0-0.8,0-1.2c0-0.16,0-0.32,0-0.48c1.021-0.579,1.02-2.18,1.68-3.12c0.014-0.146,0.036-0.284,0.24-0.24
	c0.356-0.377,2.032-0.669,1.68-0.96c0-0.08,0-0.16,0-0.24c0.08,0,0.16,0,0.24,0c0.325-0.076,0.458-0.342,0.96-0.24
	c0.24,0,0.48,0,0.72,0c2.686,3.154,5.456,6.224,8.64,8.88c0,0.08,0,0.16,0,0.24c0.379,0.582,0.859,1.062,1.44,1.44
	c0.08,0,0.16,0,0.24,0c3.578,4.103,7.425,7.935,11.28,11.76c0.16,0,0.32,0,0.48,0c0.37,0.271,0.591,0.689,0.96,0.96
	c0.045,0.194,0.241,0.239,0.24,0.48c0.459,0.341,0.859,0.741,1.2,1.2c0.08,0,0.16,0,0.24,0c-0.013,0.413,0.185,0.615,0.48,0.72
	c0.106,0.694,0.506,1.094,1.2,1.2c0.08,0,0.16,0,0.24,0c0.053,0.187,0.201,0.279,0.48,0.24c0,0.16,0,0.32,0,0.48
	c0.321,0.803,1.828,2.49,3.12,3.12c0.24,0.319,0.396,0.724,0.72,0.96c0.08,0,0.16,0,0.24,0c-0.28,1.027,1.96,1.027,1.68,0
	c0.204,0.044,0.227-0.094,0.24-0.24c0.346-0.134,0.585-0.374,0.72-0.72c0.16,0,0.32,0,0.479,0c7.099-7.142,14.218-14.263,21.12-21.6
	c0-0.08,0-0.16,0-0.24c1.085-0.355,1.626-1.254,2.16-2.16c0.08,0,0.16,0,0.24,0c0.305-0.199,1.368-0.841,0.72-1.2
	c0.003-0.317,0.421-0.219,0.48-0.48c1.55-0.29,2.042-1.638,2.88-2.64c0.014-0.146,0.036-0.284,0.24-0.24
	c0.905-0.535,1.481-1.398,2.159-2.16c0.48,0,0.961,0,1.44,0c0.08,0,0.16,0,0.24,0c0.106,0.214,0.211,0.429,0.479,0.48
	c1.551,0.609,1.878,2.442,3.12,3.36c0.08,0,0.16,0,0.24,0c0,0.08,0,0.16,0,0.24c-0.054,0.454,0.271,0.53,0.24,0.96
	c0,0.56,0,1.12,0,1.68c0,0.48,0,0.96,0,1.44C97.78,29.62,97.78,30.18,97.78,30.74z"/>
<path fill-rule="evenodd" clip-rule="evenodd" fill="#FFFFFF" d="M21.22,1.7c25.279,0,50.56,0,75.839,0c0.24,0,0.48,0,0.721,0
	c0.41,0.549,1.832,0.088,2.64,0.24c0.48,0,0.96,0,1.44,0c0.479,0,0.96,0,1.439,0c0.045,0.355,0.58,0.22,0.96,0.24
	c0.16,0,0.32,0,0.48,0c0.672,0.127,1.247,0.352,1.92,0.48c1.297,0.303,2.12,1.08,3.12,1.68c0,0.08,0,0.16,0,0.24
	c0.656,0.948,1.713,2.761,2.399,2.88c0.396,0.004,0.135,0.666,0.48,0.72c0,0.08,0,0.16,0,0.24c-0.013,0.413,0.185,0.615,0.479,0.72
	c0,0.16,0,0.32,0,0.48c-0.076,0.557,0.039,0.921,0.24,1.2c0,0.48,0,0.96,0,1.44c0,0.4,0,0.8,0,1.2c0.021,0.38-0.115,0.916,0.24,0.96
	c0.24,0,0.285,0.194,0.479,0.24c0,0.16,0,0.32,0,0.48c-0.554,0.726-0.084,2.475-0.239,3.6c0,26.72,0,53.44,0,80.16
	c-0.12,1.319,0.265,3.145-0.24,4.08c-0.326,0.074-0.199,0.601-0.24,0.96c0,0.399,0,0.8,0,1.199c0,0.48,0,0.96,0,1.44
	c-0.53,0.03-0.102,1.018-0.24,1.439c0,0.16,0,0.32,0,0.48c-0.08,0-0.159,0-0.239,0c-0.014,0.307-0.308,0.332-0.24,0.72
	c-0.014,0.146-0.036,0.284-0.24,0.24c-0.722-0.242-0.425,0.535-0.479,0.96c-0.074,0.566-0.834,0.446-0.721,1.2
	c0.031,0.831-1.056,0.544-1.2,1.2c-0.601-0.041-0.751,0.368-0.96,0.72c-0.146,0.333-0.924,0.036-0.96,0.479
	c-0.427,0.133-0.996,0.124-1.199,0.48c-0.08,0-0.16,0-0.24,0c-0.557-0.076-0.922,0.039-1.2,0.24c-0.32,0-0.64,0-0.96,0
	c-0.422,0.138-1.41-0.29-1.44,0.24c0.001,0.24-0.194,0.285-0.239,0.479c-0.16,0-0.32,0-0.48,0c-0.489-0.551-1.993-0.087-2.88-0.24
	c-1.842,0.158-4.317-0.317-5.76,0.24c-22.64,0-45.281,0-67.92,0c-1.602-0.558-4.238-0.082-6.24-0.24
	c-1.239-0.04-2.708,0.149-3.6-0.239c-0.08,0-0.16,0-0.24,0c-0.104-0.537-1.183-0.098-1.68-0.24c-0.32,0-0.64,0-0.96,0
	c-0.678,0.198-0.622-0.339-1.2-0.24c-0.08,0-0.16,0-0.24,0c-0.16,0-0.32,0-0.48,0c0-0.08,0-0.16,0-0.24
	c0.031-0.431-0.238-0.562-0.72-0.479c-0.08,0-0.16,0-0.24,0c-0.158-0.322-0.513-0.447-0.96-0.48c-0.08,0-0.16,0-0.24,0
	c0-0.16,0-0.319,0-0.479c-0.16,0-0.32,0-0.48,0c0-0.08,0-0.16,0-0.24c-0.399-0.481-0.645-1.115-1.44-1.2
	c-0.428-0.451-0.649-1.11-1.2-1.439c0-0.08,0-0.16,0-0.24c-0.5-1.101-1.049-2.151-1.2-3.601c0-0.159,0-0.319,0-0.479
	c-0.041-0.359,0.085-0.886-0.24-0.96c0-0.32,0-0.641,0-0.96c-0.155-1.125,0.314-2.874-0.24-3.601
	c-0.521,0.041-0.109-0.851-0.24-1.199c0.08,0,0.16,0,0.24,0c0.398-0.729,0.398-3.112,0-3.841c0.044-0.204-0.094-0.226-0.24-0.239
	c0-0.08,0-0.16,0-0.24C4.1,70.74,3.62,46.26,4.18,22.82c0.398-0.414,0.398-2.466,0-2.88c0-0.64,0-1.28,0-1.92c0-0.32,0-0.64,0-0.96
	c0.553-0.647,0.085-2.315,0.24-3.36c0-0.32,0-0.64,0-0.96c0.796-0.084,0.377-1.384,0.48-2.16c0.489-0.231,0.519-0.922,0.48-1.68
	c0-0.08,0-0.16,0-0.24C5.702,8.502,5.827,8.147,5.86,7.7c0.162-0.798,0.455-1.466,1.2-1.68c0.248,0.463,0.952-0.629,1.2-0.96
	c0.242-0.003,0.302-0.421,0-0.48C8.264,4.184,8.926,4.446,8.98,4.1c0.591,0.091,2.262-0.686,1.2-0.72
	c0.695-0.664,1.74-0.979,3.12-0.96c0.498-0.143,1.577,0.297,1.68-0.24c0.014-0.146,0.036-0.284,0.24-0.24c0.4,0,0.8,0,1.2,0
	c0.38-0.02,0.916,0.116,0.96-0.24c0.16,0,0.32,0,0.48,0c0.414,0.398,2.466,0.398,2.88,0C20.9,1.7,21.06,1.7,21.22,1.7z M16.9,7.46
	c-0.48,0-0.96,0-1.44,0c-0.758-0.038-1.448-0.008-1.68,0.48c0.16,0,0.32,0,0.48,0c0,0.08,0,0.16,0,0.24
	c-0.875-0.156-1.278,0.162-1.68,0.48c-1.19-0.07-1.75,0.49-1.68,1.68c-0.532,0.348-0.635,1.125-0.72,1.92
	c-0.013,0.307-0.308,0.333-0.24,0.72c-0.53,0.03-0.102,1.018-0.24,1.44c-0.187,0.053-0.279,0.201-0.24,0.48
	c-0.521-0.041-0.109,0.852-0.24,1.2c0,0.56,0,1.12,0,1.68c0,1.68,0,3.36,0,5.04c0,23.92,0,47.84,0,71.76c0,1.68,0,3.36,0,5.04
	c0,0.64,0,1.28,0,1.92c0.131,0.349-0.281,1.24,0.24,1.2c0.08,0,0.16,0,0.24,0c-0.004,0.561-0.08,3.221,0.24,1.92
	c0.08,0,0.16,0,0.24,0c0.473,0.166-0.059,1.339,0.48,1.439c0.013,0.308,0.308,0.333,0.24,0.721c-0.01,0.33,0.113,0.526,0.24,0.72
	c0.217,0.423,0.537,0.743,0.96,0.96c0.08,0,0.16,0,0.24,0c0.681-0.041,0.469,0.812,1.44,0.48c0.045,0.354,0.58,0.22,0.96,0.239
	c0.282,0.038,0.681-0.041,0.72,0.24c-0.764,0.331,0.848,0.237,1.2,0.24c0.48,0,0.96,0,1.44,0c0.032,0.688,1.647-0.208,1.68,0.479
	c1.603,0.559,4.239,0.082,6.24,0.24c22.4,0,44.8,0,67.2,0c1.922-0.158,4.478,0.317,6-0.24c0.777-0.104,2.076,0.316,2.16-0.479
	c0.16,0,0.32,0,0.48,0c0.981-0.059,2.313,0.233,2.64-0.48c0-0.08,0-0.16,0-0.239c0.756,0.115,0.543-0.737,1.44-0.48
	c0.794-0.246,1.415-0.665,1.439-1.68c0.08,0,0.16,0,0.24,0c-0.099-0.578,0.438-0.521,0.24-1.2c0-0.08,0-0.16,0-0.24
	c0.187-0.053,0.278-0.201,0.239-0.479c0.08,0,0.16,0,0.24,0c0.371-0.35,0.212-1.229,0.24-1.92c0-0.32,0-0.641,0-0.961
	c0-0.239,0-0.479,0-0.72c0.898-0.222,0.313-1.927,0.479-2.88c0-26.399,0-52.8,0-79.2c-0.148-0.891,0.391-2.47-0.479-2.64
	c0-0.4,0-0.8,0-1.2c-0.041-0.359,0.086-0.886-0.24-0.96c0-0.16,0-0.32,0-0.48c-0.041-0.359,0.086-0.886-0.24-0.96
	c-0.04-0.359,0.086-0.886-0.239-0.96c-0.033-0.447-0.158-0.802-0.48-0.96c0-0.16,0-0.32,0-0.48c0-0.24,0-0.48,0-0.72
	c-0.456-0.503-0.653-1.266-1.68-1.2c0.03-0.431-0.238-0.562-0.72-0.48c-0.32,0-0.641,0-0.961,0c-0.002-0.317-0.42-0.22-0.479-0.48
	c1.337,0.502,0.352-0.529-0.72-0.24c-0.638-0.002-1.371,0.091-1.681-0.24c-0.103-0.537-1.183-0.098-1.68-0.24c-0.56,0-1.12,0-1.68,0
	c-0.32,0-0.641,0-0.96,0c-25.12,0-50.24,0-75.36,0c-0.8,0-1.6,0-2.4,0c-0.497,0.143-1.577-0.296-1.68,0.24
	c-0.146,0.013-0.284,0.036-0.24,0.24C17.06,7.46,16.98,7.46,16.9,7.46z"/>
</svg>
