<?xml version="1.0" encoding="utf-8"?>
<!-- Generator: Adobe Illustrator 13.0.0, SVG Export Plug-In . SVG Version: 6.00 Build 14948)  -->
<!DOCTYPE svg PUBLIC "-//W3C//DTD SVG 1.1//EN" "http://www.w3.org/Graphics/SVG/1.1/DTD/svg11.dtd">
<svg version="1.1" id="Layer_1" xmlns="http://www.w3.org/2000/svg" xmlns:xlink="http://www.w3.org/1999/xlink" x="0px" y="0px"
	 width="120px" height="120px" viewBox="0 0 120 120" enable-background="new 0 0 120 120" xml:space="preserve">
<g>
	<path fill-rule="evenodd" clip-rule="evenodd" fill="#EFD5E2" d="M47.552,20.464c0-0.148,0-0.296,0-0.444c9.294,0,18.59,0,27.885,0
		c0,0.148,0,0.296,0,0.444c-0.715,0-1.429,0-2.145,0c-2.002,0-4.005,0-6.007,0c-6.435,0-12.87,0-19.305,0
		C47.837,20.464,47.694,20.464,47.552,20.464z"/>
	<path fill-rule="evenodd" clip-rule="evenodd" fill="#F48867" d="M44.978,20.908c0-0.148,0-0.296,0-0.444c0.858,0,1.716,0,2.574,0
		c0.143,0,0.286,0,0.429,0c0,0.148,0,0.296,0,0.444c-0.286,0-0.572,0-0.858,0C46.407,20.908,45.693,20.908,44.978,20.908z"/>
	<path fill-rule="evenodd" clip-rule="evenodd" fill="#D267A2" d="M67.285,20.908c0-0.148,0-0.296,0-0.444c2.002,0,4.005,0,6.007,0
		c0,0.148,0,0.296,0,0.444c-0.144,0-0.286,0-0.43,0C71.004,20.908,69.146,20.908,67.285,20.908z"/>
	<path fill-rule="evenodd" clip-rule="evenodd" fill="#BA67A9" d="M73.292,20.908c0-0.148,0-0.296,0-0.444c0.716,0,1.43,0,2.145,0
		c0.144,0,0.286,0,0.43,0c0,0.148,0,0.296,0,0.444C75.008,20.908,74.149,20.908,73.292,20.908z"/>
	<path fill-rule="evenodd" clip-rule="evenodd" fill="#DFA4C0" d="M75.866,20.908c0-0.148,0-0.296,0-0.444c1.143,0,2.287,0,3.432,0
		c0,0.148,0,0.296,0,0.444c-0.286,0-0.572,0-0.857,0C77.581,20.908,76.724,20.908,75.866,20.908z"/>
	<path fill-rule="evenodd" clip-rule="evenodd" fill="#DE435B" d="M42.833,21.353c0-0.148,0-0.296,0-0.444c0.715,0,1.43,0,2.145,0
		c0.715,0,1.43,0,2.145,0c-0.012,0.433-0.525,0.345-0.858,0.444C45.121,21.353,43.976,21.353,42.833,21.353z"/>
	<path fill-rule="evenodd" clip-rule="evenodd" fill="#D81C55" d="M47.123,20.908c0.286,0,0.572,0,0.858,0c2.145,0,4.29,0,6.435,0
		c1.605,2.336,3.972,3.885,5.578,6.221c-0.715,0-1.431,0-2.146,0c-2.145,0-4.29,0-6.435,0c-1.462-2.188-3.687-3.587-5.148-5.776
		C46.598,21.253,47.11,21.341,47.123,20.908z"/>
	<path fill-rule="evenodd" clip-rule="evenodd" fill="#CE1971" d="M54.416,20.908c3.146,0,6.292,0,9.438,0
		c1.605,2.336,3.972,3.885,5.577,6.221c-3.146,0-6.293,0-9.438,0C58.388,24.793,56.021,23.245,54.416,20.908z"/>
	<path fill-rule="evenodd" clip-rule="evenodd" fill="#C41C89" d="M63.854,20.908c1.145,0,2.288,0,3.432,0c1.86,0,3.719,0,5.577,0
		c3.272,1.351,5.04,4.26,7.293,6.666c-1.001,0-2.002,0-3.002,0c-0.319-1.002-2.406-0.174-3.433-0.445c-1.431,0-2.86,0-4.29,0
		C67.825,24.793,65.459,23.245,63.854,20.908z"/>
	<path fill-rule="evenodd" clip-rule="evenodd" fill="#BA67A9" d="M78.44,20.908c0.285,0,0.571,0,0.857,0c0.715,0,1.43,0,2.145,0
		c0,0.148,0,0.296,0,0.444C80.554,21.089,78.624,21.902,78.44,20.908z"/>
	<path fill-rule="evenodd" clip-rule="evenodd" fill="#DFA4C0" d="M81.442,21.353c0-0.148,0-0.296,0-0.444
		c0.643,0.076,1.583-0.158,1.717,0.444c-0.286,0-0.572,0-0.858,0C82.016,21.353,81.729,21.353,81.442,21.353z"/>
	<path fill-rule="evenodd" clip-rule="evenodd" fill="#DF1F44" d="M46.265,27.129c-1.488-2.31-3.828-3.737-5.577-5.776
		c0.715,0,1.43,0,2.145,0c1.144,0,2.288,0,3.432,0c1.461,2.189,3.686,3.588,5.148,5.776C49.697,27.129,47.98,27.129,46.265,27.129z"
		/>
	<path fill-rule="evenodd" clip-rule="evenodd" fill="#BA67A9" d="M82.301,21.353c0.286,0,0.572,0,0.858,0
		c0.333,0.1,0.846,0.013,0.856,0.445C83.375,21.722,82.434,21.956,82.301,21.353z"/>
	<path fill-rule="evenodd" clip-rule="evenodd" fill="#DE435B" d="M46.265,27.574c0-0.148,0-0.296,0-0.445c1.716,0,3.432,0,5.148,0
		c2.145,0,4.29,0,6.435,0c0,0.148,0,0.297,0,0.445c-0.858,0-1.716,0-2.574,0c-2.574,0-5.148,0-7.722,0
		C47.123,27.574,46.693,27.574,46.265,27.574z"/>
	<path fill-rule="evenodd" clip-rule="evenodd" fill="#D65280" d="M57.848,27.574c0-0.148,0-0.296,0-0.445c0.715,0,1.431,0,2.146,0
		c3.145,0,6.292,0,9.438,0c1.43,0,2.859,0,4.29,0c0,0.148,0,0.297,0,0.445C68.43,27.574,63.138,27.574,57.848,27.574z"/>
	<path fill-rule="evenodd" clip-rule="evenodd" fill="#AB3994" d="M73.721,27.574c0-0.148,0-0.296,0-0.445
		c1.026,0.271,3.113-0.558,3.433,0.445c-0.43,0-0.859,0-1.287,0C75.15,27.574,74.436,27.574,73.721,27.574z"/>
	<path fill-rule="evenodd" clip-rule="evenodd" fill="#EA4F44" d="M41.117,28.018c0-0.148,0-0.296,0-0.444c0.858,0,1.716,0,2.574,0
		c0,0.148,0,0.296,0,0.444c-0.429,0-0.858,0-1.287,0C41.975,28.018,41.545,28.018,41.117,28.018z"/>
	<path fill-rule="evenodd" clip-rule="evenodd" fill="#F5A790" d="M47.552,28.018c0-0.148,0-0.296,0-0.444c2.574,0,5.148,0,7.722,0
		c0,0.148,0,0.296,0,0.444c-1.859,0-3.718,0-5.577,0C48.981,28.018,48.267,28.018,47.552,28.018z"/>
	<path fill-rule="evenodd" clip-rule="evenodd" fill="#DFA4C0" d="M55.273,28.018c0-0.148,0-0.296,0-0.444c0.858,0,1.716,0,2.574,0
		c5.29,0,10.582,0,15.873,0c0.715,0,1.43,0,2.146,0c0,0.148,0,0.296,0,0.444c-2.718,0-5.435,0-8.151,0
		C63.567,28.018,59.42,28.018,55.273,28.018z"/>
	<path fill-rule="evenodd" clip-rule="evenodd" fill="#FDEBDE" d="M46.265,28.462c0-0.148,0-0.296,0-0.444c0.429,0,0.858,0,1.287,0
		c0.715,0,1.43,0,2.145,0c0,0.148,0,0.296,0,0.444C48.553,28.462,47.409,28.462,46.265,28.462z"/>
	<path fill-rule="evenodd" clip-rule="evenodd" fill="#FFF4EE" d="M49.697,28.462c0-0.148,0-0.296,0-0.444c1.859,0,3.717,0,5.577,0
		c4.146,0,8.294,0,12.441,0c0,0.148,0,0.296,0,0.444C61.709,28.462,55.703,28.462,49.697,28.462z"/>
	<path fill-rule="evenodd" clip-rule="evenodd" fill="#EFD5E2" d="M81.442,34.238c-0.192-0.726,2.339-0.726,2.146,0
		C82.873,34.238,82.157,34.238,81.442,34.238z"/>
	<path fill-rule="evenodd" clip-rule="evenodd" fill="#D267A2" d="M81.442,34.683c0-0.148,0-0.296,0-0.444c0.715,0,1.431,0,2.146,0
		c0,0.148,0,0.296,0,0.444C82.873,34.683,82.157,34.683,81.442,34.683z"/>
	<path fill-rule="evenodd" clip-rule="evenodd" fill="#CE1971" d="M78.44,37.349c2.101-0.123,6.403,3.31,6.005,5.776
		c-0.333,0.099-0.846,0.012-0.857,0.444c-0.572,0-1.145,0-1.717,0c-2.016-0.577-3.303-1.911-3.86-3.999c0-0.444,0-0.889,0-1.333
		C78.346,38.14,78.51,37.865,78.44,37.349z"/>
	<path fill-rule="evenodd" clip-rule="evenodd" fill="#BA67A9" d="M99.89,37.793c0.636,0.083,0.395,1.074,0.43,1.777
		C99.684,39.488,99.926,38.497,99.89,37.793z"/>
	<path fill-rule="evenodd" clip-rule="evenodd" fill="#EFD5E2" d="M77.581,40.015c-0.695,0.317-0.695-2.095,0-1.778
		C77.581,38.83,77.581,39.422,77.581,40.015z"/>
	<path fill-rule="evenodd" clip-rule="evenodd" fill="#D267A2" d="M77.581,38.237c0.145,0,0.287,0,0.43,0c0,0.444,0,0.889,0,1.333
		c0,0.148,0,0.296,0,0.444c-0.143,0-0.285,0-0.43,0C77.581,39.422,77.581,38.83,77.581,38.237z"/>
	<path fill-rule="evenodd" clip-rule="evenodd" fill="#D267A2" d="M87.02,38.237c0.144,0,0.286,0,0.43,0c0,0.593,0,1.185,0,1.778
		c-0.144,0-0.286,0-0.43,0C87.02,39.422,87.02,38.83,87.02,38.237z"/>
	<path fill-rule="evenodd" clip-rule="evenodd" fill="#EFD5E2" d="M87.449,38.237c0.696-0.317,0.696,2.095,0,1.778
		C87.449,39.422,87.449,38.83,87.449,38.237z"/>
	<path fill-rule="evenodd" clip-rule="evenodd" fill="#FFF4EE" d="M59.563,39.57c0.059-0.731,2.944-0.731,3.003,0
		C61.565,39.57,60.564,39.57,59.563,39.57z"/>
	<path fill-rule="evenodd" clip-rule="evenodd" fill="#BA67A9" d="M100.319,40.015c0.93-0.075,0.193,1.576,0.429,2.222
		c0,0.296,0,0.592,0,0.889C99.789,42.934,100.574,40.935,100.319,40.015z"/>
	<path fill-rule="evenodd" clip-rule="evenodd" fill="#F06B47" d="M20.953,41.792c0.097-0.345,0.012-0.876,0.429-0.889
		c0,0.741,0,1.481,0,2.222c-0.143,0-0.286,0-0.429,0C20.953,42.681,20.953,42.236,20.953,41.792z"/>
	<path fill-rule="evenodd" clip-rule="evenodd" fill="#C41C89" d="M94.313,41.347c2.322,2.335,5.131,4.165,6.436,7.554
		c0,1.777,0,3.554,0,5.332c0,1.185,0,2.37,0,3.554c-2.255-1.662-3.75-4.113-6.007-5.776c0-1.333,0-2.666,0-3.999
		c-0.261-1.062,0.539-3.224-0.429-3.555C94.313,43.421,94.313,42.384,94.313,41.347z"/>
	<path fill-rule="evenodd" clip-rule="evenodd" fill="#F06B47" d="M27.817,42.236c0.143,0,0.286,0,0.429,0c0,0.592,0,1.185,0,1.777
		c-0.144,0-0.286,0-0.429,0c0-0.296,0-0.592,0-0.888C27.817,42.829,27.817,42.532,27.817,42.236z"/>
	<path fill-rule="evenodd" clip-rule="evenodd" fill="#DFA4C0" d="M100.748,42.236c0.144,0,0.285,0,0.429,0c0,1.185,0,2.37,0,3.555
		c-0.144,0-0.285,0-0.429,0c0-0.889,0-1.778,0-2.666C100.748,42.829,100.748,42.532,100.748,42.236z"/>
	<path fill-rule="evenodd" clip-rule="evenodd" fill="#FDEBDE" d="M20.095,45.791c0.247-0.781-0.519-2.611,0.429-2.666
		c0,0.74,0,1.481,0,2.222c0,0.148,0,0.296,0,0.444C20.381,45.791,20.238,45.791,20.095,45.791z"/>
	<path fill-rule="evenodd" clip-rule="evenodd" fill="#F26524" d="M20.953,43.125c0.144,0,0.286,0,0.429,0
		c0.083,4.653,4.1,5.232,6.006,7.998c0,1.185,0,2.37,0,3.555c0,1.037,0,2.073,0,3.11c-1.417,0.943-4.366-4.009-6.435-5.332
		c0-2.37,0-4.739,0-7.109C20.953,44.606,20.953,43.865,20.953,43.125z"/>
	<path fill-rule="evenodd" clip-rule="evenodd" fill="#D267A2" d="M81.442,44.013c0-0.148,0-0.296,0-0.444c0.144,0,0.287,0,0.429,0
		c0.572,0,1.145,0,1.717,0c0,0.148,0,0.296,0,0.444c-0.572,0-1.145,0-1.717,0C81.729,44.013,81.586,44.013,81.442,44.013z"/>
	<path fill-rule="evenodd" clip-rule="evenodd" fill="#F48867" d="M27.817,44.013c0.143,0,0.286,0,0.429,0c0,0.593,0,1.185,0,1.778
		c0,0.148,0,0.296,0,0.444c-0.144,0-0.286,0-0.429,0C27.817,45.495,27.817,44.754,27.817,44.013z"/>
	<path fill-rule="evenodd" clip-rule="evenodd" fill="#EFD5E2" d="M83.588,44.013c0.307,0.721-2.023,0.721-1.717,0
		C82.443,44.013,83.016,44.013,83.588,44.013z"/>
	<path fill-rule="evenodd" clip-rule="evenodd" fill="#AB3994" d="M94.313,44.458c0.968,0.331,0.168,2.493,0.429,3.555
		c-0.143,0-0.285,0-0.429,0c0-0.741,0-1.481,0-2.221C94.313,45.347,94.313,44.902,94.313,44.458z"/>
	<path fill-rule="evenodd" clip-rule="evenodd" fill="#F48867" d="M20.524,45.791c0-0.148,0-0.296,0-0.444c0.143,0,0.286,0,0.429,0
		c0,2.37,0,4.739,0,7.109c0,1.037,0,2.074,0,3.11c-0.143,0-0.286,0-0.429,0C20.524,52.308,20.524,49.049,20.524,45.791z"/>
	<path fill-rule="evenodd" clip-rule="evenodd" fill="#FEE4CD" d="M20.095,45.791c0.143,0,0.286,0,0.429,0c0,3.258,0,6.517,0,9.775
		c0,3.851,0,7.702,0,11.552c-0.144,0-0.286,0-0.429,0C20.095,60.009,20.095,52.9,20.095,45.791z"/>
	<path fill-rule="evenodd" clip-rule="evenodd" fill="#FDEBDE" d="M28.247,46.235c0-0.148,0-0.296,0-0.444c0.143,0,0.286,0,0.429,0
		c0,1.185,0,2.369,0,3.554c-0.143,0-0.286,0-0.429,0C28.247,48.309,28.247,47.271,28.247,46.235z"/>
	<path fill-rule="evenodd" clip-rule="evenodd" fill="#DFA4C0" d="M93.885,45.791c0.142,0,0.285,0,0.428,0c0,0.74,0,1.48,0,2.221
		c0,5.036,0,10.071,0,15.107c0,1.037,0,2.074,0,3.11c-0.143,0-0.286,0-0.428,0c0-4.146,0-8.294,0-12.441
		C93.885,51.123,93.885,48.457,93.885,45.791z"/>
	<path fill-rule="evenodd" clip-rule="evenodd" fill="#F26524" d="M27.817,46.235c0,1.036,0,2.073,0,3.11c-0.143,0-0.286,0-0.429,0
		C27.644,48.425,26.858,46.426,27.817,46.235z"/>
	<path fill-rule="evenodd" clip-rule="evenodd" fill="#F5A790" d="M27.817,46.235c0.143,0,0.286,0,0.429,0c0,1.036,0,2.073,0,3.11
		c0,0.444,0,0.889,0,1.333c-0.144,0-0.286,0-0.429,0c0-0.444,0-0.889,0-1.333C27.817,48.309,27.817,47.271,27.817,46.235z"/>
	<path fill-rule="evenodd" clip-rule="evenodd" fill="#EFD5E2" d="M101.177,46.235c0.144,0,0.286,0,0.43,0
		c0,9.182,0,18.365,0,27.548c-0.144,0-0.286,0-0.43,0c0-0.148,0-0.296,0-0.445c0-6.367,0-12.736,0-19.105c0-1.925,0-3.851,0-5.776
		C101.177,47.716,101.177,46.976,101.177,46.235z"/>
	<path fill-rule="evenodd" clip-rule="evenodd" fill="#D65280" d="M94.313,48.012c0.144,0,0.286,0,0.429,0c0,1.333,0,2.666,0,3.999
		c0,3.11,0,6.22,0,9.332c0,0.592,0,1.185,0,1.776c-0.143,0-0.285,0-0.429,0C94.313,58.083,94.313,53.048,94.313,48.012z"/>
	<path fill-rule="evenodd" clip-rule="evenodd" fill="#D267A2" d="M100.748,48.901c0-0.148,0-0.296,0-0.444c0.144,0,0.285,0,0.429,0
		c0,1.925,0,3.851,0,5.776c-0.144,0-0.285,0-0.429,0C100.748,52.456,100.748,50.678,100.748,48.901z"/>
	<path fill-rule="evenodd" clip-rule="evenodd" fill="#F06B47" d="M27.388,49.345c0.144,0,0.286,0,0.429,0c0,0.444,0,0.889,0,1.333
		c0,1.333,0,2.666,0,3.999c-0.143,0-0.286,0-0.429,0c0-1.185,0-2.37,0-3.555C27.388,50.53,27.388,49.938,27.388,49.345z"/>
	<path fill-rule="evenodd" clip-rule="evenodd" fill="#FFF4EE" d="M28.247,49.345c0.143,0,0.286,0,0.429,0
		c0,8.442,0,16.884,0,25.327c-0.143,0-0.286,0-0.429,0c0-7.997,0-15.996,0-23.994C28.247,50.234,28.247,49.79,28.247,49.345z"/>
	<path fill-rule="evenodd" clip-rule="evenodd" fill="#FDCCA3" d="M27.817,50.678c0.143,0,0.286,0,0.429,0
		c0,7.998,0,15.997,0,23.994c-0.144,0-0.286,0-0.429,0c0-2.814,0-5.629,0-8.442c0-1.333,0-2.665,0-3.999c0-2.518,0-5.035,0-7.553
		C27.817,53.344,27.817,52.011,27.817,50.678z"/>
	<path fill-rule="evenodd" clip-rule="evenodd" fill="#CE1971" d="M94.741,52.011c2.257,1.663,3.752,4.114,6.007,5.776
		c0,3.11,0,6.221,0,9.331c-2.255-1.662-3.75-4.113-6.007-5.775C94.741,58.231,94.741,55.122,94.741,52.011z"/>
	<path fill-rule="evenodd" clip-rule="evenodd" fill="#F57F20" d="M20.953,52.456c2.069,1.322,5.019,6.275,6.435,5.332
		c0-1.037,0-2.073,0-3.11c0.144,0,0.286,0,0.429,0c0,2.518,0,5.036,0,7.553c-0.974,0.473-0.163,2.793-0.429,3.999
		c-2.338-1.725-3.798-4.359-6.435-5.776c0-1.629,0-3.258,0-4.887C20.953,54.529,20.953,53.492,20.953,52.456z"/>
	<path fill-rule="evenodd" clip-rule="evenodd" fill="#FFF4EE" d="M93.455,53.789c0.143,0,0.285,0,0.43,0c0,4.147,0,8.294,0,12.441
		c0,1.777,0,3.556,0,5.332c-0.145,0-0.287,0-0.43,0C93.455,65.637,93.455,59.713,93.455,53.789z"/>
	<path fill-rule="evenodd" clip-rule="evenodd" fill="#FAA744" d="M20.524,55.566c0.143,0,0.286,0,0.429,0c0,1.629,0,3.258,0,4.887
		c0,2.518,0,5.036,0,7.554c0,0.148,0,0.296,0,0.444c-0.143,0-0.286,0-0.429,0c0-0.444,0-0.889,0-1.333
		C20.524,63.268,20.524,59.417,20.524,55.566z"/>
	<path fill-rule="evenodd" clip-rule="evenodd" fill="#F06B47" d="M40.258,59.121c0-0.445,0-0.89,0-1.334c0.144,0,0.286,0,0.429,0
		c0,1.777,0,3.556,0,5.332c-0.5-0.074-0.466-0.702-0.429-1.333C40.258,60.897,40.258,60.009,40.258,59.121z"/>
	<path fill-rule="evenodd" clip-rule="evenodd" fill="#FFF4EE" d="M39.83,61.786c-0.704,0.073-0.704-2.738,0-2.665
		C39.83,60.009,39.83,60.897,39.83,61.786z"/>
	<path fill-rule="evenodd" clip-rule="evenodd" fill="#FDCCA3" d="M39.83,59.121c0.143,0,0.286,0,0.429,0c0,0.888,0,1.776,0,2.665
		c-0.143,0-0.286,0-0.429,0C39.83,60.897,39.83,60.009,39.83,59.121z"/>
	<path fill-rule="evenodd" clip-rule="evenodd" fill="#FFF4EE" d="M82.301,59.121c0.704-0.073,0.704,2.738,0,2.665
		C82.301,60.897,82.301,60.009,82.301,59.121z"/>
	<path fill-rule="evenodd" clip-rule="evenodd" fill="#D81C55" d="M94.741,61.343c2.257,1.662,3.752,4.113,6.007,5.775
		c0,2.074,0,4.147,0,6.22c0,0.297,0,0.593,0,0.89c-0.418,0.012-0.333,0.544-0.429,0.89c-2.113-1.515-3.464-3.819-5.578-5.332
		c0-2.223,0-4.444,0-6.666C94.741,62.527,94.741,61.935,94.741,61.343z"/>
	<path fill-rule="evenodd" clip-rule="evenodd" fill="#DE435B" d="M94.313,63.119c0.144,0,0.286,0,0.429,0c0,2.222,0,4.443,0,6.666
		c0,1.776,0,3.553,0,5.332c-0.143,0-0.285,0-0.429,0c0-0.445,0-0.89,0-1.334c0-2.518,0-5.036,0-7.554
		C94.313,65.193,94.313,64.156,94.313,63.119z"/>
	<path fill-rule="evenodd" clip-rule="evenodd" fill="#FAA744" d="M27.388,73.783c0.279-2.377-0.563-5.915,0.429-7.554
		c0,2.813,0,5.628,0,8.442C27.4,74.659,27.485,74.128,27.388,73.783z"/>
	<path fill-rule="evenodd" clip-rule="evenodd" fill="#F5A790" d="M93.885,66.229c0.142,0,0.285,0,0.428,0c0,2.518,0,5.036,0,7.554
		c-0.143,0-0.286,0-0.428,0c0-0.741,0-1.48,0-2.222C93.885,69.785,93.885,68.007,93.885,66.229z"/>
	<path fill-rule="evenodd" clip-rule="evenodd" fill="#FDEBDE" d="M20.095,67.118c0.143,0,0.286,0,0.429,0c0,0.444,0,0.889,0,1.333
		c0,2.073,0,4.147,0,6.221c-0.144,0-0.286,0-0.429,0C20.095,72.153,20.095,69.636,20.095,67.118z"/>
	<path fill-rule="evenodd" clip-rule="evenodd" fill="#FBB51A" d="M20.953,68.451c0-0.148,0-0.296,0-0.444
		c2.75,1.301,4.021,4.129,6.435,5.776c0.097,0.345,0.012,0.876,0.429,0.889c0.269,1.351-0.549,3.827,0.429,4.443
		c0,0.889,0,1.776,0,2.665c-1.679,0.35-5.624-4.5-7.293-7.108C20.953,72.599,20.953,70.524,20.953,68.451z"/>
	<path fill-rule="evenodd" clip-rule="evenodd" fill="#FFD264" d="M20.524,68.451c0.143,0,0.286,0,0.429,0c0,2.073,0,4.147,0,6.221
		c0,0.296,0,0.592,0,0.888c-0.143,0-0.286,0-0.429,0c0-0.296,0-0.592,0-0.888C20.524,72.599,20.524,70.524,20.524,68.451z"/>
	<path fill-rule="evenodd" clip-rule="evenodd" fill="#DF1F44" d="M94.741,69.785c2.114,1.513,3.465,3.817,5.578,5.332
		c0,1.184,0,2.368,0,3.553c0,0.593,0,1.186,0,1.778c-2.113-1.514-3.464-3.818-5.578-5.331
		C94.741,73.338,94.741,71.562,94.741,69.785z"/>
	<path fill-rule="evenodd" clip-rule="evenodd" fill="#FDEBDE" d="M93.455,71.562c0.143,0,0.285,0,0.43,0c0,0.741,0,1.48,0,2.222
		c0,0.296,0,0.592,0,0.889c-0.145,0-0.287,0-0.43,0C93.455,73.635,93.455,72.599,93.455,71.562z"/>
	<path fill-rule="evenodd" clip-rule="evenodd" fill="#F48867" d="M100.748,73.338c0.144,0,0.285,0,0.429,0c0,0.149,0,0.297,0,0.445
		c0,0.889,0,1.776,0,2.665c-0.144,0-0.285,0-0.429,0c0-0.739,0-1.48,0-2.221C100.748,73.931,100.748,73.635,100.748,73.338z"/>
	<path fill-rule="evenodd" clip-rule="evenodd" fill="#DE435B" d="M100.748,74.228c0,0.74,0,1.481,0,2.221c0,0.741,0,1.482,0,2.222
		c-0.144,0-0.286,0-0.429,0c0-1.185,0-2.369,0-3.553C100.415,74.771,100.33,74.239,100.748,74.228z"/>
	<path fill-rule="evenodd" clip-rule="evenodd" fill="#FFF4EE" d="M20.095,74.672c0.143,0,0.286,0,0.429,0c0,0.296,0,0.592,0,0.888
		c0,0.593,0,1.186,0,1.778c0,0.296,0,0.593,0,0.889C19.557,77.895,20.356,75.734,20.095,74.672z"/>
	<path fill-rule="evenodd" clip-rule="evenodd" fill="#FFD264" d="M27.817,74.672c0.143,0,0.286,0,0.429,0c0,1.48,0,2.962,0,4.443
		C27.268,78.499,28.086,76.022,27.817,74.672z"/>
	<path fill-rule="evenodd" clip-rule="evenodd" fill="#FDCCA3" d="M20.524,75.56c0.143,0,0.286,0,0.429,0c0,0.593,0,1.186,0,1.778
		c-0.143,0-0.286,0-0.429,0C20.524,76.745,20.524,76.152,20.524,75.56z"/>
	<path fill-rule="evenodd" clip-rule="evenodd" fill="#FFD264" d="M20.953,77.338c0.967,0.331,0.168,2.492,0.429,3.554
		c-0.143,0-0.286,0-0.429,0c0-0.147,0-0.296,0-0.443C20.953,79.411,20.953,78.374,20.953,77.338z"/>
	<path fill-rule="evenodd" clip-rule="evenodd" fill="#EA4F44" d="M93.885,77.782c0.142,0,0.285,0,0.428,0c0,0.741,0,1.48,0,2.222
		c-0.143,0-0.286,0-0.428,0c0-0.296,0-0.593,0-0.889C93.885,78.67,93.885,78.227,93.885,77.782z"/>
	<path fill-rule="evenodd" clip-rule="evenodd" fill="#F06B47" d="M59.563,80.892c-0.332-0.099-0.847-0.012-0.857-0.443
		c1.716,0,3.432,0,5.147,0c-0.072,0.518-0.679,0.481-1.287,0.443C61.565,80.892,60.564,80.892,59.563,80.892z"/>
	<path fill-rule="evenodd" clip-rule="evenodd" fill="#FDCCA3" d="M59.563,81.337c0-0.148,0-0.296,0-0.445c1.001,0,2.002,0,3.003,0
		c0,0.149,0,0.297,0,0.445C61.565,81.337,60.564,81.337,59.563,81.337z"/>
	<path fill-rule="evenodd" clip-rule="evenodd" fill="#FFD264" d="M21.382,81.337c0.636,0.082,0.394,1.073,0.429,1.777
		c-0.144,0-0.286,0-0.429,0C21.382,82.521,21.382,81.93,21.382,81.337z"/>
	<path fill-rule="evenodd" clip-rule="evenodd" fill="#FFF4EE" d="M62.566,81.337c-0.059,0.73-2.944,0.73-3.003,0
		C60.564,81.337,61.565,81.337,62.566,81.337z"/>
	<path fill-rule="evenodd" clip-rule="evenodd" fill="#FFF4EE" d="M46.693,92.89c0-0.149,0-0.296,0-0.445c8.58,0,17.16,0,25.74,0
		c0,0.149,0,0.296,0,0.445c-0.715,0-1.43,0-2.145,0C62.424,92.89,54.559,92.89,46.693,92.89z"/>
	<path fill-rule="evenodd" clip-rule="evenodd" fill="#FDEBDE" d="M72.434,92.89c0-0.149,0-0.296,0-0.445c1.145,0,2.288,0,3.433,0
		c0,0.149,0,0.296,0,0.445c-0.144,0-0.286,0-0.43,0C74.436,92.89,73.435,92.89,72.434,92.89z"/>
	<path fill-rule="evenodd" clip-rule="evenodd" fill="#FBB51A" d="M39.4,92.89c1.001,0,2.002,0,3.003,0
		c0.595,1.013,2.986,0.164,4.29,0.443c0.012,0.433,0.525,0.345,0.858,0.445c1.577,2.513,4.212,3.93,6.006,6.22
		c-0.144,0-0.286,0-0.429,0c-2.145,0-4.29,0-6.435,0c-3.004-1.632-6.729-4.875-7.722-7.108C39.115,92.89,39.258,92.89,39.4,92.89z"
		/>
	<path fill-rule="evenodd" clip-rule="evenodd" fill="#FFD264" d="M42.403,92.89c1.43,0,2.86,0,4.29,0c0,0.147,0,0.296,0,0.443
		C45.389,93.054,42.998,93.902,42.403,92.89z"/>
	<path fill-rule="evenodd" clip-rule="evenodd" fill="#FDCCA3" d="M46.693,93.333c0-0.147,0-0.296,0-0.443c7.865,0,15.73,0,23.596,0
		c0,0.147,0,0.296,0,0.443c-1.144,0-2.289,0-3.433,0c-2.574,0-5.147,0-7.722,0c-1.287,0-2.574,0-3.861,0
		C52.414,93.333,49.554,93.333,46.693,93.333z"/>
	<path fill-rule="evenodd" clip-rule="evenodd" fill="#F5A790" d="M70.289,93.333c0-0.147,0-0.296,0-0.443c0.715,0,1.43,0,2.145,0
		c1.001,0,2.002,0,3.003,0c0,0.147,0,0.296,0,0.443c-1.001,0-2.002,0-3.003,0C71.719,93.333,71.004,93.333,70.289,93.333z"/>
	<path fill-rule="evenodd" clip-rule="evenodd" fill="#F48867" d="M75.437,93.333c0-0.147,0-0.296,0-0.443c0.144,0,0.286,0,0.43,0
		c0.571,0,1.143,0,1.715,0c0,0.147,0,0.296,0,0.443C76.867,93.333,76.152,93.333,75.437,93.333z"/>
	<path fill-rule="evenodd" clip-rule="evenodd" fill="#F06B47" d="M77.581,93.333c0-0.147,0-0.296,0-0.443c0.572,0,1.145,0,1.717,0
		c0,0.147,0,0.296,0,0.443c-0.286,0-0.572,0-0.857,0C78.153,93.333,77.868,93.333,77.581,93.333z"/>
	<path fill-rule="evenodd" clip-rule="evenodd" fill="#FAA744" d="M46.693,93.333c2.86,0,5.72,0,8.58,0
		c-1.724,1.029-5.285,0.154-7.722,0.445C47.219,93.678,46.706,93.766,46.693,93.333z"/>
	<path fill-rule="evenodd" clip-rule="evenodd" fill="#F57F20" d="M59.135,93.333c2.574,0,5.147,0,7.722,0c0,0.148,0,0.296,0,0.445
		c-1.145,0-2.288,0-3.432,0c0.375,1.84,3.783,4.37,5.576,6.22c-1.001,0-2.001,0-3.002,0c-1.717,0-3.433,0-5.148,0
		c-1.68-2.111-3.539-4.036-5.577-5.777C55.6,92.93,58.809,94.625,59.135,93.333z"/>
	<path fill-rule="evenodd" clip-rule="evenodd" fill="#F06B47" d="M66.856,93.778c0-0.149,0-0.297,0-0.445c1.144,0,2.289,0,3.433,0
		c0.715,0,1.43,0,2.145,0c0,0.148,0,0.296,0,0.445c-0.715,0-1.43,0-2.145,0C69.146,93.778,68,93.778,66.856,93.778z"/>
	<path fill-rule="evenodd" clip-rule="evenodd" fill="#F26524" d="M72.434,93.778c0-0.149,0-0.297,0-0.445c1.001,0,2.002,0,3.003,0
		C75.252,94.326,73.322,93.513,72.434,93.778z"/>
	<path fill-rule="evenodd" clip-rule="evenodd" fill="#F26524" d="M66.856,93.778c1.144,0,2.289,0,3.433,0
		c2.755,1.886,3.599,5.751,8.151,5.774c0,0.149,0,0.297,0,0.445c-0.715,0-1.432,0-2.146,0c-2.431,0-4.86,0-7.293,0
		c-1.793-1.85-5.201-4.38-5.576-6.22C64.568,93.778,65.712,93.778,66.856,93.778z"/>
	<path fill-rule="evenodd" clip-rule="evenodd" fill="#FFD264" d="M38.113,99.553c0-0.146,0-0.296,0-0.442
		c0.642,0.075,1.583-0.16,1.716,0.442C39.258,99.553,38.686,99.553,38.113,99.553z"/>
	<path fill-rule="evenodd" clip-rule="evenodd" fill="#FFD264" d="M40.258,99.998c0-0.148,0-0.296,0-0.445
		c1.165,0.276,3.405-0.563,3.861,0.445c-1.144,0-2.288,0-3.432,0C40.544,99.998,40.402,99.998,40.258,99.998z"/>
	<path fill-rule="evenodd" clip-rule="evenodd" fill="#F06B47" d="M78.44,99.998c0-0.148,0-0.296,0-0.445c0.714,0,1.43,0,2.145,0
		c0,0.149,0,0.297,0,0.445c-0.286,0-0.572,0-0.858,0C79.298,99.998,78.868,99.998,78.44,99.998z"/>
	<path fill-rule="evenodd" clip-rule="evenodd" fill="#FDCCA3" d="M44.12,100.442c0-0.147,0-0.297,0-0.444c0.572,0,1.144,0,1.716,0
		c0,0.147,0,0.297,0,0.444C45.263,100.442,44.691,100.442,44.12,100.442z"/>
	<path fill-rule="evenodd" clip-rule="evenodd" fill="#FFD264" d="M45.835,100.442c0-0.147,0-0.297,0-0.444c0.286,0,0.572,0,0.858,0
		c2.145,0,4.29,0,6.435,0c0,0.147,0,0.297,0,0.444c-2.145,0-4.29,0-6.435,0C46.407,100.442,46.122,100.442,45.835,100.442z"/>
	<path fill-rule="evenodd" clip-rule="evenodd" fill="#FAA744" d="M53.128,100.442c0-0.147,0-0.297,0-0.444c0.143,0,0.286,0,0.429,0
		c2.431,0,4.862,0,7.293,0c1.716,0,3.432,0,5.148,0c0,0.147,0,0.297,0,0.444c-3.861,0-7.723,0-11.583,0
		C53.987,100.442,53.558,100.442,53.128,100.442z"/>
	<path fill-rule="evenodd" clip-rule="evenodd" fill="#F48867" d="M65.999,100.442c0-0.147,0-0.297,0-0.444c1.001,0,2.001,0,3.002,0
		c2.433,0,4.862,0,7.293,0c0,0.147,0,0.297,0,0.444c-0.142,0-0.286,0-0.428,0C72.577,100.442,69.287,100.442,65.999,100.442z"/>
	<path fill-rule="evenodd" clip-rule="evenodd" fill="#FFF4EE" d="M43.262,100.887c0-0.148,0-0.296,0-0.444c0.286,0,0.572,0,0.858,0
		c0.572,0,1.144,0,1.716,0c0.286,0,0.572,0,0.858,0c0,0.148,0,0.296,0,0.444C45.549,100.887,44.406,100.887,43.262,100.887z"/>
	<path fill-rule="evenodd" clip-rule="evenodd" fill="#FDEBDE" d="M46.693,100.887c0-0.148,0-0.296,0-0.444c2.145,0,4.29,0,6.435,0
		c0.429,0,0.858,0,1.287,0c0,0.148,0,0.296,0,0.444C51.842,100.887,49.268,100.887,46.693,100.887z"/>
	<path fill-rule="evenodd" clip-rule="evenodd" fill="#FEE4CD" d="M54.416,100.887c0-0.148,0-0.296,0-0.444
		c3.861,0,7.722,0,11.583,0c3.288,0,6.578,0,9.867,0c0,0.148,0,0.296,0,0.444C68.716,100.887,61.565,100.887,54.416,100.887z"/>
	<path fill-rule="evenodd" clip-rule="evenodd" fill="#FDEBDE" d="M75.866,100.887c0-0.148,0-0.296,0-0.444c0.142,0,0.286,0,0.428,0
		c0.715,0,1.432,0,2.146,0c0,0.148,0,0.296,0,0.444C77.581,100.887,76.724,100.887,75.866,100.887z"/>
	<path fill-rule="evenodd" clip-rule="evenodd" fill="#FBFBFA" d="M25.672,28.906c0.283-2.076,1.427-3.261,3.432-3.554
		c0,0.148,0,0.296,0,0.444c-1.532,0.487-2.533,1.524-3.003,3.11C25.958,28.906,25.815,28.906,25.672,28.906z"/>
	<path fill-rule="evenodd" clip-rule="evenodd" fill="#FFF4EE" d="M25.672,92.444c1.182,0.85,2.183,1.887,3.003,3.11
		C27.494,94.705,26.493,93.668,25.672,92.444z"/>
	<path fill-rule="evenodd" clip-rule="evenodd" fill="#FBFBFA" d="M96.458,92c-0.283,2.077-1.428,3.262-3.433,3.555
		c0-0.147,0-0.296,0-0.444c1.532-0.487,2.533-1.523,3.004-3.11C96.172,92,96.314,92,96.458,92z"/>
	<path fill-rule="evenodd" clip-rule="evenodd" fill="#FBFBFA" d="M96.458,28.018c-0.564-0.157-0.675-0.783-1.287-0.889
		c-0.365,0.082-0.405-0.173-0.43-0.444c-0.151-0.583-0.754-0.699-0.856-1.333C94.923,26.052,95.781,26.942,96.458,28.018z"/>
	<path fill-rule="evenodd" clip-rule="evenodd" fill="#F2EDEF" d="M91.311,24.463c1.349-0.212,1.677,0.633,2.574,0.889
		c0.103,0.634,0.705,0.749,0.856,1.333c-0.563-0.157-0.674-0.782-1.286-0.888c-0.348-0.084-0.428-0.446-0.858-0.444
		C92.25,24.97,91.422,25.088,91.311,24.463z"/>
	<path fill-rule="evenodd" clip-rule="evenodd" fill="#BA67A9" d="M87.449,22.686c1.245,0.34,2.467,0.703,3.002,1.777
		C89.513,23.806,88.143,23.597,87.449,22.686z"/>
	<path fill-rule="evenodd" clip-rule="evenodd" fill="#BA67A9" d="M92.597,25.352c0.431-0.001,0.511,0.36,0.858,0.444
		c0.677,1.076,1.534,1.964,2.574,2.666c0.081,0.36,0.43,0.442,0.429,0.888C94.99,28.204,93.704,26.871,92.597,25.352z"/>
	<path fill-rule="evenodd" clip-rule="evenodd" fill="#BA67A9" d="M97.315,31.128c1.038,0.554,1.388,1.821,1.717,3.11
		C98.153,33.52,97.95,32.101,97.315,31.128z"/>
	<path fill-rule="evenodd" clip-rule="evenodd" fill="#BA67A9" d="M93.455,38.681c-0.638-0.376-0.621-1.43-0.858-2.221
		C93.233,36.838,93.52,37.578,93.455,38.681z"/>
	<path fill-rule="evenodd" clip-rule="evenodd" fill="#BA67A9" d="M91.311,34.238c-0.564-0.157-0.676-0.783-1.288-0.889
		c-0.388-0.784-0.959-1.376-1.716-1.777c-0.152-0.583-0.755-0.699-0.857-1.333C88.915,31.386,90.203,32.719,91.311,34.238z"/>
	<path fill-rule="evenodd" clip-rule="evenodd" fill="#BA67A9" d="M85.304,29.351c-0.764-0.246-1.781-0.228-2.145-0.888
		C84.225,28.396,84.938,28.692,85.304,29.351z"/>
	<path fill-rule="evenodd" clip-rule="evenodd" fill="#EF3825" d="M30.392,34.683c-0.121-2.051,1.406-2.395,2.574-3.11
		c0.132,1.025-1.239,0.494-1.287,1.333c-0.417,0.013-0.333,0.544-0.429,0.889C30.784,33.904,30.958,34.677,30.392,34.683z"/>
	<path fill-rule="evenodd" clip-rule="evenodd" fill="#EF3825" d="M23.527,32.905c0.636-0.378,0.922-1.118,0.858-2.221
		c0.144,0,0.286,0,0.429,0c-0.036,0.704,0.206,1.694-0.429,1.777c1.394,1.326,2.966,4.488,4.719,3.999
		c0.054,0.797-0.525,0.938-0.429,1.777c0,0.593,0,1.185,0,1.778c-0.364-0.082-0.404,0.173-0.429,0.444
		c-0.583,0.137-0.356,1.112-0.429,1.777c0,0.296,0,0.592,0,0.889c-1.907-0.331-5.07-2.981-5.577-6.22
		c-0.055-0.798,0.525-0.938,0.429-1.778c0-0.148,0-0.296,0-0.444C23.246,34.39,23.468,33.733,23.527,32.905z"/>
	<path fill-rule="evenodd" clip-rule="evenodd" fill="#F48867" d="M29.104,25.352c1.34-0.834,2.366-1.994,4.29-2.222
		c-1.062,1.27-3.014,1.617-4.29,2.666C29.104,25.648,29.104,25.5,29.104,25.352z"/>
	<path fill-rule="evenodd" clip-rule="evenodd" fill="#F5A790" d="M26.102,28.906c0.47-1.586,1.471-2.623,3.003-3.11
		C28.067,26.794,27.065,27.832,26.102,28.906z"/>
	<path fill-rule="evenodd" clip-rule="evenodd" fill="#DFA4C0" d="M96.029,28.462c-1.04-0.702-1.897-1.59-2.574-2.666
		c0.612,0.106,0.724,0.731,1.286,0.888c0.024,0.271,0.064,0.526,0.43,0.444C95.322,27.713,95.927,27.828,96.029,28.462z"/>
	<path fill-rule="evenodd" clip-rule="evenodd" fill="#F2EDEF" d="M96.029,28.462c-0.103-0.635-0.707-0.75-0.858-1.333
		c0.612,0.106,0.723,0.732,1.287,0.889c0.184,0.846,0.924,1.116,0.857,2.221c-0.381-0.196-0.767-0.39-0.857-0.889
		C96.459,28.905,96.11,28.822,96.029,28.462z"/>
	<path fill-rule="evenodd" clip-rule="evenodd" fill="#FDEBDE" d="M90.881,86.669c0.034-1.445,0.549-2.394,1.716-2.667
		c0,0.149,0,0.297,0,0.445c-0.793,0.067-0.263,1.504-0.857,1.776c-0.365-0.081-0.404,0.174-0.429,0.445
		C91.167,86.669,91.023,86.669,90.881,86.669z"/>
	<path fill-rule="evenodd" clip-rule="evenodd" fill="#FFF4EE" d="M87.878,89.779c0.329-1.437,1.188-2.325,2.573-2.667
		c0.079,0.379-0.167,0.419-0.429,0.445c-0.756,0.401-1.328,0.993-1.716,1.776C88.386,89.713,88.139,89.753,87.878,89.779z"/>
	<path fill-rule="evenodd" clip-rule="evenodd" fill="#FBFBFA" d="M32.107,87.558c1.258,0.03,1.593,1.016,2.145,1.776
		c-0.347-0.084-0.428-0.444-0.858-0.444C32.994,88.416,31.812,88.752,32.107,87.558z"/>
	<path fill-rule="evenodd" clip-rule="evenodd" fill="#FFF4EE" d="M34.252,31.128c-0.112,1.809-1.719,2.07-3.003,2.666
		c0.096-0.345,0.012-0.876,0.429-0.889C33.185,32.984,33.089,31.405,34.252,31.128z"/>
	<path fill-rule="evenodd" clip-rule="evenodd" fill="#F48867" d="M24.814,30.684c-0.313-1.212,0.853-0.895,0.858-1.778
		c0.143,0,0.286,0,0.429,0c-0.224,0.658-0.635,1.12-0.858,1.778C25.101,30.684,24.958,30.684,24.814,30.684z"/>
	<path fill-rule="evenodd" clip-rule="evenodd" fill="#F48867" d="M32.965,31.572c1.012-0.137,0.798-1.543,2.145-1.333
		c-0.19,0.396-0.377,0.794-0.858,0.889c-1.163,0.276-1.068,1.856-2.574,1.777C31.726,32.066,33.097,32.597,32.965,31.572z"/>
	<path fill-rule="evenodd" clip-rule="evenodd" fill="#EFD5E2" d="M90.022,33.35c-0.756-0.401-1.328-0.994-1.716-1.777
		C89.063,31.974,89.635,32.566,90.022,33.35z"/>
	<path fill-rule="evenodd" clip-rule="evenodd" fill="#FBFBFA" d="M78.011,41.347c0.189,1.286,0.904,2.026,2.145,2.222
		c0.43,0,0.859,0,1.287,0c0,0.148,0,0.296,0,0.444c-2.729,0.161-4.016-1.172-3.861-3.999c0.145,0,0.287,0,0.43,0
		C78.011,40.459,78.011,40.903,78.011,41.347z"/>
	<path fill-rule="evenodd" clip-rule="evenodd" fill="#D65280" d="M78.011,38.237c-0.247-2.181,0.556-3.274,2.145-3.554
		c0.077,1.56-1.448,1.462-1.715,2.666C78.51,37.865,78.346,38.14,78.011,38.237z"/>
	<path fill-rule="evenodd" clip-rule="evenodd" fill="#C41C89" d="M81.442,34.683c0.715,0,1.431,0,2.146,0c0.428,0,0.857,0,1.287,0
		c0,0.148,0,0.296,0,0.444c0.639,0.523,1.211,1.115,1.715,1.778c0.144,0,0.287,0,0.43,0c0,0.444,0,0.888,0,1.332
		c0,0.593,0,1.185,0,1.778c0,0.444,0,0.888,0,1.333c-1.506-0.079-1.41,1.501-2.574,1.778c0.398-2.467-3.904-5.899-6.005-5.776
		c0.267-1.204,1.792-1.106,1.715-2.666C80.585,34.683,81.015,34.683,81.442,34.683z"/>
	<path fill-rule="evenodd" clip-rule="evenodd" fill="#EFD5E2" d="M84.875,34.683c1.24,0.196,1.955,0.937,2.145,2.222
		c-0.143,0-0.286,0-0.43,0c-0.052-1.131-0.624-1.723-1.715-1.778C84.875,34.979,84.875,34.831,84.875,34.683z"/>
	<path fill-rule="evenodd" clip-rule="evenodd" fill="#D267A2" d="M84.875,35.127c1.091,0.055,1.663,0.646,1.715,1.778
		C86.086,36.242,85.514,35.65,84.875,35.127z"/>
	<path fill-rule="evenodd" clip-rule="evenodd" fill="#F48867" d="M22.669,35.127c0.096,0.84-0.484,0.98-0.429,1.778
		c-0.143,0-0.286,0-0.429,0c0-0.148,0-0.296,0-0.445c-0.121-0.718,0.405-0.765,0.429-1.333
		C22.384,35.127,22.526,35.127,22.669,35.127z"/>
	<path fill-rule="evenodd" clip-rule="evenodd" fill="#D65280" d="M78.011,39.57c0.558,2.088,1.845,3.421,3.86,3.999
		c-0.142,0-0.285,0-0.429,0c-0.428,0-0.857,0-1.287,0c-0.64-0.818-1.354-1.559-2.145-2.222c0-0.444,0-0.888,0-1.333
		C78.011,39.867,78.011,39.719,78.011,39.57z"/>
	<path fill-rule="evenodd" clip-rule="evenodd" fill="#FFF4EE" d="M44.12,48.457c0.743-2.489,2.316-4.119,4.719-4.888
		c0,0.148,0,0.296,0,0.444c-0.854,0.449-1.833,0.768-2.145,1.778c-0.365-0.082-0.405,0.173-0.429,0.444
		c-0.975,0.323-1.283,1.337-1.716,2.222C44.406,48.457,44.263,48.457,44.12,48.457z"/>
	<path fill-rule="evenodd" clip-rule="evenodd" fill="#FDEBDE" d="M41.117,53.344c-0.112-1.449,0.509-2.139,1.716-2.222
		c-0.347,0.826-0.555,1.795-1.287,2.222C41.402,53.344,41.259,53.344,41.117,53.344z"/>
	<path fill-rule="evenodd" clip-rule="evenodd" fill="#FDEBDE" d="M42.403,69.785c-1.105-0.338-1.49-1.419-1.287-3.11
		c0.417,0.012,0.333,0.543,0.429,0.888c-0.236,0.985,0.819,0.633,0.858,1.333C42.403,69.192,42.403,69.488,42.403,69.785z"/>
	<path fill-rule="evenodd" clip-rule="evenodd" fill="#FFF4EE" d="M45.407,74.228c0.388,0.784,0.959,1.376,1.716,1.777
		c0.382,0.196,0.767,0.39,0.858,0.889c-1.617-0.694-2.762-1.88-3.432-3.556C44.931,73.536,45.316,73.729,45.407,74.228z"/>
	<path fill-rule="evenodd" clip-rule="evenodd" fill="#FFF4EE" d="M77.153,73.783c-0.519,1.982-2.073,2.89-3.861,3.555
		c0.081-0.36,0.43-0.442,0.429-0.89c1.074,0.076,1.343-0.682,1.716-1.331c0.365,0.08,0.405-0.174,0.43-0.445
		C76.429,74.515,76.54,73.89,77.153,73.783z"/>
	<path fill-rule="evenodd" clip-rule="evenodd" fill="#FFF4EE" d="M77.153,46.679c-0.898-0.552-1.613-1.292-2.146-2.222
		C75.905,45.009,76.62,45.75,77.153,46.679z"/>
	<path fill-rule="evenodd" clip-rule="evenodd" fill="#D81C55" d="M65.999,40.903c3.278,0.455,5.639,1.862,7.722,3.555
		c0.964,1.372,2.107,2.557,3.433,3.555c1.688,1.955,3.088,4.207,3.432,7.554C75.781,50.617,70.53,46.132,65.999,40.903z"/>
	<path fill-rule="evenodd" clip-rule="evenodd" fill="#E31F33" d="M73.292,53.789c2.826,2.256,4.896,5.296,7.723,7.554
		c0.229,1.718-0.767,2.168-0.43,3.998c-2.113,0.448-3.464-3.44-5.577-4.443c0.015-1.94,0.158-4.014-0.858-4.888
		c0.146-0.892-0.088-1.39-0.857-1.333C73.292,54.381,73.292,54.084,73.292,53.789z"/>
	<path fill-rule="evenodd" clip-rule="evenodd" fill="#EF3825" d="M45.835,47.124c0.082-0.36,0.431-0.442,0.429-0.888
		c0.024-0.271,0.064-0.526,0.429-0.444c0.348-0.084,0.428-0.446,0.858-0.444C47.164,46.13,46.592,46.722,45.835,47.124z"/>
	<path fill-rule="evenodd" clip-rule="evenodd" fill="#DE435B" d="M73.721,44.458c0.143,0,0.287,0,0.429,0
		c0.897,1.145,1.898,2.182,3.004,3.111c0,0.148,0,0.296,0,0.444C75.828,47.014,74.685,45.83,73.721,44.458z"/>
	<path fill-rule="evenodd" clip-rule="evenodd" fill="#EFD5E2" d="M80.155,43.569c-1.24-0.196-1.955-0.936-2.145-2.222
		C78.801,42.01,79.516,42.751,80.155,43.569z"/>
	<path fill-rule="evenodd" clip-rule="evenodd" fill="#D65280" d="M87.02,41.347c-0.271,1.646-1.325,2.478-3.432,2.222
		c0.012-0.432,0.524-0.345,0.857-0.444C85.609,42.849,85.514,41.269,87.02,41.347z"/>
	<path fill-rule="evenodd" clip-rule="evenodd" fill="#F48867" d="M46.693,45.791c0.313-1.01,1.291-1.329,2.145-1.778
		c0.131,1.025-1.24,0.494-1.287,1.333C47.121,45.345,47.041,45.707,46.693,45.791z"/>
	<path fill-rule="evenodd" clip-rule="evenodd" fill="#F9D0C1" d="M74.149,44.458c0.286,0,0.572,0,0.858,0
		c0.532,0.93,1.247,1.67,2.146,2.222c0,0.296,0,0.592,0,0.889C76.048,46.639,75.047,45.602,74.149,44.458z"/>
	<path fill-rule="evenodd" clip-rule="evenodd" fill="#F48867" d="M44.548,48.457c0.433-0.885,0.742-1.898,1.716-2.222
		c0.001,0.446-0.348,0.528-0.429,0.888C45.025,47.173,45.538,48.592,44.548,48.457z"/>
	<path fill-rule="evenodd" clip-rule="evenodd" fill="#FBFBFA" d="M71.575,52.9c-1.531-0.487-2.532-1.524-3.002-3.11
		c1.266,0.614,1.736,2.052,3.002,2.666C71.575,52.604,71.575,52.751,71.575,52.9z"/>
	<path fill-rule="evenodd" clip-rule="evenodd" fill="#FBFBFA" d="M68.573,71.562c0.152-2.063,1.461-2.93,3.002-3.555
		c0,0.148,0,0.296,0,0.444c-1.039,0.701-1.897,1.59-2.574,2.666C69.08,71.495,68.834,71.537,68.573,71.562z"/>
	<path fill-rule="evenodd" clip-rule="evenodd" fill="#FBFBFA" d="M50.125,68.007c1.241,0.196,1.956,0.937,2.145,2.221
		c-0.997-0.299-1.148-1.476-2.145-1.776C50.125,68.303,50.125,68.155,50.125,68.007z"/>
	<path fill-rule="evenodd" clip-rule="evenodd" fill="#FBFBFA" d="M52.271,50.678c-0.268,1.353-0.953,2.272-2.574,2.222
		c-0.079-0.378,0.167-0.419,0.429-0.444C51.122,52.155,51.274,50.979,52.271,50.678z"/>
	<path fill-rule="evenodd" clip-rule="evenodd" fill="#F5A790" d="M71.575,52.456c-1.266-0.614-1.736-2.052-3.002-2.666
		c0-0.148,0-0.296,0-0.444c1.421,0.157,1.86,1.331,2.573,2.222C71.229,51.927,71.577,52.01,71.575,52.456z"/>
	<path fill-rule="evenodd" clip-rule="evenodd" fill="#F5A790" d="M50.125,52.456c0.584-1.024,0.752-2.479,2.574-2.222
		c0.079,0.378-0.167,0.419-0.429,0.444C51.274,50.979,51.122,52.155,50.125,52.456z"/>
	<path fill-rule="evenodd" clip-rule="evenodd" fill="#F89921" d="M27.817,62.23c0,1.334,0,2.666,0,3.999
		c-0.992,1.639-0.15,5.177-0.429,7.554c-2.414-1.647-3.686-4.476-6.435-5.776c0-2.518,0-5.036,0-7.554
		c2.637,1.417,4.097,4.052,6.435,5.776C27.654,65.023,26.844,62.703,27.817,62.23z"/>
	<path fill-rule="evenodd" clip-rule="evenodd" fill="#F06B47" d="M71.146,51.567c0.757,0.401,1.329,0.994,1.716,1.777
		c-0.345-0.235-0.696-0.464-1.287-0.444c0-0.148,0-0.296,0-0.444C71.577,52.01,71.229,51.927,71.146,51.567z"/>
	<path fill-rule="evenodd" clip-rule="evenodd" fill="#F06B47" d="M50.125,68.896c0.756,0.401,1.329,0.994,1.716,1.777
		C51.085,70.271,50.513,69.68,50.125,68.896z"/>
	<path fill-rule="evenodd" clip-rule="evenodd" fill="#EF3825" d="M74.579,75.56c0.387-0.782,0.959-1.375,1.715-1.776
		c-0.081,0.359-0.43,0.443-0.428,0.889c-0.024,0.271-0.064,0.525-0.43,0.445C75.089,75.201,75.009,75.562,74.579,75.56z"/>
	<path fill-rule="evenodd" clip-rule="evenodd" fill="#F57F20" d="M48.41,76.448c-1.325-0.997-2.468-2.183-3.432-3.554
		C46.302,73.893,47.446,75.078,48.41,76.448z"/>
	<path fill-rule="evenodd" clip-rule="evenodd" fill="#F06B47" d="M41.545,67.563c0.618,0.249,1.047,0.693,1.287,1.333
		c-0.143,0-0.286,0-0.429,0C42.365,68.195,41.309,68.548,41.545,67.563z"/>
	<path fill-rule="evenodd" clip-rule="evenodd" fill="#F06B47" d="M71.575,68.007c0.693,0.125,0.738-0.421,1.287-0.444
		c-0.387,0.783-0.959,1.376-1.716,1.777c0.082-0.359,0.431-0.442,0.429-0.889C71.575,68.303,71.575,68.155,71.575,68.007z"/>
	<path fill-rule="evenodd" clip-rule="evenodd" fill="#F5A790" d="M50.125,68.896c0-0.148,0-0.296,0-0.444
		c0.997,0.301,1.148,1.478,2.145,1.776c0.701-0.323,1.866,0.884,0.858,0.89c-0.344-0.235-0.696-0.463-1.287-0.444
		C51.454,69.89,50.882,69.297,50.125,68.896z"/>
	<path fill-rule="evenodd" clip-rule="evenodd" fill="#F5A790" d="M69.001,71.117c0.677-1.076,1.535-1.965,2.574-2.666
		c0.002,0.446-0.347,0.529-0.429,0.889C70.833,70.35,69.855,70.668,69.001,71.117z"/>
	<path fill-rule="evenodd" clip-rule="evenodd" fill="#F48867" d="M44.548,73.338c0.054-0.796-0.525-0.937-0.429-1.776
		c0.4,0.325,0.649,0.809,0.858,1.333c0.964,1.371,2.107,2.557,3.432,3.554c0.346,0.383,1.175,0.266,1.287,0.89
		c-0.77,0.057-0.905-0.545-1.716-0.444c-0.091-0.499-0.476-0.692-0.858-0.889c-0.388-0.783-0.96-1.376-1.716-1.777
		C45.316,73.729,44.931,73.536,44.548,73.338z"/>
	<path fill-rule="evenodd" clip-rule="evenodd" fill="#F48867" d="M76.294,73.783c0.467-0.11,0.292-0.884,0.859-0.889
		c0,0.297,0,0.593,0,0.889c-0.613,0.106-0.725,0.731-1.287,0.889C75.864,74.227,76.213,74.143,76.294,73.783z"/>
	<path fill-rule="evenodd" clip-rule="evenodd" fill="#F9D0C1" d="M47.123,76.005c-0.756-0.401-1.328-0.993-1.716-1.777
		C46.163,74.629,46.735,75.222,47.123,76.005z"/>
	<path fill-rule="evenodd" clip-rule="evenodd" fill="#FFD264" d="M28.675,82.226c0.638,0.376,0.621,1.43,0.858,2.222
		C28.897,84.068,28.611,83.329,28.675,82.226z"/>
	<path fill-rule="evenodd" clip-rule="evenodd" fill="#FFD264" d="M34.682,90.668c-1.881-1.755-4.382-2.869-5.148-5.777
		c1.038,0.704,1.577,1.923,2.574,2.667c-0.295,1.194,0.887,0.858,1.287,1.332C33.521,89.797,34.555,89.761,34.682,90.668z"/>
	<path fill-rule="evenodd" clip-rule="evenodd" fill="#FFD264" d="M36.827,91.556c1.033-0.182,0.932,0.812,2.145,0.444
		c0,0.148,0,0.297,0,0.444C37.906,92.511,37.191,92.215,36.827,91.556z"/>
	<path fill-rule="evenodd" clip-rule="evenodd" fill="#FFD264" d="M34.682,98.222c-1.216-0.519-2.837-0.617-3.432-1.778
		C32.352,97.08,33.967,97.184,34.682,98.222z"/>
	<path fill-rule="evenodd" clip-rule="evenodd" fill="#FFD264" d="M30.82,96.443c-0.853-0.005-0.545-1.212-1.716-0.889
		c-0.964-1.372-2.108-2.557-3.432-3.555c0-0.147,0-0.296,0-0.444C27.419,93.153,29.195,94.721,30.82,96.443z"/>
	<path fill-rule="evenodd" clip-rule="evenodd" fill="#FFD264" d="M24.814,89.779c-1.038-0.555-1.388-1.821-1.716-3.11
		C23.978,87.387,24.18,88.807,24.814,89.779z"/>
	<path fill-rule="evenodd" clip-rule="evenodd" fill="#FFD264" d="M21.812,83.559c0.685,0.623,1.096,1.531,1.287,2.665
		c-0.143,0-0.286,0-0.429,0c0.019-0.76-0.319-1.151-0.858-1.333C21.812,84.447,21.812,84.002,21.812,83.559z"/>
	<path fill-rule="evenodd" clip-rule="evenodd" fill="#F48867" d="M74.579,75.56c0.43,0.002,0.51-0.358,0.857-0.442
		c-0.373,0.649-0.642,1.407-1.716,1.331C73.826,75.967,74.573,76.147,74.579,75.56z"/>
	<path fill-rule="evenodd" clip-rule="evenodd" fill="#F06B47" d="M72.005,77.782c-0.132-1.025,1.239-0.493,1.287-1.334
		c0.143,0,0.286,0,0.429,0c0.001,0.447-0.348,0.529-0.429,0.89C72.946,77.573,72.595,77.801,72.005,77.782z"/>
	<path fill-rule="evenodd" clip-rule="evenodd" fill="#EF3825" d="M85.304,91.556c-0.891,2.474,2.641,3.226,3.433,5.332
		c1.073-0.37,1.685-1.217,3.003-1.333c0,0.149,0,0.296,0,0.445c-1.029,0.563-1.858,1.333-3.003,1.776
		c-1.161,0.427-2.452,0.719-3.433,1.334c-0.429,0-0.858,0-1.288,0c-2.281-1.258-5.631-3.558-5.575-5.777c0.285,0,0.571,0,0.857,0
		c0.68-0.037,1.637,0.214,1.717-0.443c0.679-0.037,1.636,0.212,1.715-0.445c0.499,0.073,0.764-0.099,0.858-0.444
		C83.97,91.656,84.557,91.522,85.304,91.556z"/>
	<path fill-rule="evenodd" clip-rule="evenodd" fill="#EF3825" d="M91.311,86.669c-0.916,1.866-1.973,3.586-4.291,3.999
		c0.106-0.483,0.854-0.303,0.858-0.889c0.261-0.026,0.508-0.066,0.429-0.445c1.092-0.054,1.664-0.646,1.716-1.776
		c0.262-0.026,0.508-0.066,0.429-0.445c0.365,0.083,0.405-0.174,0.43-0.443C91.023,86.669,91.167,86.669,91.311,86.669z"/>
	<path fill-rule="evenodd" clip-rule="evenodd" fill="#F06B47" d="M91.739,86.224c0.595-0.272,0.064-1.709,0.857-1.776
		C92.717,85.46,92.494,86.117,91.739,86.224z"/>
	<path fill-rule="evenodd" clip-rule="evenodd" fill="#FDEBDE" d="M22.669,86.224c-0.528-0.194-0.881-0.568-0.858-1.333
		C22.351,85.072,22.688,85.464,22.669,86.224z"/>
	<path fill-rule="evenodd" clip-rule="evenodd" fill="#F9D0C1" d="M88.307,89.334c0.388-0.783,0.96-1.375,1.716-1.776
		C89.971,88.688,89.398,89.28,88.307,89.334z"/>
	<path fill-rule="evenodd" clip-rule="evenodd" fill="#FEE4CD" d="M34.682,90.668c-0.127-0.907-1.161-0.871-1.287-1.778
		c0.43,0,0.511,0.36,0.858,0.444c-0.072,0.601,2.182,0.888,0.858,1.334C34.967,90.668,34.824,90.668,34.682,90.668z"/>
	<path fill-rule="evenodd" clip-rule="evenodd" fill="#F48867" d="M96.029,92c0.639-1.115,1.068-2.447,2.145-3.11
		c-0.165,1.459-1.254,1.96-1.716,3.11C96.314,92,96.172,92,96.029,92z"/>
	<path fill-rule="evenodd" clip-rule="evenodd" fill="#FEE4CD" d="M25.672,92.444c0-0.147,0-0.296,0-0.444
		c1.324,0.998,2.468,2.183,3.432,3.555c-0.143,0-0.286,0-0.429,0C27.855,94.331,26.854,93.294,25.672,92.444z"/>
	<path fill-rule="evenodd" clip-rule="evenodd" fill="#F5A790" d="M96.029,92c-0.471,1.587-1.472,2.623-3.004,3.11
		C94.063,94.112,95.064,93.074,96.029,92z"/>
	<path fill-rule="evenodd" clip-rule="evenodd" fill="#F89921" d="M47.552,93.778c2.437-0.291,5.998,0.584,7.722-0.445
		c1.287,0,2.574,0,3.861,0c-0.326,1.292-3.535-0.403-3.861,0.888c2.039,1.741,3.897,3.666,5.577,5.777c-2.431,0-4.862,0-7.293,0
		C51.764,97.708,49.128,96.291,47.552,93.778z"/>
	<path fill-rule="evenodd" clip-rule="evenodd" fill="#EA4F44" d="M91.739,95.555c0.345-0.234,0.696-0.463,1.286-0.444
		c0,0.148,0,0.297,0,0.444C92.681,95.79,92.329,96.02,91.739,96C91.739,95.851,91.739,95.704,91.739,95.555z"/>
	<path fill-rule="evenodd" clip-rule="evenodd" fill="#FDEBDE" d="M43.69,20.02c1.287,0,2.574,0,3.861,0c0,0.148,0,0.296,0,0.444
		c-0.858,0-1.716,0-2.574,0c-0.429,0-0.858,0-1.287,0C43.69,20.316,43.69,20.168,43.69,20.02z"/>
	<path fill-rule="evenodd" clip-rule="evenodd" fill="#FEE4CD" d="M39.4,20.908c0.185-0.993,2.115-0.179,3.003-0.444
		c0,0.148,0,0.296,0,0.444c-0.572,0-1.144,0-1.716,0C40.258,20.908,39.83,20.908,39.4,20.908z"/>
	<path fill-rule="evenodd" clip-rule="evenodd" fill="#F48867" d="M39.4,20.908c0.429,0,0.858,0,1.287,0c0,0.148,0,0.296,0,0.444
		c-0.143,0-0.286,0-0.429,0c-0.429,0-0.858,0-1.287,0c0-0.148,0-0.296,0-0.444C39.115,20.908,39.258,20.908,39.4,20.908z"/>
	<path fill-rule="evenodd" clip-rule="evenodd" fill="#F9D0C1" d="M36.398,21.798c0.395-0.776,1.341-0.981,2.574-0.89
		c0,0.148,0,0.296,0,0.444C37.961,21.343,37.708,22.118,36.398,21.798z"/>
	<path fill-rule="evenodd" clip-rule="evenodd" fill="#EA4F44" d="M36.398,21.798c1.311,0.32,1.563-0.455,2.574-0.445
		c0.429,0,0.858,0,1.287,0c-0.751,0.704-2.286,0.595-3.432,0.889c-1.352-0.214-0.972,1.364-2.574,0.889
		c0.106-0.482,0.853-0.302,0.858-0.889C35.803,22.367,35.849,21.822,36.398,21.798z"/>
	<path fill-rule="evenodd" clip-rule="evenodd" fill="#AB3994" d="M84.016,21.798c1.573-0.148,2.384,0.493,3.434,0.888
		c0.693,0.911,2.063,1.12,3.002,1.777c0.286,0,0.572,0,0.859,0c0.111,0.625,0.939,0.507,1.286,0.889
		c1.107,1.519,2.394,2.852,3.861,3.999c0.091,0.499,0.477,0.692,0.857,0.889c0,0.297,0,0.593,0,0.889
		c0.635,0.972,0.838,2.392,1.717,3.11c0.806,0.646,0.052,2.908,0.857,3.555c0.036,0.704-0.206,1.695,0.43,1.777
		c0,0.148,0,0.296,0,0.444c0.255,0.92-0.53,2.919,0.429,3.11c0,0.888,0,1.777,0,2.666c0,0.888,0,1.777,0,2.666
		c0,0.148,0,0.296,0,0.444c-1.305-3.389-4.113-5.219-6.436-7.554c-0.143,0-0.286,0-0.428,0c-0.235-0.646,0.501-2.296-0.43-2.221
		c0-0.148,0-0.296,0-0.445c0.064-1.103-0.222-1.843-0.858-2.221c0.002-1.187-1.355-0.966-1.286-2.222
		c-1.107-1.52-2.396-2.852-3.861-3.999c-1.068,0.069-1.329-0.698-2.146-0.889c-0.365-0.659-1.079-0.955-2.145-0.888
		c-0.144,0-0.286,0-0.43,0c-0.133-0.603-1.074-0.369-1.715-0.444c-0.287,0-0.572,0-0.859,0c0-0.148,0-0.296,0-0.444
		c-2.253-2.405-4.021-5.314-7.293-6.666c0.144,0,0.286,0,0.43,0c0.857,0,1.716,0,2.574,0c0.857,0,1.715,0,2.574,0
		c0.184,0.994,2.113,0.181,3.002,0.444c0.287,0,0.573,0,0.858,0C82.434,21.956,83.375,21.722,84.016,21.798z"/>
	<path fill-rule="evenodd" clip-rule="evenodd" fill="#F5A790" d="M33.395,23.13c0.103-0.782,0.738-1.013,1.716-0.889
		c-0.005,0.587-0.752,0.406-0.858,0.889C33.967,23.13,33.68,23.13,33.395,23.13z"/>
	<path fill-rule="evenodd" clip-rule="evenodd" fill="#D267A2" d="M77.153,27.574c1,0,2.001,0,3.002,0c0,0.148,0,0.296,0,0.444
		c-1.287,0-2.574,0-3.861,0c-0.142,0-0.286,0-0.428,0c0-0.148,0-0.296,0-0.444C76.294,27.574,76.724,27.574,77.153,27.574z"/>
	<path fill-rule="evenodd" clip-rule="evenodd" fill="#F06B47" d="M38.542,28.462c-0.072-0.964,1.521-0.202,2.145-0.444
		c0,0.148,0,0.296,0,0.444C39.972,28.462,39.258,28.462,38.542,28.462z"/>
	<path fill-rule="evenodd" clip-rule="evenodd" fill="#F5A790" d="M41.117,28.018c0.429,0,0.858,0,1.287,0c0,0.148,0,0.296,0,0.444
		c-0.286,0-0.572,0-0.858,0s-0.572,0-0.858,0c0-0.148,0-0.296,0-0.444C40.831,28.018,40.974,28.018,41.117,28.018z"/>
	<path fill-rule="evenodd" clip-rule="evenodd" fill="#F2EDEF" d="M75.866,28.018c0.142,0,0.286,0,0.428,0c0,0.148,0,0.296,0,0.444
		c-2.859,0-5.72,0-8.579,0c0-0.148,0-0.296,0-0.444C70.432,28.018,73.148,28.018,75.866,28.018z"/>
	<path fill-rule="evenodd" clip-rule="evenodd" fill="#EFD5E2" d="M76.294,28.018c1.287,0,2.574,0,3.861,0c0.287,0,0.572,0,0.859,0
		c0,0.148,0,0.296,0,0.444c-1.573,0-3.146,0-4.721,0C76.294,28.314,76.294,28.166,76.294,28.018z"/>
	<path fill-rule="evenodd" clip-rule="evenodd" fill="#BA67A9" d="M81.015,28.018c0.641,0.076,1.582-0.159,1.715,0.444
		c-0.572,0-1.144,0-1.715,0C81.015,28.314,81.015,28.166,81.015,28.018z"/>
	<path fill-rule="evenodd" clip-rule="evenodd" fill="#FEE4CD" d="M40.688,28.462c0.286,0,0.572,0,0.858,0
		c-0.185,0.993-2.114,0.18-3.003,0.444c0-0.148,0-0.296,0-0.444C39.258,28.462,39.972,28.462,40.688,28.462z"/>
	<path fill-rule="evenodd" clip-rule="evenodd" fill="#F5A790" d="M22.669,34.683c-0.12-1.013,0.103-1.67,0.858-1.777
		C23.468,33.733,23.246,34.39,22.669,34.683z"/>
	<path fill-rule="evenodd" clip-rule="evenodd" fill="#FEE4CD" d="M21.812,36.905c-0.361,1.106-0.562,2.38-0.429,3.998
		c-0.417,0.013-0.333,0.544-0.429,0.889c-0.143,0-0.286,0-0.429,0c0.133-2.084-0.026-4.47,1.287-5.332
		C21.812,36.608,21.812,36.756,21.812,36.905z"/>
	<path fill-rule="evenodd" clip-rule="evenodd" fill="#F48867" d="M29.533,36.46c0.182,0.929-0.294,1.177-0.429,1.777
		c-0.143,0-0.286,0-0.429,0c-0.096-0.839,0.483-0.98,0.429-1.777C29.247,36.46,29.391,36.46,29.533,36.46z"/>
	<path fill-rule="evenodd" clip-rule="evenodd" fill="#F9D0C1" d="M56.561,40.459c0.06-1.271,1.789-0.813,3.003-0.889
		c0,0.148,0,0.296,0,0.444C58.075,39.658,57.914,40.676,56.561,40.459z"/>
	<path fill-rule="evenodd" clip-rule="evenodd" fill="#FDCCA3" d="M59.563,39.57c1.001,0,2.002,0,3.003,0c0,0.148,0,0.296,0,0.444
		c-1.001,0-2.002,0-3.003,0C59.563,39.867,59.563,39.719,59.563,39.57z"/>
	<path fill-rule="evenodd" clip-rule="evenodd" fill="#FEE4CD" d="M62.566,39.57c0.754,0.255,2.521-0.537,2.574,0.444
		c-0.429,0-0.858,0-1.287,0s-0.857,0-1.287,0C62.566,39.867,62.566,39.719,62.566,39.57z"/>
	<path fill-rule="evenodd" clip-rule="evenodd" fill="#F5A790" d="M63.854,40.015c0.429,0,0.858,0,1.287,0
		c0.365-0.082,0.404,0.173,0.43,0.444c-0.43,0-0.858,0-1.288,0c-0.144,0-0.285,0-0.429,0C63.854,40.311,63.854,40.163,63.854,40.015
		z"/>
	<path fill-rule="evenodd" clip-rule="evenodd" fill="#FDEBDE" d="M28.675,41.347c0-0.444,0-0.888,0-1.333c0-0.593,0-1.185,0-1.778
		c0.144,0,0.286,0,0.429,0C28.849,39.158,29.634,41.156,28.675,41.347z"/>
	<path fill-rule="evenodd" clip-rule="evenodd" fill="#DE435B" d="M65.57,40.459c0.364-0.082,0.403,0.173,0.429,0.444
		c-0.68-0.037-1.637,0.214-1.717-0.444C64.712,40.459,65.141,40.459,65.57,40.459z"/>
	<path fill-rule="evenodd" clip-rule="evenodd" fill="#F5A790" d="M28.247,41.792c0-0.445,0-0.889,0-1.333
		c0.024-0.271,0.064-0.526,0.429-0.444c0,0.444,0,0.888,0,1.333c0,0.148,0,0.296,0,0.445C28.533,41.792,28.389,41.792,28.247,41.792
		z"/>
	<path fill-rule="evenodd" clip-rule="evenodd" fill="#F48867" d="M55.703,40.903c-0.382,0.346-0.969,0.478-1.716,0.444
		c-0.143,0-0.286,0-0.429,0c0.363-0.66,1.381-0.643,2.145-0.888C55.703,40.607,55.703,40.755,55.703,40.903z"/>
	<path fill-rule="evenodd" clip-rule="evenodd" fill="#F26524" d="M28.247,40.459c0,0.444,0,0.888,0,1.333c0,0.148,0,0.296,0,0.444
		c-0.144,0-0.286,0-0.429,0C27.891,41.571,27.664,40.596,28.247,40.459z"/>
	<path fill-rule="evenodd" clip-rule="evenodd" fill="#F06B47" d="M53.987,41.347c-0.063,0.972-1.081,0.955-2.145,0.889
		c0.064-0.822,1.453-0.273,1.716-0.889C53.701,41.347,53.844,41.347,53.987,41.347z"/>
	<path fill-rule="evenodd" clip-rule="evenodd" fill="#F04E25" d="M51.842,42.236c-0.248,1.076-1.62,0.988-2.574,1.333
		C49.515,42.493,50.888,42.581,51.842,42.236z"/>
	<path fill-rule="evenodd" clip-rule="evenodd" fill="#F2EDEF" d="M101.177,45.791c0-1.185,0-2.37,0-3.555
		c0.974,0.473,0.163,2.793,0.43,3.999c-0.144,0-0.286,0-0.43,0C101.177,46.087,101.177,45.939,101.177,45.791z"/>
	<path fill-rule="evenodd" clip-rule="evenodd" fill="#EA4F44" d="M60.422,46.679c1.164,0.275,3.404-0.564,3.86,0.444
		c-1.858,0-3.718,0-5.576,0C58.838,46.521,59.779,46.755,60.422,46.679z"/>
	<path fill-rule="evenodd" clip-rule="evenodd" fill="#FDCCA3" d="M58.706,47.124c1.858,0,3.718,0,5.576,0c0,0.148,0,0.296,0,0.445
		c-2.002,0-4.004,0-6.006,0c0-0.148,0-0.297,0-0.445C58.42,47.124,58.563,47.124,58.706,47.124z"/>
	<path fill-rule="evenodd" clip-rule="evenodd" fill="#E31F33" d="M65.57,47.568c-0.43,0-0.858,0-1.288,0c0-0.148,0-0.297,0-0.445
		c-0.456-1.008-2.696-0.169-3.86-0.444c-1.394-1.815-2.967-3.444-4.719-4.887c0.082-0.36,0.43-0.443,0.429-0.889
		c1.659,0.238,2.094-0.792,3.861-0.444c2.033,2.632,5.021,4.278,6.863,7.109C66.428,47.568,65.999,47.568,65.57,47.568z"/>
	<path fill-rule="evenodd" clip-rule="evenodd" fill="#F06B47" d="M58.276,47.568c-0.498-0.073-0.763,0.098-0.858,0.444
		c-0.429,0-0.858,0-1.287,0c0-0.148,0-0.296,0-0.444c1.033,0.182,0.932-0.812,2.145-0.445C58.276,47.271,58.276,47.42,58.276,47.568
		z"/>
	<path fill-rule="evenodd" clip-rule="evenodd" fill="#BA67A9" d="M100.748,48.457c0-0.889,0-1.778,0-2.666c0.144,0,0.285,0,0.429,0
		c0,0.148,0,0.296,0,0.444c0,0.74,0,1.481,0,2.222C101.033,48.457,100.892,48.457,100.748,48.457z"/>
	<path fill-rule="evenodd" clip-rule="evenodd" fill="#EA4F44" d="M56.132,48.012c-0.345,0.235-0.696,0.463-1.287,0.445
		c0.187-0.547,0.548-0.913,1.287-0.889C56.132,47.716,56.132,47.864,56.132,48.012z"/>
	<path fill-rule="evenodd" clip-rule="evenodd" fill="#EA4F44" d="M66.856,47.568c0.315,0.415,0.78,0.673,1.288,0.889
		c0,0.148,0,0.296,0,0.444c-1.351,0.212-1.678-0.633-2.574-0.889c0-0.148,0-0.296,0-0.444
		C65.999,47.568,66.428,47.568,66.856,47.568z"/>
	<path fill-rule="evenodd" clip-rule="evenodd" fill="#F48867" d="M44.12,48.901c0.121,0.717-0.405,0.765-0.429,1.333
		c-0.143,0-0.286,0-0.429,0c-0.121-0.718,0.405-0.765,0.429-1.333C43.833,48.901,43.976,48.901,44.12,48.901z"/>
	<path fill-rule="evenodd" clip-rule="evenodd" fill="#DF1F44" d="M72.862,53.344c-0.387-0.783-0.959-1.375-1.716-1.777
		c-0.713-0.891-1.152-2.065-2.573-2.222c-0.365,0.082-0.405-0.173-0.429-0.444c0-0.148,0-0.296,0-0.444
		c-0.508-0.216-0.973-0.474-1.288-0.889c-1.842-2.832-4.83-4.477-6.863-7.109c1.286,0,2.573,0,3.86,0c0.144,0,0.285,0,0.429,0
		c0.08,0.658,1.037,0.407,1.717,0.444c4.531,5.229,9.782,9.714,14.586,14.663c0.035,0.704-0.207,1.695,0.43,1.777
		c0,0.148,0,0.297,0,0.444c0,1.186,0,2.37,0,3.556c-2.827-2.258-4.896-5.298-7.723-7.554C73.37,53.411,73.124,53.369,72.862,53.344z
		"/>
	<path fill-rule="evenodd" clip-rule="evenodd" fill="#F06B47" d="M73.721,56.01c-0.228-0.357-0.447-0.721-0.429-1.333
		c0.77-0.057,1.004,0.441,0.857,1.333C74.008,56.01,73.863,56.01,73.721,56.01z"/>
	<path fill-rule="evenodd" clip-rule="evenodd" fill="#DE435B" d="M81.015,56.01c0,0.445,0,0.889,0,1.333
		c-0.637-0.082-0.395-1.073-0.43-1.777C80.95,55.484,80.989,55.739,81.015,56.01z"/>
	<path fill-rule="evenodd" clip-rule="evenodd" fill="#F48867" d="M48.41,55.566c0,0.444,0,0.889,0,1.333
		c-0.365-0.082-0.405,0.173-0.429,0.444c-0.143,0-0.286,0-0.429,0c-0.055-0.797,0.525-0.937,0.429-1.777
		C48.124,55.566,48.267,55.566,48.41,55.566z"/>
	<path fill-rule="evenodd" clip-rule="evenodd" fill="#FEE4CD" d="M40.258,56.455c0,0.444,0,0.888,0,1.333s0,0.889,0,1.334
		c-0.143,0-0.286,0-0.429,0C40.076,58.339,39.311,56.51,40.258,56.455z"/>
	<path fill-rule="evenodd" clip-rule="evenodd" fill="#F48867" d="M40.688,56.01c0,0.593,0,1.186,0,1.777c-0.143,0-0.286,0-0.429,0
		c0-0.444,0-0.888,0-1.333C40.18,56.077,40.426,56.035,40.688,56.01z"/>
	<path fill-rule="evenodd" clip-rule="evenodd" fill="#F48867" d="M81.015,57.343c0-0.444,0-0.888,0-1.333
		c0.364-0.081,0.403,0.174,0.428,0.445c0,0.444,0,0.888,0,1.333c-0.143,0-0.286,0-0.428,0C81.015,57.64,81.015,57.491,81.015,57.343
		z"/>
	<path fill-rule="evenodd" clip-rule="evenodd" fill="#FEE4CD" d="M81.442,57.787c0-0.444,0-0.888,0-1.333
		c0.964,0.187,0.012,2.357,0.858,2.667c0,0.888,0,1.776,0,2.665c-0.847,0.309,0.105,2.479-0.858,2.667c0-0.445,0-0.889,0-1.334
		c0-0.444,0-0.889,0-1.333c0.703,0.073,0.703-2.738,0-2.665C81.442,58.676,81.442,58.231,81.442,57.787z"/>
	<path fill-rule="evenodd" clip-rule="evenodd" fill="#FDEBDE" d="M47.98,58.676c0-0.444,0-0.889,0-1.333
		c0.024-0.271,0.064-0.526,0.429-0.444c0,0.592,0,1.184,0,1.777C48.267,58.676,48.124,58.676,47.98,58.676z"/>
	<path fill-rule="evenodd" clip-rule="evenodd" fill="#FDEBDE" d="M74.149,57.787c0,0.296,0,0.592,0,0.889c-0.142,0-0.286,0-0.429,0
		c0-0.889,0-1.777,0-2.666c0.143,0,0.287,0,0.429,0C74.149,56.603,74.149,57.195,74.149,57.787z"/>
	<path fill-rule="evenodd" clip-rule="evenodd" fill="#F5A790" d="M47.98,58.676c0,1.186,0,2.369,0,3.555c0,0.444,0,0.889,0,1.334
		c-0.582-0.139-0.356-1.113-0.429-1.778c0-0.889,0-1.777,0-2.665c0-0.594,0-1.186,0-1.778c0.143,0,0.286,0,0.429,0
		C47.98,57.787,47.98,58.231,47.98,58.676z"/>
	<path fill-rule="evenodd" clip-rule="evenodd" fill="#FDCCA3" d="M74.149,57.787c0.712,0.767,0.712,4.565,0,5.332
		c0-0.296,0-0.592,0-0.889c0-1.186,0-2.369,0-3.555C74.149,58.379,74.149,58.083,74.149,57.787z"/>
	<path fill-rule="evenodd" clip-rule="evenodd" fill="#EA4F44" d="M74.149,63.119c0.712-0.767,0.712-4.565,0-5.332
		c0-0.592,0-1.185,0-1.777c1.017,0.874,0.873,2.947,0.858,4.888c0.035,2.554-0.529,4.488-1.716,5.777
		c-0.01-1.048,0.738-1.309,0.429-2.667C74.138,63.996,74.054,63.464,74.149,63.119z"/>
	<path fill-rule="evenodd" clip-rule="evenodd" fill="#FDEBDE" d="M73.721,64.008c0-0.593,0-1.185,0-1.777c0.143,0,0.287,0,0.429,0
		c0,0.297,0,0.593,0,0.889C74.054,63.464,74.138,63.996,73.721,64.008z"/>
	<path fill-rule="evenodd" clip-rule="evenodd" fill="#F9D0C1" d="M40.688,64.896c-1.227-0.062-0.785-1.854-0.858-3.11
		c0.143,0,0.286,0,0.429,0c-0.037,0.631-0.07,1.259,0.429,1.333C40.688,63.711,40.688,64.304,40.688,64.896z"/>
	<path fill-rule="evenodd" clip-rule="evenodd" fill="#F5A790" d="M81.442,63.119c0,0.445,0,0.889,0,1.334
		c0.079,0.376-0.166,0.418-0.428,0.443C81.05,64.193,80.807,63.202,81.442,63.119z"/>
	<path fill-rule="evenodd" clip-rule="evenodd" fill="#FDEBDE" d="M48.41,65.341c-0.583-0.138-0.356-1.112-0.429-1.776
		c0-0.445,0-0.89,0-1.334c0.143,0,0.286,0,0.429,0C48.41,63.268,48.41,64.304,48.41,65.341z"/>
	<path fill-rule="evenodd" clip-rule="evenodd" fill="#EB2227" d="M75.008,60.897c2.113,1.003,3.464,4.892,5.577,4.443
		c0,0.296,0,0.593,0,0.889c-0.503,0.072-0.361,0.811-0.43,1.333c-1.169,1.011-1.688,2.694-2.145,4.443
		c-0.19,0.395-0.377,0.795-0.857,0.889c-0.567,0.005-0.393,0.778-0.859,0.889c-0.756,0.401-1.328,0.994-1.715,1.776
		c-0.006,0.588-0.753,0.407-0.858,0.889c-0.143,0-0.286,0-0.429,0c-0.048,0.841-1.419,0.309-1.287,1.334c-0.144,0-0.286,0-0.43,0
		c-3.334,0.047-4.28-2.379-5.576-4.444c0.732,0.02,1.11-0.329,1.286-0.888c0.563-0.156,0.675-0.782,1.288-0.889
		c0.261-0.024,0.507-0.066,0.428-0.444c0.854-0.449,1.832-0.768,2.146-1.777c0.757-0.401,1.329-0.994,1.716-1.777
		c0.082-0.359,0.431-0.443,0.43-0.888C74.479,65.386,75.043,63.451,75.008,60.897z"/>
	<path fill-rule="evenodd" clip-rule="evenodd" fill="#EA4F44" d="M80.585,66.229c0-0.296,0-0.593,0-0.889
		c-0.337-1.83,0.658-2.28,0.43-3.998c0-1.186,0-2.37,0-3.556c0.142,0,0.285,0,0.428,0c0,0.444,0,0.889,0,1.334
		c0,0.888,0,1.776,0,2.665c0,0.444,0,0.889,0,1.333c-0.636,0.083-0.393,1.074-0.428,1.777c-0.036,0.704,0.205,1.694-0.43,1.778
		C80.585,66.525,80.585,66.378,80.585,66.229z"/>
	<path fill-rule="evenodd" clip-rule="evenodd" fill="#F48867" d="M49.268,67.118c-0.755-0.106-0.978-0.765-0.858-1.777
		C48.985,65.634,49.208,66.291,49.268,67.118z"/>
	<path fill-rule="evenodd" clip-rule="evenodd" fill="#F48867" d="M80.155,68.007c0-0.147,0-0.297,0-0.444
		c0.068-0.522-0.073-1.261,0.43-1.333c0,0.148,0,0.296,0,0.445C80.622,67.305,80.655,67.932,80.155,68.007z"/>
	<path fill-rule="evenodd" clip-rule="evenodd" fill="#F06B47" d="M80.155,68.007c-0.927,1.113-0.872,3.243-2.145,3.999
		c0.457-1.749,0.976-3.433,2.145-4.443C80.155,67.71,80.155,67.859,80.155,68.007z"/>
	<path fill-rule="evenodd" clip-rule="evenodd" fill="#F48867" d="M43.69,71.117c-0.989,0.136-0.476-1.283-1.287-1.332
		c0-0.297,0-0.593,0-0.89c0.143,0,0.286,0,0.429,0C43.017,69.741,43.757,70.012,43.69,71.117z"/>
	<path fill-rule="evenodd" clip-rule="evenodd" fill="#F48867" d="M54.416,72.006c0.799,0.061,1.434,0.292,1.716,0.889
		C55.153,73.02,54.519,72.787,54.416,72.006z"/>
	<path fill-rule="evenodd" clip-rule="evenodd" fill="#F48867" d="M64.712,72.895c0.429,0,0.858,0,1.287,0c0,0.147,0,0.297,0,0.443
		c-0.77-0.056-0.904,0.545-1.717,0.445c0-0.148,0-0.296,0-0.445C64.647,73.421,64.688,73.165,64.712,72.895z"/>
	<path fill-rule="evenodd" clip-rule="evenodd" fill="#EA4F44" d="M67.285,72.45c-0.176,0.559-0.554,0.907-1.286,0.888
		c0-0.146,0-0.296,0-0.443C66.344,72.659,66.695,72.431,67.285,72.45z"/>
	<path fill-rule="evenodd" clip-rule="evenodd" fill="#D65280" d="M100.748,73.338c0-2.072,0-4.146,0-6.22c0-3.11,0-6.221,0-9.331
		c0-1.185,0-2.37,0-3.554c0.144,0,0.285,0,0.429,0c0,6.369,0,12.738,0,19.105C101.033,73.338,100.892,73.338,100.748,73.338z"/>
	<path fill-rule="evenodd" clip-rule="evenodd" fill="#FDCCA3" d="M57.848,73.338c2.146,0,4.29,0,6.435,0c0,0.149,0,0.297,0,0.445
		c-0.571,0-1.145,0-1.716,0c-1.001,0-2.002,0-3.003,0C58.884,73.746,57.927,73.997,57.848,73.338z"/>
	<path fill-rule="evenodd" clip-rule="evenodd" fill="#F06B47" d="M59.563,73.783c1.001,0,2.002,0,3.003,0
		c-0.185,0.993-2.114,0.18-3.003,0.444C59.563,74.079,59.563,73.931,59.563,73.783z"/>
	<path fill-rule="evenodd" clip-rule="evenodd" fill="#F48867" d="M94.313,75.117c0,0.888,0,1.776,0,2.665c-0.143,0-0.286,0-0.428,0
		c0-1.037,0-2.073,0-3.11c0-0.297,0-0.593,0-0.889c0.142,0,0.285,0,0.428,0C94.313,74.228,94.313,74.672,94.313,75.117z"/>
	<path fill-rule="evenodd" clip-rule="evenodd" fill="#FEE4CD" d="M93.885,74.672c0,1.037,0,2.073,0,3.11c0,0.444,0,0.888,0,1.333
		c-0.145,0-0.287,0-0.43,0c0-1.481,0-2.963,0-4.443C93.598,74.672,93.74,74.672,93.885,74.672z"/>
	<path fill-rule="evenodd" clip-rule="evenodd" fill="#FDEBDE" d="M28.675,74.672c0,2.37,0,4.739,0,7.108c-0.143,0-0.286,0-0.429,0
		c0-0.889,0-1.776,0-2.665c0-1.481,0-2.963,0-4.443C28.389,74.672,28.533,74.672,28.675,74.672z"/>
	<path fill-rule="evenodd" clip-rule="evenodd" fill="#F26524" d="M54.845,80.004c-1.036-1.001-2.466-1.594-4.29-1.777
		c-0.382-0.197-0.768-0.391-0.858-0.889c-0.112-0.624-0.941-0.507-1.287-0.89c-0.964-1.37-2.108-2.556-3.432-3.554
		c-0.208-0.524-0.458-1.008-0.858-1.333c-0.365,0.082-0.405-0.174-0.429-0.444c0.066-1.105-0.674-1.376-0.858-2.222
		c-0.24-0.64-0.669-1.084-1.287-1.333c-0.096-0.345-0.012-0.876-0.429-0.888c0-0.445,0-0.89,0-1.334
		c4.417,3.425,11.087,10.731,15.015,14.663C55.703,80.004,55.273,80.004,54.845,80.004z"/>
	<path fill-rule="evenodd" clip-rule="evenodd" fill="#EF3825" d="M65.999,73.338c1.296,2.065,2.242,4.491,5.576,4.444
		c-0.714,1.037-2.329,1.142-3.431,1.776c-1.034-0.182-0.934,0.813-2.146,0.445c-4.151-0.144-5.009-3.699-7.723-5.332
		c0.069-0.521,0.782-0.375,1.287-0.444c0.889-0.265,2.818,0.549,3.003-0.444c0.571,0,1.145,0,1.716,0
		C65.095,73.883,65.229,73.282,65.999,73.338z"/>
	<path fill-rule="evenodd" clip-rule="evenodd" fill="#F48867" d="M50.555,78.227c1.824,0.184,3.254,0.776,4.29,1.777
		C53.097,79.74,51.667,79.147,50.555,78.227z"/>
	<path fill-rule="evenodd" clip-rule="evenodd" fill="#F5A790" d="M100.748,79.115c0-0.149,0-0.296,0-0.445c0-0.739,0-1.48,0-2.222
		c0.144,0,0.285,0,0.429,0c0,0.445,0,0.89,0,1.334s0,0.888,0,1.333C101.033,79.115,100.892,79.115,100.748,79.115z"/>
	<path fill-rule="evenodd" clip-rule="evenodd" fill="#FEE4CD" d="M20.953,77.338c0,1.036,0,2.073,0,3.11
		c-0.93,0.075-0.194-1.577-0.429-2.222c0-0.296,0-0.593,0-0.889C20.667,77.338,20.811,77.338,20.953,77.338z"/>
	<path fill-rule="evenodd" clip-rule="evenodd" fill="#F5A790" d="M68.145,79.559c-0.064,0.973-1.082,0.955-2.146,0.89
		c0-0.148,0-0.297,0-0.444C67.211,80.371,67.11,79.377,68.145,79.559z"/>
	<path fill-rule="evenodd" clip-rule="evenodd" fill="#F5A790" d="M93.885,80.448c-0.931-0.076-0.195,1.576-0.43,2.221
		c-0.144,0-0.286,0-0.43,0c0.051-1.279-0.234-2.909,0.43-3.554c0.143,0,0.285,0,0.43,0c0,0.296,0,0.593,0,0.889
		C93.885,80.151,93.885,80.3,93.885,80.448z"/>
	<path fill-rule="evenodd" clip-rule="evenodd" fill="#EA4F44" d="M100.319,80.448c0-0.593,0-1.186,0-1.778c0.143,0,0.285,0,0.429,0
		c0,0.149,0,0.296,0,0.445c0,0.443,0,0.889,0,1.333C100.604,80.448,100.462,80.448,100.319,80.448z"/>
	<path fill-rule="evenodd" clip-rule="evenodd" fill="#FEE4CD" d="M59.563,81.337c-1.214-0.076-2.943,0.383-3.003-0.889
		c0.715,0,1.43,0,2.146,0c0.011,0.432,0.525,0.345,0.857,0.443C59.563,81.041,59.563,81.188,59.563,81.337z"/>
	<path fill-rule="evenodd" clip-rule="evenodd" fill="#F9D0C1" d="M65.57,80.448c-0.061,1.271-1.79,0.813-3.004,0.889
		c0-0.148,0-0.296,0-0.445c0.608,0.038,1.215,0.074,1.287-0.443C64.426,80.448,64.998,80.448,65.57,80.448z"/>
	<path fill-rule="evenodd" clip-rule="evenodd" fill="#FEE4CD" d="M100.748,81.78c0-0.443,0-0.889,0-1.332c0-0.444,0-0.89,0-1.333
		c0.144,0,0.285,0,0.429,0C100.93,79.896,101.695,81.726,100.748,81.78z"/>
	<path fill-rule="evenodd" clip-rule="evenodd" fill="#F5A790" d="M100.748,80.448c0,0.443,0,0.889,0,1.332c0,0.149,0,0.296,0,0.445
		c-0.144,0-0.286,0-0.429,0c0-0.445,0-0.889,0-1.334c0-0.147,0-0.296,0-0.443C100.462,80.448,100.604,80.448,100.748,80.448z"/>
	<path fill-rule="evenodd" clip-rule="evenodd" fill="#FEE4CD" d="M21.382,81.337c0,0.593,0,1.185,0,1.777
		c-0.93,0.074-0.194-1.576-0.429-2.223c0.144,0,0.286,0,0.429,0C21.382,81.041,21.382,81.188,21.382,81.337z"/>
	<path fill-rule="evenodd" clip-rule="evenodd" fill="#F06B47" d="M93.455,82.669c0.234-0.645-0.501-2.297,0.43-2.221
		C93.649,81.094,94.386,82.745,93.455,82.669z"/>
	<path fill-rule="evenodd" clip-rule="evenodd" fill="#F48867" d="M93.455,82.669c0.019,0.761-0.318,1.151-0.858,1.333
		c-0.12-0.718,0.405-0.765,0.429-1.333C93.169,82.669,93.312,82.669,93.455,82.669z"/>
	<path fill-rule="evenodd" clip-rule="evenodd" fill="#FEE4CD" d="M100.748,82.226c0.088,1.276-0.108,2.257-0.858,2.665
		c-0.309-1.357,0.438-1.618,0.43-2.665C100.462,82.226,100.604,82.226,100.748,82.226z"/>
	<path fill-rule="evenodd" clip-rule="evenodd" fill="#EA4F44" d="M99.461,85.336c0-0.296,0-0.593,0-0.889
		c0.284-1.188,0.18-2.776,0.858-3.556c0,0.445,0,0.889,0,1.334c0.009,1.047-0.738,1.308-0.43,2.665
		C99.969,85.27,99.723,85.311,99.461,85.336z"/>
	<path fill-rule="evenodd" clip-rule="evenodd" fill="#F5A790" d="M98.603,88.001c0.393-0.777,0.147-2.217,0.858-2.665
		c0.057,1.095,0.064,2.14-0.429,2.665C98.889,88.001,98.746,88.001,98.603,88.001z"/>
	<path fill-rule="evenodd" clip-rule="evenodd" fill="#F9D0C1" d="M80.155,92.444c0.32-1.001,2.407-0.174,3.433-0.444
		c-0.095,0.346-0.359,0.518-0.858,0.444C81.871,92.444,81.015,92.444,80.155,92.444z"/>
	<path fill-rule="evenodd" clip-rule="evenodd" fill="#FEE4CD" d="M75.866,92.444c1.287,0,2.574,0,3.86,0c0,0.149,0,0.296,0,0.445
		c-0.144,0-0.285,0-0.429,0c-0.572,0-1.145,0-1.717,0s-1.144,0-1.715,0C75.866,92.74,75.866,92.594,75.866,92.444z"/>
	<path fill-rule="evenodd" clip-rule="evenodd" fill="#F48867" d="M80.155,92.444c0.859,0,1.716,0,2.574,0
		c-0.079,0.657-1.036,0.408-1.715,0.445c-0.43,0-0.859,0-1.288,0c0-0.149,0-0.296,0-0.445C79.87,92.444,80.013,92.444,80.155,92.444
		z"/>
	<path fill-rule="evenodd" clip-rule="evenodd" fill="#F26524" d="M79.727,92.89c0.429,0,0.858,0,1.288,0
		c-0.08,0.657-1.037,0.406-1.717,0.443c0-0.147,0-0.296,0-0.443C79.441,92.89,79.583,92.89,79.727,92.89z"/>
	<path fill-rule="evenodd" clip-rule="evenodd" fill="#F5A790" d="M85.304,99.11c0.98-0.615,2.271-0.907,3.433-1.334
		C88.25,98.901,86.834,99.065,85.304,99.11z"/>
	<path fill-rule="evenodd" clip-rule="evenodd" fill="#FDD022" d="M38.113,99.11c-1.572,0.146-2.384-0.495-3.432-0.889
		c-0.714-1.038-2.33-1.142-3.432-1.778c-0.144,0-0.286,0-0.429,0c-1.625-1.723-3.401-3.29-5.148-4.888
		c-0.005-0.883-1.17-0.564-0.858-1.776c-0.634-0.973-0.836-2.393-1.716-3.11c0-0.148,0-0.296,0-0.445
		c-0.191-1.134-0.602-2.042-1.287-2.665c0-0.148,0-0.297,0-0.444c-0.036-0.704,0.207-1.695-0.429-1.777c0-0.148,0-0.296,0-0.445
		c-0.261-1.062,0.538-3.223-0.429-3.554c0-0.593,0-1.186,0-1.778c0-0.296,0-0.592,0-0.888c1.669,2.608,5.615,7.458,7.293,7.108
		c0.143,0,0.286,0,0.429,0c0,0.149,0,0.296,0,0.445c-0.064,1.104,0.222,1.843,0.858,2.222c0,0.147,0,0.296,0,0.443
		c0.767,2.908,3.267,4.022,5.148,5.777c0.143,0,0.286,0,0.429,0c0.104,0.781,0.738,1.013,1.716,0.888
		c0.364,0.659,1.08,0.955,2.145,0.889c0.143,0,0.286,0,0.429,0c0,0.149,0,0.296,0,0.445c-0.143,0-0.286,0-0.429,0
		c0.993,2.233,4.717,5.477,7.722,7.108c-0.286,0-0.572,0-0.858,0c-0.572,0-1.144,0-1.716,0c-0.457-1.009-2.697-0.169-3.861-0.445
		c-0.143,0-0.286,0-0.429,0C39.697,98.95,38.755,99.186,38.113,99.11z"/>
	<path fill-rule="evenodd" clip-rule="evenodd" fill="#F04E25" d="M83.159,99.553c-0.858,0-1.717,0-2.574,0
		c-0.715,0-1.431,0-2.145,0c-4.553-0.023-5.396-3.889-8.151-5.774c0.715,0,1.43,0,2.145,0c0.889-0.266,2.818,0.548,3.003-0.445
		c0.716,0,1.431,0,2.145,0c0.287,0,0.572,0,0.859,0c-0.056,2.22,3.294,4.52,5.575,5.777C84.005,99.542,83.492,99.455,83.159,99.553z
		"/>
	<path fill-rule="evenodd" clip-rule="evenodd" fill="#FEE4CD" d="M38.113,99.553c0.572,0,1.145,0,1.716,0c0.143,0,0.286,0,0.429,0
		c0,0.149,0,0.297,0,0.445C39.635,99.755,38.041,100.518,38.113,99.553z"/>
	<path fill-rule="evenodd" clip-rule="evenodd" fill="#F5A790" d="M80.585,99.553c0.857,0,1.716,0,2.574,0c0,0.149,0,0.297,0,0.445
		c-0.144,0-0.286,0-0.43,0c-0.714,0-1.43,0-2.145,0C80.585,99.85,80.585,99.702,80.585,99.553z"/>
	<path fill-rule="evenodd" clip-rule="evenodd" fill="#FEE4CD" d="M85.304,99.11c-0.063,0.97-1.08,0.953-2.145,0.888
		c0-0.148,0-0.296,0-0.445c0.333-0.098,0.846-0.011,0.856-0.442C84.445,99.11,84.875,99.11,85.304,99.11z"/>
	<path fill-rule="evenodd" clip-rule="evenodd" fill="#F5A790" d="M78.44,99.998c0.428,0,0.857,0,1.286,0c0,0.147,0,0.297,0,0.444
		c-0.429,0-0.858,0-1.286,0c-0.715,0-1.432,0-2.146,0c0-0.147,0-0.297,0-0.444C77.009,99.998,77.726,99.998,78.44,99.998z"/>
	<path fill-rule="evenodd" clip-rule="evenodd" fill="#FEE4CD" d="M80.585,99.998c0.715,0,1.431,0,2.145,0
		c-0.185,0.993-2.113,0.18-3.003,0.444c0-0.147,0-0.297,0-0.444C80.013,99.998,80.299,99.998,80.585,99.998z"/>
	<path fill-rule="evenodd" clip-rule="evenodd" fill="#F2EDEF" d="M75.437,20.02c1.287,0,2.574,0,3.861,0c0,0.148,0,0.296,0,0.444
		c-1.145,0-2.289,0-3.432,0c-0.144,0-0.286,0-0.43,0C75.437,20.316,75.437,20.168,75.437,20.02z"/>
	<path fill-rule="evenodd" clip-rule="evenodd" fill="#F2EDEF" d="M93.885,45.791c0,2.666,0,5.332,0,7.998c-0.145,0-0.287,0-0.43,0
		c0-2.814,0-5.628,0-8.442c0.143,0,0.285,0,0.43,0C93.885,45.495,93.885,45.643,93.885,45.791z"/>
	<path fill-rule="evenodd" clip-rule="evenodd" fill="#FFF4EE" d="M58.276,47.568c2.002,0,4.004,0,6.006,0c0.43,0,0.858,0,1.288,0
		c0,0.148,0,0.296,0,0.444c-2.718,0-5.435,0-8.152,0C57.513,47.666,57.778,47.496,58.276,47.568z"/>
	<path fill-rule="evenodd" clip-rule="evenodd" fill="#FBFBFA" d="M47.98,62.23c0-1.186,0-2.369,0-3.555c0.143,0,0.286,0,0.429,0
		c0,1.186,0,2.369,0,3.555C48.267,62.23,48.124,62.23,47.98,62.23z"/>
	<path fill-rule="evenodd" clip-rule="evenodd" fill="#FBFBFA" d="M74.149,58.676c0,1.186,0,2.369,0,3.555c-0.142,0-0.286,0-0.429,0
		c0-1.186,0-2.369,0-3.555C73.863,58.676,74.008,58.676,74.149,58.676z"/>
	<path fill-rule="evenodd" clip-rule="evenodd" fill="#FFF4EE" d="M56.132,72.895c2.86,0,5.72,0,8.58,0
		c-0.024,0.271-0.064,0.526-0.43,0.443c-2.145,0-4.289,0-6.435,0C57.206,73.263,56.264,73.498,56.132,72.895z"/>
	<path fill-rule="evenodd" clip-rule="evenodd" fill="#FFF4EE" d="M38.972,92c1.025,0.271,3.112-0.557,3.432,0.444
		c-1.001,0-2.001,0-3.003,0c-0.143,0-0.286,0-0.429,0C38.972,92.297,38.972,92.148,38.972,92z"/>
	<path fill-rule="evenodd" clip-rule="evenodd" fill="#FDEBDE" d="M101.606,73.783c-0.267,1.206,0.544,3.526-0.43,3.999
		c0-0.444,0-0.889,0-1.334c0-0.889,0-1.776,0-2.665C101.32,73.783,101.463,73.783,101.606,73.783z"/>
	<path fill-rule="evenodd" clip-rule="evenodd" fill="#FDEBDE" d="M42.403,92.444c1.43,0,2.86,0,4.29,0c0,0.149,0,0.296,0,0.445
		c-1.43,0-2.86,0-4.29,0c-1.001,0-2.001,0-3.003,0c0-0.149,0-0.296,0-0.445C40.402,92.444,41.402,92.444,42.403,92.444z"/>
	<path fill-rule="evenodd" clip-rule="evenodd" fill="#FEE4CD" d="M40.688,99.998c1.144,0,2.288,0,3.432,0c0,0.147,0,0.297,0,0.444
		c-0.286,0-0.572,0-0.858,0C42.507,100.187,40.741,100.979,40.688,99.998z"/>
	<path fill-rule="evenodd" clip-rule="evenodd" fill="#FEE4CD" d="M43.69,28.018c0.858,0,1.716,0,2.574,0c0,0.148,0,0.296,0,0.444
		c-1.287,0-2.574,0-3.861,0c0-0.148,0-0.296,0-0.444C42.833,28.018,43.262,28.018,43.69,28.018z"/>
	<path fill-rule="evenodd" clip-rule="evenodd" fill="#FEE4CD" d="M28.675,41.792c0,1.333,0,2.666,0,3.999c-0.143,0-0.286,0-0.429,0
		c0-0.593,0-1.185,0-1.778c0-0.592,0-1.185,0-1.777c0-0.148,0-0.296,0-0.444C28.389,41.792,28.533,41.792,28.675,41.792z"/>
	<path fill-rule="evenodd" clip-rule="evenodd" fill="#EFD5E2" d="M93.455,45.347c0-2.074,0-4.147,0-6.221
		c0.931-0.075,0.194,1.576,0.43,2.221c0,1.333,0,2.666,0,4C93.74,45.347,93.598,45.347,93.455,45.347z"/>
	<path fill-rule="evenodd" clip-rule="evenodd" fill="#D267A2" d="M94.313,41.347c0,1.037,0,2.074,0,3.11c0,0.445,0,0.889,0,1.333
		c-0.143,0-0.286,0-0.428,0c0-0.148,0-0.296,0-0.444c0-1.333,0-2.666,0-4C94.026,41.347,94.17,41.347,94.313,41.347z"/>
	<path fill-rule="evenodd" clip-rule="evenodd" fill="#F5A790" d="M42.403,20.464c0.429,0,0.858,0,1.287,0c0.429,0,0.858,0,1.287,0
		c0,0.148,0,0.296,0,0.444c-0.715,0-1.43,0-2.145,0c-0.143,0-0.286,0-0.429,0C42.403,20.76,42.403,20.612,42.403,20.464z"/>
	<path fill-rule="evenodd" clip-rule="evenodd" fill="#F5A790" d="M20.524,43.125c0-0.444,0-0.889,0-1.333c0.143,0,0.286,0,0.429,0
		c0,0.444,0,0.889,0,1.333c0,0.74,0,1.481,0,2.222c-0.143,0-0.286,0-0.429,0C20.524,44.606,20.524,43.865,20.524,43.125z"/>
	<path fill-rule="evenodd" clip-rule="evenodd" fill="#F5A790" d="M81.442,59.121c0.703-0.073,0.703,2.738,0,2.665
		C81.442,60.897,81.442,60.009,81.442,59.121z"/>
	<path fill-rule="evenodd" clip-rule="evenodd" fill="#D65280" d="M47.98,20.464c6.435,0,12.87,0,19.305,0c0,0.148,0,0.296,0,0.444
		c-1.144,0-2.287,0-3.432,0c-3.146,0-6.292,0-9.438,0c-2.145,0-4.29,0-6.435,0C47.98,20.76,47.98,20.612,47.98,20.464z"/>
	<path fill-rule="evenodd" clip-rule="evenodd" fill="#F04E25" d="M21.382,40.903c-0.132-1.618,0.068-2.892,0.429-3.998
		c0.143,0,0.286,0,0.429,0c0.507,3.239,3.67,5.889,5.577,6.22c0,0.296,0,0.592,0,0.888c0,0.741,0,1.481,0,2.222
		c-0.959,0.191-0.174,2.189-0.429,3.11c0,0.592,0,1.185,0,1.777c-1.906-2.765-5.923-3.344-6.006-7.998
		C21.382,42.384,21.382,41.644,21.382,40.903z"/>
	<path fill-rule="evenodd" clip-rule="evenodd" fill="#F04E25" d="M40.688,57.787c0-0.592,0-1.185,0-1.777
		c-0.037-0.63-0.071-1.258,0.429-1.333c-0.206,5.1,4.067,5.562,6.006,8.442c0-0.444,0-0.889,0-1.333c0.143,0,0.286,0,0.429,0
		c0.073,0.665-0.153,1.64,0.429,1.778c0.073,0.664-0.153,1.639,0.429,1.776c-0.12,1.013,0.103,1.671,0.858,1.777
		c0.19,0.396,0.377,0.794,0.858,0.889c0,0.148,0,0.296,0,0.444s0,0.296,0,0.444c0.388,0.784,0.959,1.376,1.716,1.777
		c0.59-0.019,0.942,0.209,1.287,0.444c0.315,0.415,0.78,0.673,1.287,0.889c0.104,0.781,0.738,1.014,1.716,0.889
		c0.132,0.604,1.074,0.368,1.716,0.443c0.079,0.659,1.036,0.408,1.716,0.445c0,0.147,0,0.296,0,0.444
		c-0.505,0.069-1.218-0.076-1.287,0.444c2.714,1.633,3.571,5.188,7.723,5.332c0,0.147,0,0.296,0,0.444c-0.144,0-0.287,0-0.429,0
		c-0.572,0-1.145,0-1.717,0c-1.716,0-3.432,0-5.147,0c-0.716,0-1.431,0-2.146,0c-0.365,0.081-0.405-0.173-0.429-0.444
		c-3.928-3.932-10.599-11.238-15.015-14.663c-0.365,0.082-0.405-0.173-0.429-0.444c0-0.593,0-1.186,0-1.777
		C40.688,61.343,40.688,59.564,40.688,57.787z"/>
	<path fill-rule="evenodd" clip-rule="evenodd" fill="#F48867" d="M43.69,27.574c0.858,0,1.716,0,2.574,0c0.429,0,0.858,0,1.287,0
		c0,0.148,0,0.296,0,0.444c-0.429,0-0.858,0-1.287,0c-0.858,0-1.716,0-2.574,0C43.69,27.87,43.69,27.722,43.69,27.574z"/>
	<path fill-rule="evenodd" clip-rule="evenodd" fill="#EF3825" d="M43.69,50.234c0.215,3.037,2.343,4.09,4.29,5.332
		c0.096,0.84-0.483,0.98-0.429,1.777c0,0.593,0,1.185,0,1.778c-0.948,0.055-0.182,1.884-0.429,2.665c0,0.444,0,0.889,0,1.333
		c-1.938-2.88-6.212-3.342-6.006-8.442c0-0.444,0-0.889,0-1.333c0.143,0,0.286,0,0.429,0c0.732-0.426,0.94-1.396,1.287-2.222
		c0.082-0.359,0.43-0.443,0.429-0.889C43.405,50.234,43.548,50.234,43.69,50.234z"/>
	<path fill-rule="evenodd" clip-rule="evenodd" fill="#EA4F44" d="M40.688,20.908c0.572,0,1.144,0,1.716,0c0.143,0,0.286,0,0.429,0
		c0,0.148,0,0.296,0,0.444c-0.715,0-1.43,0-2.145,0C40.688,21.205,40.688,21.057,40.688,20.908z"/>
	<path fill-rule="evenodd" clip-rule="evenodd" fill="#EA4F44" d="M56.561,40.459c1.354,0.217,1.515-0.801,3.003-0.444
		c1.001,0,2.002,0,3.003,0c0.43,0,0.858,0,1.287,0c0,0.148,0,0.296,0,0.444c-1.287,0-2.574,0-3.86,0
		c-1.768-0.349-2.202,0.682-3.861,0.444c-0.144,0-0.286,0-0.429,0c0-0.148,0-0.296,0-0.444
		C55.988,40.459,56.275,40.459,56.561,40.459z"/>
	<path fill-rule="evenodd" clip-rule="evenodd" fill="#EB2227" d="M34.252,23.13c1.603,0.475,1.223-1.103,2.574-0.889
		c0.757,2.474,3.178,3.225,4.29,5.332c0,0.148,0,0.296,0,0.444c-0.143,0-0.286,0-0.429,0c-0.624,0.243-2.217-0.52-2.145,0.444
		c0,0.148,0,0.296,0,0.444c-1.636-0.066-2.066,1.119-3.432,1.333c-1.347-0.21-1.133,1.196-2.145,1.333
		c-1.167,0.716-2.695,1.06-2.574,3.11c-0.595,0.273-0.065,1.71-0.858,1.777c-0.143,0-0.286,0-0.429,0
		c-1.753,0.489-3.325-2.673-4.719-3.999c0.635-0.083,0.394-1.073,0.429-1.777c0.143,0,0.286,0,0.429,0
		c0.224-0.658,0.635-1.12,0.858-1.778c0.964-1.074,1.965-2.112,3.003-3.11c1.276-1.049,3.228-1.396,4.29-2.666
		C33.68,23.13,33.967,23.13,34.252,23.13z"/>
	<path fill-rule="evenodd" clip-rule="evenodd" fill="#EB2227" d="M53.987,41.347c0.747,0.033,1.334-0.099,1.716-0.444
		c0.143,0,0.286,0,0.429,0c0.001,0.446-0.348,0.529-0.429,0.889c1.752,1.443,3.326,3.072,4.719,4.887
		c-0.643,0.076-1.584-0.159-1.716,0.444c-0.144,0-0.286,0-0.43,0c-1.212-0.367-1.111,0.626-2.145,0.445
		c-0.739-0.024-1.1,0.342-1.287,0.889c-0.34,0.98-2.017,0.577-2.145,1.777c-1.822-0.258-1.99,1.197-2.574,2.222
		c-0.262,0.025-0.508,0.066-0.429,0.444c-0.43,0.592-0.708,1.341-1.287,1.777c0,0.296,0,0.592,0,0.889c-0.143,0-0.286,0-0.429,0
		c-1.947-1.242-4.075-2.295-4.29-5.332c0.024-0.568,0.55-0.615,0.429-1.333c0-0.148,0-0.296,0-0.444c0.143,0,0.286,0,0.429,0
		c0.989,0.135,0.477-1.284,1.287-1.333c0.756-0.401,1.329-0.994,1.716-1.777c0.047-0.84,1.418-0.309,1.287-1.333
		c0-0.148,0-0.296,0-0.444c0.143,0,0.286,0,0.429,0c0.954-0.345,2.326-0.256,2.574-1.333C52.906,42.302,53.923,42.319,53.987,41.347
		z"/>
	<path fill-rule="evenodd" clip-rule="evenodd" fill="#EB2227" d="M94.313,80.004c2.034,1.152,2.76,3.659,5.148,4.443
		c0,0.296,0,0.593,0,0.889c-0.711,0.448-0.466,1.888-0.858,2.665c-0.096,0.345-0.012,0.877-0.429,0.889
		c-1.076,0.663-1.506,1.995-2.145,3.11c-0.965,1.074-1.966,2.112-3.004,3.11c-0.59-0.019-0.941,0.21-1.286,0.444
		c-1.318,0.116-1.93,0.963-3.003,1.333c-0.792-2.106-4.323-2.858-3.433-5.332c0.064-0.821,1.452-0.273,1.716-0.888
		c2.318-0.413,3.375-2.133,4.291-3.999c0.024-0.271,0.063-0.526,0.429-0.445c0.755-0.106,0.978-0.764,0.857-1.776
		c0-0.148,0-0.296,0-0.445c0.54-0.182,0.877-0.572,0.858-1.333c0.931,0.076,0.194-1.575,0.43-2.221c0-0.148,0-0.297,0-0.444
		C94.026,80.004,94.17,80.004,94.313,80.004z"/>
	<path fill-rule="evenodd" clip-rule="evenodd" fill="#F06B47" d="M47.552,59.121c0,0.888,0,1.776,0,2.665c-0.143,0-0.286,0-0.429,0
		C47.37,61.005,46.604,59.176,47.552,59.121z"/>
	<path fill-rule="evenodd" clip-rule="evenodd" fill="#E31F33" d="M36.827,22.242c1.146-0.294,2.68-0.186,3.432-0.889
		c0.144,0,0.286,0,0.429,0c1.749,2.039,4.089,3.467,5.577,5.776c0,0.148,0,0.297,0,0.445c-0.858,0-1.716,0-2.574,0s-1.716,0-2.574,0
		C40.004,25.467,37.584,24.716,36.827,22.242z"/>
	<path fill-rule="evenodd" clip-rule="evenodd" fill="#E31F33" d="M94.741,75.117c2.114,1.513,3.465,3.817,5.578,5.331
		c0,0.147,0,0.296,0,0.443c-0.679,0.779-0.574,2.368-0.858,3.556c-2.389-0.784-3.114-3.291-5.148-4.443c0-0.741,0-1.48,0-2.222
		c0-0.889,0-1.777,0-2.665C94.456,75.117,94.599,75.117,94.741,75.117z"/>
</g>
</svg>
