<?xml version="1.0" encoding="utf-8"?>
<!-- Generator: Adobe Illustrator 13.0.0, SVG Export Plug-In . SVG Version: 6.00 Build 14948)  -->
<!DOCTYPE svg PUBLIC "-//W3C//DTD SVG 1.1//EN" "http://www.w3.org/Graphics/SVG/1.1/DTD/svg11.dtd">
<svg version="1.1" id="Layer_1" xmlns="http://www.w3.org/2000/svg" xmlns:xlink="http://www.w3.org/1999/xlink" x="0px" y="0px"
	 width="31.998px" height="32px" viewBox="-1.5 -1.5 31.998 32" enable-background="new -1.5 -1.5 31.998 32" xml:space="preserve">
<path id="Hamburguesa" fill="#FFFFFF" stroke="#887733" d="M29.499,26.833c0,0.59-0.012,1.667-2,1.667c-5.771,0-17.537,0-24,0
	c-1.988,0-2-1.077-2-1.667c0-0.749,0-2.667,0-3.666c0-0.59,0.155-1.667,2-1.667c6.002,0,18.004,0,24,0c2.061,0,2,1.077,2,1.667
	C29.499,24.25,29.499,25.916,29.499,26.833z M29.499,16.68c0,0.379-0.012,1.472-2,1.472c-5.653,0-16.618,0-24,0
	c-1.917,0-2-1.093-2-1.472c0-0.695,0-1.662,0-2.357c0-0.378,0.155-1.471,2-1.471c5.77,0,17.886,0,24,0c2.061,0,2,1.094,2,1.471
	C29.499,15.179,29.499,15.93,29.499,16.68z M29.499,7.833c0,0.589-0.083,1.667-2,1.667c-5.65,0-16.617,0-24,0
	c-1.917,0-2-1.078-2-1.667c0-1.083,0-2.583,0-3.666c0.002-0.589,0.012-1.667,2-1.667c5.77,0,17.886,0,24,0c1.988,0,2,1.078,2,1.667
	C29.498,5.5,29.499,6.667,29.499,7.833z"/>
</svg>
