<?xml version="1.0" encoding="utf-8"?>
<!-- Generator: Adobe Illustrator 13.0.0, SVG Export Plug-In . SVG Version: 6.00 Build 14948)  -->
<!DOCTYPE svg PUBLIC "-//W3C//DTD SVG 1.1//EN" "http://www.w3.org/Graphics/SVG/1.1/DTD/svg11.dtd">
<svg version="1.1" id="Material" xmlns="http://www.w3.org/2000/svg" xmlns:xlink="http://www.w3.org/1999/xlink" x="0px" y="0px"
	 width="31.998px" height="32px" viewBox="-1.5 -1.5 31.998 32" enable-background="new -1.5 -1.5 31.998 32" xml:space="preserve">
<g>
	<g>
		<path fill="#FFFFFF" d="M29.705,5.349c0,2.76-4.462,4.999-9.979,4.999c-5.507,0-9.969-2.239-9.969-4.999
			c0-2.761,4.462-4.999,9.969-4.999C25.243,0.35,29.705,2.588,29.705,5.349z"/>
		<path fill="#303030" d="M9.571,5.349c0.012-2.862,4.583-5.124,10.155-5.124l0,0c5.58,0,10.148,2.261,10.164,5.124l0,0
			c-0.016,2.86-4.584,5.124-10.164,5.124l0,0C14.154,10.472,9.583,8.209,9.571,5.349L9.571,5.349z M9.941,5.349
			c0.009,2.659,4.339,4.868,9.785,4.873l0,0c5.451-0.004,9.784-2.214,9.793-4.873l0,0c-0.009-2.661-4.342-4.87-9.793-4.874l0,0
			C14.281,0.479,9.951,2.688,9.941,5.349L9.941,5.349z"/>
	</g>
	<g>
		<path fill="#FFFFFF" d="M23.422,19.766c-0.362,1.034-3.964,1.807-8.026,1.721l0,0c-4.064-0.086-7.061-0.99-6.695-2.022
			l2.564-7.228c0.369-1.034,3.961-1.803,8.026-1.718l0,0c4.063,0.083,7.062,0.989,6.698,2.023L23.422,19.766z"/>
		<path fill="#303030" d="M15.389,21.609c-3.858-0.103-6.826-0.85-6.904-1.979l0,0c0-0.064,0.012-0.136,0.036-0.199l0,0l2.563-7.228
			c0.458-1.116,3.753-1.804,7.592-1.82l0,0c0.2,0,0.409,0,0.619,0.006l0,0c3.858,0.099,6.827,0.846,6.906,1.979l0,0
			c0,0.066-0.015,0.13-0.035,0.2l0,0l-2.565,7.226h-0.002c-0.457,1.116-3.76,1.803-7.594,1.82l0,0
			C15.799,21.615,15.593,21.611,15.389,21.609L15.389,21.609z M11.442,12.263l-2.563,7.233c-0.019,0.041-0.024,0.087-0.024,0.136
			l0,0c-0.03,0.789,2.725,1.666,6.542,1.729l0,0c0.206,0.002,0.409,0.004,0.609,0.004l0,0c3.775,0.019,6.998-0.784,7.236-1.631l0,0
			l2.563-7.219c0.019-0.053,0.026-0.101,0.023-0.146l0,0c0.029-0.792-2.725-1.669-6.547-1.727l0,0
			c-0.206-0.006-0.406-0.008-0.606-0.008l0,0c-0.043,0-0.086,0-0.129,0l0,0C14.826,10.634,11.683,11.428,11.442,12.263
			L11.442,12.263z"/>
	</g>
	<g>
		<path fill="#FFFFFF" d="M15.18,30.005c-0.184,0.987-1.983,1.722-4.016,1.64l0,0c-2.032-0.078-3.528-0.944-3.347-1.93l1.281-6.893
			c0.184-0.987,1.979-1.721,4.015-1.639l0,0c2.032,0.08,3.529,0.943,3.348,1.93L15.18,30.005z"/>
		<path fill="#303030" d="M11.153,31.768c-1.978-0.076-3.526-0.879-3.536-1.893l0,0c0-0.059,0.003-0.118,0.018-0.178l0,0
			l1.282-6.893c0.203-1.029,1.921-1.753,3.883-1.755l0,0c0.105,0,0.211,0,0.324,0.009l0,0c1.976,0.077,3.521,0.875,3.534,1.891l0,0
			c0,0.058-0.007,0.115-0.015,0.18l0,0l-1.282,6.893c-0.207,1.027-1.929,1.75-3.886,1.752l0,0
			C11.363,31.773,11.257,31.77,11.153,31.768L11.153,31.768z M9.281,22.839L8,29.734c-0.012,0.043-0.016,0.089-0.016,0.141l0,0
			c-0.011,0.816,1.327,1.57,3.188,1.645l0,0c0.101,0.002,0.203,0.006,0.304,0.006l0,0c1.839,0,3.375-0.694,3.522-1.536l0,0
			l1.278-6.886c0.009-0.057,0.015-0.107,0.015-0.153l0,0c0.01-0.817-1.326-1.567-3.194-1.642l0,0
			c-0.1-0.007-0.197-0.009-0.296-0.009l0,0C10.953,21.3,9.424,21.992,9.281,22.839L9.281,22.839z"/>
	</g>
	<g>
		<path fill="#FFFFFF" d="M18.858,30.005c0.182,0.987,1.985,1.722,4.014,1.64l0,0c2.031-0.078,3.527-0.944,3.348-1.93l-1.281-6.893
			c-0.188-0.987-1.979-1.721-4.01-1.639l0,0c-2.035,0.08-3.529,0.943-3.354,1.93L18.858,30.005z"/>
		<path fill="#303030" d="M18.673,30.02h0.003l-1.282-6.889c-0.017-0.063-0.02-0.124-0.02-0.177l0,0
			c0.014-1.017,1.557-1.817,3.54-1.896l0,0c0.108-0.009,0.215-0.009,0.321-0.009l0,0c1.959,0.002,3.676,0.726,3.883,1.755l0,0
			l1.283,6.896c0.007,0.056,0.013,0.113,0.013,0.174l0,0c-0.013,1.014-1.556,1.816-3.536,1.893l0,0
			c-0.107,0.002-0.212,0.006-0.32,0.006l0,0C20.601,31.771,18.876,31.049,18.673,30.02L18.673,30.02z M22.558,31.523
			c0.096,0,0.196-0.004,0.303-0.006l0,0c1.859-0.072,3.199-0.826,3.188-1.644l0,0c0-0.048-0.006-0.101-0.012-0.146l0,0l-1.281-6.892
			c-0.146-0.847-1.68-1.539-3.52-1.539l0,0c-0.101,0-0.199,0.002-0.297,0.009l0,0c-1.871,0.073-3.209,0.825-3.197,1.646l0,0
			c0.005,0.047,0.005,0.093,0.017,0.142l0,0l1.283,6.893l-0.181,0.017l0.181-0.017C19.181,30.83,20.72,31.523,22.558,31.523
			L22.558,31.523z"/>
	</g>
	<g>
		<path fill="#FFFFFF" d="M6.503,19.07c-0.858,0.865-1.324,1.416-3.257,1.229l0,0c-1.93-0.188-1.071-1.042-0.214-1.906l4.271-6.058
			c0.862-0.867,3.123-1.416,5.057-1.229l0,0c1.931,0.188,2.801,1.041,1.946,1.908L6.503,19.07z"/>
		<path fill="#303030" d="M3.937,20.459c-0.219,0-0.455-0.014-0.716-0.037l0,0c-0.885-0.074-1.333-0.344-1.325-0.712l0,0
			c0.009-0.435,0.51-0.903,0.97-1.371l0,0l4.284-6.074c0.806-0.802,2.65-1.316,4.428-1.321l0,0c0.271,0,0.54,0.013,0.808,0.039l0,0
			c1.466,0.14,2.422,0.673,2.428,1.366l0,0c0.003,0.24-0.121,0.489-0.37,0.747l0,0l-7.79,6.044c-0.72,0.735-1.251,1.318-2.694,1.318
			l0,0C3.952,20.459,3.944,20.459,3.937,20.459L3.937,20.459z M7.468,12.39l-4.283,6.072c-0.482,0.476-0.931,0.956-0.922,1.248l0,0
			c0.009,0.21,0.172,0.371,1.007,0.465l0,0c0.248,0.021,0.47,0.035,0.667,0.035l0,0c1.282-0.006,1.648-0.448,2.413-1.211l0,0
			l0.154,0.071l-0.139-0.084l7.785-6.042c0.206-0.212,0.297-0.414,0.297-0.596l0,0c0.005-0.512-0.731-0.981-2.116-1.119l0,0
			c-0.246-0.025-0.498-0.035-0.753-0.035l0,0c-0.006,0-0.013,0-0.019,0l0,0C9.888,11.195,8.139,11.706,7.468,12.39L7.468,12.39z"/>
	</g>
	<g>
		<path fill="#FFFFFF" d="M23.407,15.703c0.185,0.896-4.663,4.756-4.663,4.756c2.034-0.074,10.921-3.859,10.741-4.756v-3.266
			c-0.178-0.896-1.975-1.562-4.006-1.489l0,0c-2.035,0.073-3.533,0.857-3.354,1.755L23.407,15.703z"/>
		<path fill="#303030" d="M18.603,20.377c-0.009-0.004,4.672-3.768,4.623-4.623l0,0c0-0.008,0-0.018,0-0.026l0,0l-1.283-3.003
			c-0.014-0.062-0.017-0.117-0.017-0.169l0,0c0.017-0.943,1.569-1.662,3.536-1.734l0,0c0.109-0.006,0.215-0.006,0.321-0.006l0,0
			c1.954,0.004,3.676,0.65,3.888,1.621l0,0l-0.003,3.28c0,0,0,0.012,0.003,0.012l0,0c-0.15,1.145-8.746,4.714-10.92,4.854l0,0
			l-0.428,0.013L18.603,20.377L18.603,20.377z M23.597,15.754c-0.043,0.938-3.33,3.654-4.39,4.518l0,0
			c1.176-0.228,3.483-1.054,5.563-1.959l0,0c2.422-1.022,4.605-2.272,4.529-2.583l0,0c0-0.002-0.003-0.012,0-0.027l0,0l0.004-3.25
			c-0.13-0.747-1.671-1.39-3.521-1.388l0,0c-0.1,0-0.2,0.002-0.299,0.006l0,0c-1.875,0.066-3.209,0.758-3.191,1.484l0,0
			c0,0.045,0.003,0.086,0.009,0.111l0,0l1.281,3L23.406,15.7l0.183-0.014C23.593,15.711,23.593,15.731,23.597,15.754L23.597,15.754z
			"/>
	</g>
	<polygon fill="#303030" points="15.718,19.988 18.753,18.083 18.536,11.859 14.202,18.083 	"/>
	<path fill="#303030" d="M19.478,7.178c0-0.181,0.029-0.368,0.029-0.541l0,0c0-0.23-0.055-0.42-0.261-0.549l0,0h0.003l0.249-0.183
		c0.321,0.206,0.379,0.48,0.376,0.732l0,0c0,0.191-0.03,0.381-0.027,0.541l0,0H19.478L19.478,7.178z"/>
	<path fill="#303030" d="M17.008,8.16l0.136-0.232c0.744,0.204,1.756,0.426,2.646,0.424l0,0c0.342,0,0.666-0.033,0.955-0.109l0,0
		l0.133,0.232c-0.343,0.09-0.713,0.127-1.088,0.127l0,0C18.813,8.6,17.771,8.368,17.008,8.16L17.008,8.16z"/>
</g>
<ellipse fill="#303030" cx="16.563" cy="4.306" rx="0.874" ry="0.519"/>
<ellipse fill="#303030" cx="22.563" cy="4.306" rx="0.874" ry="0.519"/>
</svg>
