<?xml version="1.0" encoding="utf-8"?>
<!-- Generator: Adobe Illustrator 16.0.0, SVG Export Plug-In . SVG Version: 6.00 Build 0)  -->
<!DOCTYPE svg PUBLIC "-//W3C//DTD SVG 1.1//EN" "http://www.w3.org/Graphics/SVG/1.1/DTD/svg11.dtd">
<svg version="1.1" id="Material" xmlns="http://www.w3.org/2000/svg" xmlns:xlink="http://www.w3.org/1999/xlink" x="0px" y="0px"
	 width="31.998px" height="32px" viewBox="0 0 31.998 32" enable-background="new 0 0 31.998 32" xml:space="preserve">
<path fill="#FFFFFF" d="M31.88,28.963H0.065V2.911H31.88V28.963z M2.065,26.963H29.88V4.911H2.065V26.963z M32.029,28.963H-0.076
	l12.217-14.589l3.827,4.014l3.775-4.018L32.029,28.963z M4.207,26.963H27.73l-8.07-9.585l-3.682,3.92l-3.741-3.924L4.207,26.963z
	 M31.88,28.963H0.065V5.58l1.822-2.446l14.086,15.301L30.132,3.059l1.748,2.542V28.963z M2.065,26.963H29.88V6.286L15.973,21.388
	L2.065,6.28V26.963z"/>
</svg>
