<?xml version="1.0" encoding="utf-8"?>
<!-- Generator: Adobe Illustrator 16.0.0, SVG Export Plug-In . SVG Version: 6.00 Build 0)  -->
<!DOCTYPE svg PUBLIC "-//W3C//DTD SVG 1.1//EN" "http://www.w3.org/Graphics/SVG/1.1/DTD/svg11.dtd">
<svg version="1.1" id="Material" xmlns="http://www.w3.org/2000/svg" xmlns:xlink="http://www.w3.org/1999/xlink" x="0px" y="0px"
	 width="31.998px" height="32px" viewBox="0 0 31.998 32" enable-background="new 0 0 31.998 32" xml:space="preserve">
<path fill="#FFFFFF" d="M28.21,17.021v14.062H2.934V1.703H28.21v6.979l-0.766,1.952V2.593H3.7v27.601h23.744V19L28.21,17.021z
	 M24.708,9.698H5.565v1.292h19.143V9.698z M24.708,5.698H5.565V6.99h19.143V5.698z M24.708,13.698H5.565v1.292h19.143V13.698z
	 M24.708,17.698H5.565v1.292h19.143V17.698z M24.708,21.698H5.565v1.292h19.143V21.698z M24.708,25.698H5.565v1.292h19.143V25.698z
	 M31.653,6.499l-1.551-0.651l-0.481,1.136l1.554,0.651L31.653,6.499z M29.354,7.616l-5.537,13.118l0.085,1.609l1.466-0.958
	l5.536-13.119L29.354,7.616z"/>
</svg>
