<?xml version="1.0" encoding="utf-8"?>
<!-- Generator: Adobe Illustrator 13.0.0, SVG Export Plug-In . SVG Version: 6.00 Build 14948)  -->
<!DOCTYPE svg PUBLIC "-//W3C//DTD SVG 1.1//EN" "http://www.w3.org/Graphics/SVG/1.1/DTD/svg11.dtd">
<svg version="1.1" id="Material" xmlns="http://www.w3.org/2000/svg" xmlns:xlink="http://www.w3.org/1999/xlink" x="0px" y="0px"
	 width="31.998px" height="32px" viewBox="-1.5 -1.5 31.998 32" enable-background="new -1.5 -1.5 31.998 32" xml:space="preserve">
<path fill="#438CCA" stroke="#1D8FBC" stroke-width="2" d="M1.08,31.011V7.552V7.069l8.139-0.045L9.233,0.66H30.87v30.351H1.08
	L1.08,31.011z M2.043,30.044h27.864V1.625H10.193L10.18,7.983L2.043,8.031V30.044L2.043,30.044z"/>
<rect x="22.465" y="9.346" fill-rule="evenodd" clip-rule="evenodd" fill="#438CCA" width="2.16" height="11.28"/>
<rect x="18.865" y="10.786" fill-rule="evenodd" clip-rule="evenodd" fill="#438CCA" width="1.919" height="9.6"/>
<rect x="14.785" y="14.866" fill-rule="evenodd" clip-rule="evenodd" fill="#438CCA" width="2.16" height="5.76"/>
<rect x="10.945" y="12.946" fill-rule="evenodd" clip-rule="evenodd" fill="#438CCA" width="2.4" height="7.44"/>
<rect x="6.865" y="16.546" fill-rule="evenodd" clip-rule="evenodd" fill="#438CCA" width="2.64" height="3.84"/>
<path fill="none" d="M6.385,13.186"/>
<path fill="#1D8FBC" d="M6.185,13.729c0.021-1.249,1.014-1.99,2.09-2.587l0,0c1.099-0.605,2.429-1.122,3.497-1.753l0,0
	c0.14-0.087,0.309-0.13,0.465-0.13l0,0c0.856,0.08,1.301,0.766,1.904,1.332l0,0c0.543,0.603,1.181,1.083,1.315,1.027l0,0
	c0.01,0,0.027-0.002,0.039-0.004l0,0c0.352-0.103,0.881-0.693,1.422-1.344l0,0c0.556-0.636,1.156-1.356,2.08-1.541l0,0
	c0.163,0.004,0.739-0.467,1.266-0.992l0,0c0.563-0.506,1.091-1.093,1.871-1.198l0,0c0.197-0.008,0.331-0.162,0.595-0.553l0,0
	c0.226-0.344,0.631-0.926,1.413-0.924l0,0V6.06c-0.229,0-0.325,0.115-0.588,0.49l0,0c-0.227,0.327-0.57,0.912-1.33,0.987l0,0
	c-0.177-0.021-0.751,0.404-1.273,0.926l0,0c-0.558,0.504-1.052,1.083-1.774,1.249l0,0c-0.43,0.06-0.969,0.57-1.5,1.208l0,0
	c-0.547,0.62-1.056,1.337-1.87,1.642l0,0c-0.103,0.033-0.222,0.056-0.35,0.056l0,0c-1.268-0.115-2.06-1.537-2.824-2.107l0,0
	c-0.18-0.162-0.321-0.231-0.373-0.248l0,0c-1.164,0.679-2.496,1.198-3.501,1.756l0,0c-1.037,0.57-1.595,1.124-1.574,1.71l0,0H6.185
	L6.185,13.729z"/>
<polygon fill="#1D8FBC" points="25.665,5.266 23.283,3.16 25.815,2.755 "/>
<g>
	<polygon fill="#1B79BF" points="3.74,22.765 3.75,21.765 27.258,22.005 27.247,23.004 3.74,22.765 	"/>
	<polygon fill="#1B79BF" points="3.74,24.764 3.75,23.766 27.258,24.006 27.247,25.005 3.74,24.764 	"/>
	<polygon fill="#1B79BF" points="3.739,26.765 3.75,25.766 27.259,26.005 27.246,27.005 3.739,26.765 	"/>
	<polygon fill="#1B79BF" points="3.74,28.764 3.75,27.766 27.259,28.006 27.247,29.005 3.74,28.764 	"/>
</g>
<g>
	<polygon fill="#116CB7" points="11.052,0.035 0.57,9.106 11.052,9.106 	"/>
	<path fill="#116CB7" d="M0.149,9.265l0.02-3.251L8.34-0.181l2.857-0.117l0,0v9.562H0.149L0.149,9.265z M0.986,8.946h9.919v-8.58
		L0.986,8.946L0.986,8.946z"/>
</g>
</svg>
