<?xml version="1.0" encoding="utf-8"?>
<!-- Generator: Adobe Illustrator 16.0.0, SVG Export Plug-In . SVG Version: 6.00 Build 0)  -->
<!DOCTYPE svg PUBLIC "-//W3C//DTD SVG 1.1//EN" "http://www.w3.org/Graphics/SVG/1.1/DTD/svg11.dtd">
<svg version="1.1" id="Capa_1" xmlns="http://www.w3.org/2000/svg" xmlns:xlink="http://www.w3.org/1999/xlink" x="0px" y="0px"
	 width="131.016px" height="152.318px" viewBox="0 0 131.016 152.318" enable-background="new 0 0 131.016 152.318"
	 xml:space="preserve">
<path fill="none" stroke="#FFFFFF" stroke-width="6" stroke-miterlimit="10" d="M65.467,149.953
	c-5.914-5.966-11.694-11.603-17.231-17.471c-2.511-2.659-5.137-3.906-8.888-3.763c-7.427,0.289-14.874,0.091-22.311,0.084
	C6.961,128.797,2.077,123.99,2.039,113.57C1.948,88.319,2.005,63.067,2.003,37.815c0-7.121-0.091-14.245,0.031-21.365
	C2.195,6.922,6.936,2.058,16.357,2.037c32.824-0.074,65.647-0.071,98.471,0.008c9.092,0.021,14.132,4.883,14.171,14.075
	c0.142,32.858,0.137,65.719,0.013,98.578c-0.037,9.225-5.375,14.071-14.717,14.102c-7.762,0.023-15.536-0.25-23.276,0.151
	c-2.566,0.134-5.573,1.379-7.469,3.11C77.371,137.702,71.612,143.802,65.467,149.953z M37.218,44.59c3.058,0,6.248-0.173,9.41,0.048
	c3.209,0.225,4.775-0.665,5.585-4.148c1.422-6.126,6.226-9.842,11.978-10.292c5.998-0.469,11.026,2.192,13.615,7.288
	c2.896,5.703,1.939,11.02-2.104,15.71c-2.841,3.297-6.537,5.935-8.997,9.464c-3.161,4.542-6.295,9.415-7.955,14.621
	c-2.793,8.755-1.39,10.11,7.536,10.101c1.13-0.001,2.263-0.072,3.39-0.011c2.427,0.132,3.381-0.886,3.479-3.399
	c0.264-6.776,3.117-12.387,8.082-17.015c2.598-2.418,5.585-4.73,7.29-7.722c2.479-4.352,5.353-9.196,5.618-13.965
	c1.05-18.84-14.842-32.63-33.579-29.966C46.837,17.253,35.286,31.305,37.218,44.59z M72.681,115.434c0-5.186,0-9.782,0-14.404
	c-4.99,0-9.583,0-14.354,0c0,4.938,0,9.532,0,14.404C63.23,115.434,67.822,115.434,72.681,115.434z"/>
</svg>
