<?xml version="1.0" encoding="utf-8"?>
<!-- Generator: Adobe Illustrator 16.0.0, SVG Export Plug-In . SVG Version: 6.00 Build 0)  -->
<!DOCTYPE svg PUBLIC "-//W3C//DTD SVG 1.1//EN" "http://www.w3.org/Graphics/SVG/1.1/DTD/svg11.dtd">
<svg version="1.1" id="Capa_1" xmlns="http://www.w3.org/2000/svg" xmlns:xlink="http://www.w3.org/1999/xlink" x="0px" y="0px"
	 width="31.998px" height="32px" viewBox="0 0 31.998 32" enable-background="new 0 0 31.998 32" xml:space="preserve">
<g>
	<path fill="#FFFFFF" stroke="#000000" stroke-width="0.25" stroke-miterlimit="10" d="M23.629,11.199
		c0.046,0.95,0.101,2.026-0.623,2.789c-0.09,0.094-0.188,0.18-0.294,0.257c-0.466,0.338-1.086,0.505-1.891,0.505h-8.606
		c-0.799,0-1.422-0.168-1.881-0.508c-0.103-0.076-0.197-0.161-0.283-0.254c-0.72-0.762-0.649-1.838-0.588-2.789
		c0.02-0.26,0.031-0.529,0.033-0.798h0.117c0.453-1.865,2.31-4.357,7.251-4.357h0.195c3.873,0.054,5.942,2.375,6.433,4.357h0.116
		C23.604,10.67,23.621,10.939,23.629,11.199z M21.563,12.625c0.136-0.144,0.097-0.87,0.082-1.309l-0.035-0.018
		c0.008-1.076-1.375-3.219-4.594-3.263h-0.17c-4.225,0-5.353,2.133-5.362,3.263H11.45c-0.03,0.449-0.081,1.184,0.053,1.327
		c0.044,0.044,0.25,0.125,0.725,0.125h8.608C21.313,12.75,21.521,12.669,21.563,12.625"/>
	<g enable-background="new    ">
		<path fill="#500050" d="M22.78,14.373l-0.533-0.159c0.992,0.034,1.61-0.138,2.002-0.086l0.609,0.245
			C24.467,14.32,23.771,14.406,22.78,14.373"/>
		<path fill="#500050" d="M24.858,14.373l-0.531-0.245c0.112,0.015-0.571,0.172-0.078,0l0.852,0.292
			C25.054,14.403,24.972,14.388,24.858,14.373"/>
		<path fill="#500050" d="M25.101,14.42l-0.852-0.292c0.021,0.008,0.411,0.065,0.418,0.073l0.479,0.243
			C25.14,14.436,25.124,14.428,25.101,14.42"/>
	</g>
	<g enable-background="new    ">
		<path fill="#500050" d="M20.821,14.749l-0.434-0.436c0.051,0,0.103,0,0.149-0.002l0.437,0.436
			C20.925,14.748,20.874,14.749,20.821,14.749"/>
		<path fill="#500050" d="M20.976,14.747l-0.436-0.436c0.232-0.006,0.447-0.027,0.646-0.063l0.436,0.436
			C21.422,14.72,21.206,14.741,20.976,14.747"/>
		<path fill="#500050" d="M21.622,14.684l-0.436-0.436c0.166-0.03,0.327,0.016,0.476-0.034l0.427,0.35
			C21.942,14.614,21.788,14.654,21.622,14.684"/>
		<path fill="#500050" d="M22.089,14.498l-0.427-0.284c0.146-0.05,0.788,0.015,0.915-0.058l-0.079,0.224
			C22.372,14.452,22.235,14.448,22.089,14.498"/>
		<path fill="#500050" d="M22.247,14.128"/>
	</g>
	<polygon fill="#500050" points="23.491,10.401 23.058,9.965 23.174,9.965 23.606,10.401 	"/>
	<g enable-background="new    ">
		<path fill="#500050" d="M20.838,12.75l-0.435-0.436c0.037,0,0.072,0,0.104-0.001l0.438,0.436
			C20.91,12.75,20.875,12.75,20.838,12.75"/>
		<path fill="#500050" d="M20.944,12.749l-0.438-0.436c0.15-0.004,0.271-0.017,0.362-0.033l0.437,0.436
			C21.214,12.731,21.095,12.744,20.944,12.749"/>
		<path fill="#500050" d="M21.308,12.715l-0.436-0.436c0.066-0.012,0.118-0.026,0.158-0.04l0.435,0.436
			C21.425,12.689,21.372,12.703,21.308,12.715"/>
		<path fill="#500050" d="M21.465,12.676L21.03,12.24c0.029-0.01,0.053-0.021,0.07-0.03l0.434,0.436
			C21.519,12.655,21.494,12.666,21.465,12.676"/>
		<path fill="#500050" d="M21.534,12.646l-0.434-0.436c0.012-0.007,0.021-0.015,0.026-0.021l0.437,0.436
			C21.558,12.631,21.548,12.638,21.534,12.646"/>
	</g>
	<path fill="#500050" d="M21.563,12.625l-0.437-0.436c0.138-0.144,0.099-0.87,0.082-1.309l0.437,0.436
		C21.66,11.754,21.699,12.481,21.563,12.625"/>
	<path fill="#500050" d="M21.61,11.297l-0.438-0.436c0.006-0.5-0.292-1.229-0.932-1.872l0.434,0.436
		C21.317,10.068,21.614,10.798,21.61,11.297"/>
	<polygon fill="#500050" points="12.215,14.749 11.781,14.313 20.388,14.313 20.821,14.749 	"/>
	<polygon fill="#500050" points="12.23,12.75 11.796,12.314 20.403,12.314 20.838,12.75 	"/>
	<g enable-background="new    ">
		<path fill="#500050" d="M10.334,14.241L9.9,13.805c0.182,0.135,0.389,0.243,0.623,0.323l0.434,0.436
			C10.723,14.483,10.516,14.376,10.334,14.241"/>
		<path fill="#500050" d="M10.957,14.564l-0.434-0.436c0.192,0.067,0.403,0.115,0.632,0.146l0.434,0.436
			C11.36,14.679,11.15,14.631,10.957,14.564"/>
		<path fill="#500050" d="M11.589,14.71l-0.434-0.436c0.195,0.026,0.404,0.039,0.626,0.039l0.434,0.436
			C11.993,14.749,11.784,14.736,11.589,14.71"/>
	</g>
	<g enable-background="new    ">
		<path fill="#500050" d="M11.505,12.625l-0.434-0.436c0.015,0.015,0.046,0.033,0.099,0.051l0.434,0.436
			C11.551,12.657,11.52,12.639,11.505,12.625"/>
		<path fill="#500050" d="M11.604,12.676L11.17,12.24c0.055,0.019,0.132,0.038,0.236,0.052l0.434,0.436
			C11.736,12.713,11.659,12.694,11.604,12.676"/>
		<path fill="#500050" d="M11.84,12.727l-0.434-0.436c0.103,0.014,0.231,0.022,0.39,0.022l0.434,0.436
			C12.071,12.75,11.942,12.741,11.84,12.727"/>
	</g>
	<g enable-background="new    ">
		<g>
			<g enable-background="new    ">
				<path fill="#500050" d="M10.103,14.042l-0.434-0.436c-0.018-0.018-0.035-0.036-0.052-0.054l0.434,0.436
					C10.068,14.006,10.085,14.023,10.103,14.042"/>
			</g>
		</g>
	</g>
	<g enable-background="new    ">
		<path fill="#500050" d="M17.06,6.043l-0.435-0.436c0.378,0.005,0.737,0.032,1.081,0.078l0.434,0.436
			C17.797,6.075,17.437,6.049,17.06,6.043"/>
		<path fill="#500050" d="M18.14,6.121l-0.434-0.436c0.544,0.073,1.046,0.193,1.506,0.353l0.434,0.436
			C19.187,6.314,18.685,6.194,18.14,6.121"/>
		<path fill="#500050" d="M19.646,6.474l-0.434-0.436c1.012,0.35,1.822,0.886,2.439,1.506l0.435,0.436
			C21.47,7.36,20.658,6.824,19.646,6.474"/>
	</g>
	<polygon fill="#500050" points="16.862,6.043 16.429,5.608 16.625,5.608 17.06,6.043 	"/>
	<g enable-background="new    ">
		<path fill="#500050" d="M7.897,25.947L7.463,25.51c-0.39-0.527-0.49-10.938,0.088-11.502c0.003-0.003,0.009-0.007,0.015-0.011
			L8,14.434c-0.006,0.003-0.011,0.007-0.015,0.01C7.407,15.009,7.507,25.419,7.897,25.947"/>
		<path fill="#500050" d="M8,14.434l-0.434-0.436c0.009-0.005,0.021-0.01,0.035-0.015l0.434,0.436
			C8.021,14.424,8.009,14.429,8,14.434"/>
		<path fill="#500050" d="M8.035,14.419l-0.434-0.436c0.033-0.011,0.079-0.022,0.137-0.033l0.434,0.436
			C8.114,14.397,8.068,14.408,8.035,14.419"/>
		<path fill="#500050" d="M8.172,14.387l-0.434-0.436c0.343-0.061,1.12-0.109,2.162-0.146l0.434,0.436
			C9.292,14.277,8.516,14.326,8.172,14.387"/>
	</g>
	<path fill="#FFFFFF" stroke="#000000" stroke-width="0.25" stroke-miterlimit="10" d="M25.146,14.444
		c0.25,0.287,0.319,11.136-0.086,11.513c-0.154,0.138-4.93,0.229-9.4,0.229c-3.933,0-7.634-0.067-7.759-0.235
		c-0.39-0.528-0.49-10.938,0.088-11.503C8.077,14.355,25.073,14.359,25.146,14.444z"/>
	<path fill="#500050" d="M10.051,13.987l-0.434-0.436c-0.72-0.763-0.649-1.838-0.588-2.789c0.02-0.26,0.031-0.529,0.033-0.798
		L9.496,10.4c-0.002,0.269-0.013,0.538-0.033,0.798C9.401,12.149,9.331,13.225,10.051,13.987"/>
	<g>
		<polygon fill="#500050" points="9.496,10.401 9.062,9.965 9.178,9.965 9.612,10.401 		"/>
	</g>
	<g enable-background="new    ">
		<path fill="#500050" d="M9.612,10.401L9.178,9.965c0.268-1.1,1.024-2.419,2.614-3.316l0.434,0.436
			C10.636,7.981,9.88,9.3,9.612,10.401"/>
		<path fill="#500050" d="M12.227,7.085l-0.434-0.436c0.348-0.196,0.736-0.373,1.168-0.521l0.434,0.436
			C12.963,6.712,12.575,6.889,12.227,7.085"/>
		<path fill="#500050" d="M13.395,6.563l-0.434-0.436c0.404-0.139,0.847-0.255,1.33-0.342l0.434,0.436
			C14.242,6.308,13.799,6.424,13.395,6.563"/>
		<path fill="#500050" d="M14.725,6.222l-0.434-0.436c0.533-0.096,1.117-0.156,1.754-0.173l0.434,0.436
			C15.842,6.066,15.258,6.126,14.725,6.222"/>
		<path fill="#500050" d="M16.479,6.049l-0.434-0.436c0.126-0.003,0.254-0.005,0.384-0.005l0.435,0.436
			C16.731,6.043,16.604,6.045,16.479,6.049"/>
	</g>
</g>
<g enable-background="new    ">
	<g enable-background="new    ">
		<path fill="#500050" d="M14.612,22.739l-0.434-0.438c-0.108-0.107,0.962-2.785,0.963-2.943l0.434,0.436
			C15.574,19.951,14.503,22.631,14.612,22.739"/>
	</g>
	<g enable-background="new    ">
		<path fill="#500050" d="M16.535,16.766l-0.434-0.437c0.094,0,0.188,0.006,0.281,0.019l0.434,0.436
			C16.724,16.771,16.629,16.766,16.535,16.766"/>
		<path fill="#500050" d="M16.815,16.783l-0.437-0.436c0.136,0.018,0.265,0.048,0.39,0.091l0.434,0.436
			C17.078,16.831,16.948,16.801,16.815,16.783"/>
		<path fill="#500050" d="M17.202,16.874l-0.434-0.436c0.233,0.082,0.451,0.21,0.625,0.384l0.436,0.437
			C17.655,17.084,17.438,16.956,17.202,16.874"/>
	</g>
	<g enable-background="new    ">
		<path fill="#500050" d="M15.128,19.502l-0.434-0.436c-0.215-0.217-0.42-0.575-0.394-1.153c0.029-0.636,0.362-1.081,0.812-1.334
			l0.434,0.437c-0.45,0.254-0.782,0.697-0.812,1.334C14.708,18.927,14.913,19.286,15.128,19.502"/>
		<path fill="#500050" d="M15.546,17.016l-0.434-0.437c0.098-0.056,0.201-0.101,0.308-0.138l0.434,0.436
			C15.747,16.914,15.644,16.96,15.546,17.016"/>
		<path fill="#500050" d="M15.854,16.877l-0.434-0.436c0.099-0.034,0.201-0.061,0.305-0.079l0.434,0.436
			C16.055,16.816,15.953,16.843,15.854,16.877"/>
		<path fill="#500050" d="M16.159,16.798l-0.434-0.436c0.104-0.019,0.211-0.03,0.317-0.033l0.434,0.437
			C16.37,16.77,16.264,16.779,16.159,16.798"/>
		<path fill="#500050" d="M16.477,16.766l-0.434-0.436c0.02,0,0.039-0.001,0.059-0.001l0.434,0.437
			C16.517,16.766,16.496,16.766,16.477,16.766"/>
	</g>
	<path fill="none" stroke="#000000" stroke-width="0.25" stroke-miterlimit="10" d="M16.535,16.766c0.873,0,1.731,0.532,1.714,1.604
		c-0.018,0.879-0.957,1.5-1.007,1.53c-0.002,0.308,1.217,2.756,0.938,2.779c-0.619,0.063-2.771,0.063-3.563,0.063
		c-0.161,0,0.954-2.788,0.955-2.949c-0.045-0.017-0.894-0.306-0.841-1.442C14.783,17.294,15.667,16.766,16.535,16.766z"/>
</g>
</svg>
