<?xml version="1.0" encoding="utf-8"?>
<!-- Generator: Adobe Illustrator 13.0.0, SVG Export Plug-In . SVG Version: 6.00 Build 14948)  -->
<!DOCTYPE svg PUBLIC "-//W3C//DTD SVG 1.1//EN" "http://www.w3.org/Graphics/SVG/1.1/DTD/svg11.dtd">
<svg version="1.1" id="Material" xmlns="http://www.w3.org/2000/svg" xmlns:xlink="http://www.w3.org/1999/xlink" x="0px" y="0px"
	 width="24px" height="19px" viewBox="3.849 6.3 24 19" enable-background="new 3.849 6.3 24 19" xml:space="preserve">
<g>
	<g>
		<path fill="#FFFFFF" d="M23.498,7.904c0,1.255-3.038,2.275-6.797,2.275c-3.751,0-6.789-1.02-6.789-2.275
			c0-1.257,3.038-2.275,6.789-2.275C20.46,5.629,23.498,6.646,23.498,7.904z"/>
		<path fill="#303030" d="M9.785,7.904c0.008-1.303,3.121-2.333,6.916-2.333l0,0c3.803,0,6.912,1.029,6.924,2.333l0,0
			c-0.012,1.3-3.121,2.332-6.924,2.332l0,0C12.906,10.233,9.793,9.204,9.785,7.904L9.785,7.904z M10.037,7.904
			c0.006,1.209,2.954,2.215,6.664,2.218l0,0c3.713-0.002,6.665-1.008,6.671-2.218l0,0c-0.006-1.212-2.958-2.217-6.671-2.218l0,0
			C12.996,5.687,10.043,6.691,10.037,7.904L10.037,7.904z"/>
	</g>
	<g>
		<path fill="#FFFFFF" d="M19.221,14.464c-0.246,0.472-2.699,0.822-5.467,0.783l0,0c-2.769-0.039-4.81-0.45-4.561-0.92l1.746-3.29
			c0.253-0.47,2.698-0.82,5.467-0.782l0,0c2.767,0.038,4.809,0.45,4.562,0.92L19.221,14.464z"/>
		<path fill="#303030" d="M13.748,15.303c-2.627-0.046-4.649-0.386-4.703-0.898l0,0c0-0.03,0.008-0.063,0.025-0.092l0,0l1.745-3.289
			c0.312-0.506,2.557-0.82,5.171-0.829l0,0c0.137,0,0.277,0,0.424,0.003l0,0c2.625,0.045,4.648,0.385,4.701,0.899l0,0
			c0,0.03-0.01,0.06-0.022,0.092l0,0l-1.747,3.289l0,0c-0.313,0.508-2.563,0.819-5.174,0.828l0,0
			C14.027,15.307,13.887,15.305,13.748,15.303L13.748,15.303z M11.061,11.05l-1.747,3.29c-0.014,0.02-0.016,0.042-0.016,0.063l0,0
			c-0.021,0.359,1.856,0.76,4.458,0.787l0,0c0.137,0.002,0.276,0.004,0.414,0.004l0,0c2.57,0.009,4.766-0.357,4.93-0.743l0,0
			l1.744-3.285c0.012-0.024,0.018-0.046,0.018-0.067l0,0c0.018-0.359-1.858-0.758-4.461-0.786l0,0
			c-0.141-0.003-0.275-0.003-0.412-0.003l0,0c-0.028,0-0.059,0-0.09,0l0,0C13.366,10.308,11.225,10.67,11.061,11.05L11.061,11.05z"
			/>
	</g>
	<g>
		<path fill="#FFFFFF" d="M13.605,19.124c-0.127,0.448-1.352,0.783-2.735,0.747l0,0c-1.384-0.036-2.403-0.43-2.278-0.879
			l0.871-3.139c0.126-0.446,1.348-0.781,2.735-0.744l0,0c1.384,0.037,2.405,0.43,2.282,0.877L13.605,19.124z"/>
		<path fill="#303030" d="M10.862,19.925c-1.346-0.032-2.4-0.397-2.407-0.86l0,0c0-0.024,0.001-0.054,0.011-0.08l0,0l0.875-3.137
			c0.137-0.469,1.307-0.798,2.643-0.798l0,0c0.072,0,0.145,0,0.223,0.003l0,0c1.346,0.036,2.398,0.399,2.406,0.861l0,0
			c0,0.025-0.004,0.051-0.008,0.082l0,0L13.73,19.13c-0.142,0.47-1.313,0.8-2.647,0.8l0,0C11.006,19.93,10.934,19.928,10.862,19.925
			L10.862,19.925z M9.588,15.861l-0.873,3.141c-0.009,0.018-0.011,0.039-0.011,0.063l0,0c-0.007,0.373,0.903,0.716,2.172,0.748l0,0
			c0.067,0.002,0.139,0.002,0.206,0.002l0,0c1.254,0,2.301-0.313,2.398-0.696l0,0l0.871-3.134c0.008-0.026,0.012-0.049,0.012-0.069
			l0,0c0.005-0.373-0.904-0.714-2.176-0.747l0,0c-0.067-0.004-0.135-0.004-0.202-0.004l0,0C10.727,15.163,9.686,15.479,9.588,15.861
			L9.588,15.861z"/>
	</g>
	<g>
		<path fill="#FFFFFF" d="M16.111,19.124c0.121,0.448,1.354,0.783,2.734,0.747l0,0c1.383-0.036,2.401-0.43,2.278-0.879l-0.872-3.139
			c-0.128-0.446-1.35-0.781-2.73-0.744l0,0c-1.388,0.037-2.402,0.43-2.285,0.877L16.111,19.124z"/>
		<path fill="#303030" d="M15.986,19.13L15.986,19.13l-0.875-3.134c-0.01-0.028-0.012-0.057-0.012-0.081l0,0
			c0.01-0.463,1.061-0.826,2.412-0.862l0,0c0.074-0.003,0.145-0.003,0.217-0.003l0,0c1.336,0,2.504,0.329,2.646,0.798l0,0
			l0.873,3.139c0.004,0.024,0.011,0.053,0.011,0.078l0,0c-0.011,0.463-1.063,0.828-2.409,0.86l0,0
			c-0.074,0.003-0.146,0.005-0.219,0.005l0,0C17.297,19.93,16.124,19.6,15.986,19.13L15.986,19.13z M18.632,19.813
			c0.063,0,0.134,0,0.204,0l0,0c1.268-0.033,2.182-0.375,2.173-0.75l0,0c0-0.021-0.005-0.045-0.007-0.063l0,0l-0.875-3.138
			c-0.1-0.385-1.145-0.699-2.396-0.699l0,0c-0.066,0-0.135,0.001-0.203,0.005l0,0c-1.272,0.031-2.185,0.373-2.176,0.747l0,0
			c0.002,0.021,0.002,0.043,0.012,0.064l0,0l0.873,3.137l-0.123,0.007l0.123-0.007C16.332,19.5,17.381,19.813,18.632,19.813
			L18.632,19.813z"/>
	</g>
	<g>
		<path fill="#FFFFFF" d="M7.695,14.146c-0.585,0.395-0.901,0.646-2.218,0.561l0,0c-1.315-0.085-0.729-0.473-0.146-0.868
			l2.908-2.757c0.588-0.395,2.127-0.643,3.447-0.559l0,0c1.313,0.086,1.907,0.474,1.323,0.87L7.695,14.146z"/>
		<path fill="#303030" d="M5.948,14.779c-0.15,0-0.31-0.008-0.487-0.018l0,0c-0.604-0.033-0.908-0.154-0.902-0.324l0,0
			c0.006-0.196,0.348-0.412,0.662-0.623l0,0l2.917-2.765c0.548-0.364,1.804-0.6,3.018-0.601l0,0c0.183,0,0.367,0.005,0.548,0.018
			l0,0c0.999,0.063,1.649,0.305,1.655,0.62l0,0c0.002,0.108-0.084,0.224-0.254,0.34l0,0L7.798,14.18
			c-0.489,0.336-0.853,0.601-1.834,0.601l0,0C5.958,14.779,5.952,14.779,5.948,14.779L5.948,14.779z M8.354,11.107l-2.918,2.765
			c-0.328,0.216-0.634,0.435-0.628,0.565l0,0c0.006,0.098,0.118,0.17,0.687,0.211l0,0c0.169,0.01,0.321,0.018,0.454,0.018l0,0
			c0.873-0.002,1.124-0.203,1.644-0.552l0,0l0.105,0.032l-0.096-0.039l5.302-2.748c0.141-0.096,0.199-0.188,0.199-0.271l0,0
			c0.008-0.232-0.494-0.445-1.438-0.507l0,0c-0.167-0.013-0.338-0.017-0.51-0.017l0,0c-0.007,0-0.012,0-0.015,0l0,0
			C10.001,10.563,8.811,10.795,8.354,11.107L8.354,11.107z"/>
	</g>
	<g>
		<path fill="#FFFFFF" d="M19.21,12.614c0.125,0.409-3.177,2.165-3.177,2.165c1.388-0.034,7.439-1.756,7.316-2.165v-1.485
			c-0.119-0.408-1.346-0.711-2.729-0.678l0,0c-1.389,0.034-2.405,0.391-2.285,0.798L19.21,12.614z"/>
		<path fill="#303030" d="M15.938,14.741c-0.004-0.001,3.183-1.714,3.149-2.103l0,0c0-0.004,0-0.009,0-0.012l0,0L18.21,11.26
			c-0.005-0.027-0.008-0.054-0.008-0.076l0,0c0.008-0.431,1.067-0.757,2.405-0.79l0,0c0.078-0.002,0.146-0.002,0.22-0.002l0,0
			c1.331,0.001,2.504,0.295,2.647,0.738l0,0v1.492v0.007l0,0c-0.103,0.52-5.957,2.145-7.436,2.208l0,0l-0.293,0.007L15.938,14.741
			L15.938,14.741z M19.34,12.639c-0.031,0.428-2.27,1.663-2.992,2.057l0,0c0.803-0.104,2.375-0.479,3.791-0.893l0,0
			c1.649-0.466,3.137-1.033,3.084-1.175l0,0c0-0.003,0-0.007,0-0.014l0,0l0.002-1.479c-0.084-0.341-1.137-0.633-2.396-0.633l0,0
			c-0.066,0-0.135,0.003-0.203,0.003l0,0c-1.277,0.03-2.188,0.345-2.176,0.677l0,0c0,0.02,0.003,0.037,0.009,0.051l0,0l0.872,1.365
			l-0.119,0.014l0.122-0.006C19.335,12.62,19.335,12.628,19.34,12.639L19.34,12.639z"/>
	</g>
	<polygon fill="#303030" points="13.975,14.564 16.041,13.699 15.893,10.866 12.941,13.699 	"/>
	<path fill="#303030" d="M13.432,7.75c-0.334,0-0.675,0.002-1.02,0.002l0,0c-0.016,0-0.035,0-0.053,0l0,0V7.639
		c0.013,0,0.034,0,0.053,0l0,0c0.34,0,0.682-0.002,1.02-0.002l0,0c0.566,0,1.125,0.006,1.68,0.04l0,0L15.08,7.789
		C14.54,7.756,13.997,7.75,13.432,7.75L13.432,7.75z"/>
	<path fill="#303030" d="M18.191,7.752l0.058-0.111c0.649,0.076,1.39,0.098,2.173,0.098l0,0c0.264,0,0.531-0.003,0.805-0.007l0,0
		c-0.549-0.048-1.258-0.08-1.834-0.087l0,0l0.004-0.113c0.728,0.008,1.633,0.052,2.231,0.125l0,0c0-0.016,0.011-0.042,0.048-0.063
		l0,0l0.047-0.029L21.8,7.573c0.333,0.03,0.726,0.081,0.956,0.138l0,0L23.16,7.81l-0.458,0.008c-0.769,0.016-1.54,0.037-2.28,0.037
		l0,0C19.627,7.854,18.867,7.831,18.191,7.752L18.191,7.752z M21.863,7.72c0.066-0.001,0.132-0.002,0.195-0.004l0,0
		c-0.063-0.006-0.123-0.014-0.185-0.021l0,0C21.874,7.704,21.873,7.713,21.863,7.72L21.863,7.72z"/>
	<path fill="#303030" d="M11.74,7.676c0.771-0.087,1.482-0.242,2.332-0.281l0,0l0.09-0.004l0.033,0.039
		c0.02,0.044,0.355,0.075,0.59,0.152l0,0l-0.161,0.086c-0.108-0.049-0.422-0.059-0.599-0.156l0,0
		c-0.764,0.042-1.442,0.184-2.224,0.276l0,0L11.74,7.676L11.74,7.676z"/>
	<path fill="#303030" d="M16.532,8.735c0-0.082,0.022-0.167,0.022-0.246l0,0c0-0.104-0.041-0.191-0.181-0.25l0,0h0.001l0.172-0.083
		c0.219,0.094,0.26,0.219,0.258,0.333l0,0c0,0.087-0.021,0.174-0.021,0.246l0,0H16.532L16.532,8.735z"/>
	<path fill="#303030" d="M14.852,9.183l0.092-0.106c0.509,0.093,1.197,0.194,1.804,0.193l0,0c0.233,0,0.455-0.015,0.649-0.049l0,0
		l0.09,0.106c-0.23,0.041-0.483,0.058-0.739,0.058l0,0C16.081,9.382,15.368,9.277,14.852,9.183L14.852,9.183z"/>
</g>
</svg>
