<?xml version="1.0" encoding="utf-8"?>
<!-- Generator: Adobe Illustrator 13.0.0, SVG Export Plug-In . SVG Version: 6.00 Build 14948)  -->
<!DOCTYPE svg PUBLIC "-//W3C//DTD SVG 1.1//EN" "http://www.w3.org/Graphics/SVG/1.1/DTD/svg11.dtd">
<svg version="1.1" id="Material" xmlns="http://www.w3.org/2000/svg" xmlns:xlink="http://www.w3.org/1999/xlink" x="0px" y="0px"
	 width="24px" height="19px" viewBox="3.849 6.5 24 19" enable-background="new 3.849 6.5 24 19" xml:space="preserve">
<path fill="#FFFFFF" stroke="#000000" stroke-width="0.25" stroke-miterlimit="10" d="M18.943,11.761H8.579
	c-1.475-2.136-1.621-5.96,5.708-5.96C20.667,5.801,20.042,9.833,18.943,11.761z M17.664,10.308c0-1.016,0.107-3.144-3.584-3.144
	c-4.372,0-4.194,2.148-4.194,3.144C9.929,10.337,17.622,10.337,17.664,10.308"/>
<g id="Layer_2">
	<g>
		<g>
			<g>
				<path fill="#FFFFFF" d="M20.146,11.732c2.031,0,1.963,8.133-0.084,8.133c-1.188,0-11.813-0.006-12.68-0.006
					c-2.049,0-1.945-8.125,0.086-8.125C8.271,11.734,19.334,11.732,20.146,11.732z"/>
			</g>
			<g>
				<path d="M7.383,19.982c-1.177-0.058-1.593-2.056-1.611-4.047l0,0c0.021-2.086,0.478-4.267,1.698-4.328l0,0
					c0.801,0,11.864-0.002,12.676-0.002l0,0v0.125v0.125c-0.813,0-11.875,0.002-12.676,0.002l0,0
					c-0.42-0.012-0.801,0.457-1.058,1.236l0,0c-0.257,0.771-0.391,1.813-0.391,2.842l0,0c0,0.98,0.121,1.951,0.362,2.664l0,0
					c0.243,0.724,0.595,1.143,1,1.135l0,0c0.867-0.002,11.491,0.004,12.68,0.006l0,0c0.42,0.009,0.799-0.454,1.056-1.23l0,0
					c0.258-0.768,0.39-1.803,0.39-2.826l0,0c0-0.988-0.121-1.966-0.361-2.686l0,0c-0.244-0.727-0.599-1.15-1-1.143l0,0V11.73v-0.125
					c1.174,0.061,1.592,2.074,1.61,4.078l0,0c-0.021,2.076-0.476,4.243-1.694,4.306l0,0C18.874,19.989,8.25,19.982,7.383,19.982
					L7.383,19.982z"/>
			</g>
		</g>
		<g>
			<g>
				<path fill="#8E6500" d="M13.74,13.17c1.635,0,1.65,1.33,1.65,1.497c-0.024,0.763-0.726,1.194-0.801,1.224
					c-0.003,0.267,0.801,2.469,0.801,2.469h-3.303c0,0,0.799-2.33,0.801-2.469c-0.068-0.018-0.879-0.234-0.801-1.224
					C12.089,14.438,12.146,13.17,13.74,13.17z"/>
			</g>
			<g>
				<path d="M11.912,18.482l0.058-0.168c-0.002,0,0.646-1.905,0.772-2.34l0,0c-0.243-0.098-0.785-0.398-0.785-1.179l0,0
					c0-0.045,0-0.095,0.006-0.13l0,0c0.002-0.238,0.088-1.621,1.775-1.623l0,0v0.125v0.126c-1.502,0.004-1.51,1.149-1.526,1.388l0,0
					c-0.004,0.034-0.006,0.071-0.006,0.114l0,0c0,0.788,0.655,0.951,0.713,0.972l0,0l0.093,0.024v0.099
					c-0.012,0.18-0.571,1.813-0.75,2.342l0,0h2.951c-0.187-0.514-0.739-2.053-0.749-2.344l0,0c0-0.033,0.014-0.064,0.035-0.089l0,0
					c0.016-0.014,0.031-0.022,0.052-0.028l0,0c-0.002,0-0.003,0-0.005,0l0,0c0.029-0.004,0.712-0.433,0.719-1.104l0,0
					c-0.015-0.166,0.014-1.368-1.525-1.374l0,0v-0.124v-0.125c1.73,0.002,1.775,1.452,1.775,1.627l0,0
					c-0.035,0.699-0.531,1.118-0.795,1.278l0,0c0.079,0.404,0.783,2.363,0.787,2.365l0,0l0.061,0.168H11.912L11.912,18.482z"/>
			</g>
		</g>
	</g>
</g>
</svg>
