<?xml version="1.0" encoding="utf-8"?>
<!-- Generator: Adobe Illustrator 13.0.0, SVG Export Plug-In . SVG Version: 6.00 Build 14948)  -->
<!DOCTYPE svg PUBLIC "-//W3C//DTD SVG 1.1//EN" "http://www.w3.org/Graphics/SVG/1.1/DTD/svg11.dtd">
<svg version="1.1" id="Skype" xmlns="http://www.w3.org/2000/svg" xmlns:xlink="http://www.w3.org/1999/xlink" x="0px" y="0px"
	 width="120px" height="120px" viewBox="0 0 120 120" enable-background="new 0 0 120 120" xml:space="preserve">
<g id="Nube_2_">
	<path id="Nube_1_" opacity="0.5" fill-rule="evenodd" clip-rule="evenodd" d="M53.365,18.096c0.089,0.802,1.755,0.539,1.92,0
		c20.407-8.745,59.326,23.126,47.76,50.88c-0.395,0.032-0.395,1.647,0,1.68c11.761,27.993,4.703,47.126-31.359,36.12
		c-0.407-0.756-1.116-0.299-1.92-0.24c-13.073,9.803-64.309-25.548-50.24-53.64c0.389,0.172,0.389-1.132,0-0.96
		C2.031,22.588,17.293,3.588,53.365,18.096z"/>
	<path id="Nube" fill-rule="evenodd" clip-rule="evenodd" fill="#00ADEF" d="M51.365,16.096c0.089,0.802,1.755,0.539,1.92,0
		c20.407-8.745,59.326,23.126,47.76,50.88c-0.395,0.032-0.395,1.647,0,1.68c11.761,27.993,4.703,47.126-31.359,36.12
		c-0.407-0.756-1.116-0.299-1.92-0.24c-13.073,9.803-64.309-25.548-50.24-53.64c0.389,0.172,0.389-1.132,0-0.96
		C0.031,20.588,15.293,1.588,51.365,16.096z"/>
</g>
<g id="S_2_">
	<path id="S_1_" opacity="0.5" d="M85.225,72.25c0,3.68-0.948,6.986-2.843,9.92c-1.896,2.933-4.67,5.229-8.322,6.889
		s-7.982,2.49-12.99,2.49c-6.005,0-10.957-1.134-14.858-3.402c-2.767-1.633-5.016-3.812-6.744-6.537
		c-1.73-2.725-2.594-5.375-2.594-7.948c0-1.494,0.519-2.773,1.556-3.839c1.038-1.064,2.359-1.598,3.964-1.598
		c1.3,0,2.4,0.414,3.3,1.244c0.898,0.83,1.667,2.063,2.303,3.694c0.774,1.937,1.612,3.556,2.512,4.856
		c0.898,1.301,2.164,2.373,3.797,3.217s3.777,1.266,6.434,1.266c3.652,0,6.62-0.852,8.902-2.553
		c2.283-1.701,3.424-3.825,3.424-6.371c0-2.02-0.615-3.658-1.847-4.918c-1.231-1.259-2.822-2.221-4.772-2.885
		c-1.951-0.664-4.56-1.369-7.824-2.117c-4.372-1.023-8.03-2.221-10.978-3.589c-2.946-1.37-5.285-3.237-7.014-5.604
		c-1.73-2.365-2.594-5.305-2.594-8.819c0-3.348,0.913-6.322,2.739-8.923c1.826-2.601,4.468-4.6,7.927-5.998
		c3.458-1.396,7.525-2.096,12.202-2.096c3.735,0,6.966,0.464,9.691,1.391c2.725,0.927,4.986,2.158,6.785,3.693
		c1.799,1.536,3.113,3.148,3.943,4.835c0.83,1.688,1.245,3.334,1.245,4.939c0,1.467-0.519,2.788-1.557,3.964
		c-1.037,1.176-2.331,1.764-3.88,1.764c-1.412,0-2.484-0.353-3.217-1.059c-0.733-0.705-1.529-1.86-2.387-3.465
		c-1.107-2.296-2.436-4.088-3.984-5.375c-1.55-1.287-4.04-1.93-7.471-1.93c-3.183,0-5.748,0.699-7.699,2.096
		c-1.95,1.397-2.926,3.078-2.926,5.042c0,1.218,0.332,2.269,0.996,3.154c0.664,0.886,1.577,1.646,2.739,2.283
		c1.162,0.637,2.338,1.135,3.528,1.494c1.188,0.36,3.154,0.886,5.893,1.577c3.431,0.803,6.537,1.688,9.318,2.656
		c2.78,0.969,5.146,2.145,7.097,3.528c1.951,1.384,3.473,3.134,4.565,5.251C84.678,66.584,85.225,69.179,85.225,72.25z"/>
	<path id="S" fill="#FFFFFF" d="M83.225,70.25c0,3.68-0.948,6.986-2.843,9.92c-1.896,2.933-4.67,5.229-8.322,6.889
		s-7.982,2.49-12.99,2.49c-6.005,0-10.957-1.134-14.858-3.402c-2.767-1.633-5.016-3.812-6.744-6.537
		c-1.73-2.725-2.594-5.375-2.594-7.948c0-1.494,0.519-2.773,1.556-3.839c1.038-1.064,2.359-1.598,3.964-1.598
		c1.3,0,2.4,0.414,3.3,1.244c0.898,0.83,1.667,2.063,2.303,3.694c0.774,1.937,1.612,3.556,2.512,4.856
		c0.898,1.301,2.164,2.373,3.797,3.217s3.777,1.266,6.434,1.266c3.652,0,6.62-0.852,8.902-2.553
		c2.283-1.701,3.424-3.825,3.424-6.371c0-2.02-0.615-3.658-1.847-4.918c-1.231-1.259-2.822-2.221-4.772-2.885
		c-1.951-0.664-4.56-1.369-7.824-2.117c-4.372-1.023-8.03-2.22-10.978-3.589c-2.946-1.37-5.285-3.237-7.014-5.604
		c-1.73-2.365-2.594-5.305-2.594-8.819c0-3.348,0.913-6.322,2.739-8.923c1.826-2.601,4.468-4.6,7.927-5.998
		c3.458-1.396,7.525-2.096,12.202-2.096c3.735,0,6.966,0.464,9.691,1.391c2.725,0.927,4.986,2.158,6.785,3.693
		c1.799,1.536,3.113,3.148,3.943,4.835c0.83,1.688,1.245,3.334,1.245,4.939c0,1.467-0.519,2.788-1.557,3.964
		c-1.037,1.176-2.331,1.764-3.88,1.764c-1.412,0-2.484-0.353-3.217-1.059c-0.733-0.705-1.529-1.86-2.387-3.465
		c-1.107-2.296-2.436-4.088-3.984-5.375c-1.55-1.287-4.04-1.93-7.471-1.93c-3.183,0-5.748,0.699-7.699,2.096
		c-1.95,1.397-2.926,3.078-2.926,5.042c0,1.218,0.332,2.269,0.996,3.154c0.664,0.886,1.577,1.646,2.739,2.283
		c1.162,0.637,2.338,1.135,3.528,1.494c1.188,0.36,3.154,0.886,5.893,1.577c3.431,0.803,6.537,1.688,9.318,2.656
		c2.78,0.969,5.146,2.145,7.097,3.528c1.951,1.384,3.473,3.133,4.565,5.251C82.678,64.584,83.225,67.179,83.225,70.25z"/>
</g>
</svg>
