<?xml version="1.0" encoding="utf-8"?>
<!-- Generator: Adobe Illustrator 13.0.0, SVG Export Plug-In . SVG Version: 6.00 Build 14948)  -->
<!DOCTYPE svg PUBLIC "-//W3C//DTD SVG 1.1//EN" "http://www.w3.org/Graphics/SVG/1.1/DTD/svg11.dtd">
<svg version="1.1" id="Telefono" xmlns="http://www.w3.org/2000/svg" xmlns:xlink="http://www.w3.org/1999/xlink" x="0px" y="0px"
	 width="120px" height="120px" viewBox="0 0 120 120" enable-background="new 0 0 120 120" xml:space="preserve">
<g opacity="0.5">
	<path fill-rule="evenodd" clip-rule="evenodd" d="M55.62,11.805c3.03-1.411,8.771-0.323,12.96-0.665
		c36.551-0.22,25.326,89.606,4.8,98.968c-3.84,2.35-14.88,3.328-17.04,3.328c-3.09-0.343-3.987-16.76,2.16-25.241
		c23.013-0.072,30.34-55.257-1.44-55.134C55.044,30.869,52.502,18.176,55.62,11.805z"/>
	<path fill-rule="evenodd" clip-rule="evenodd" d="M36.74,11.141c2.88,0,10.48,0,12.4,0c-2.47,4.69-0.676,17.796,2.16,20.592
		c0.461,3.968-4.424,2.033-7.36,1.993C33.268,32.938,32.819,13.071,36.74,11.141z"/>
	<path fill-rule="evenodd" clip-rule="evenodd" d="M52.02,89.523c-3.556,2.738-4.004,17.638-2.32,23.913
		c-0.134-0.983-13.817-1.202-14.4-1.328c-0.985-1.636-4.575-17.363,5.76-23.913C41.3,88.195,52.053,86.467,52.02,89.523z"/>
</g>
<g>
	<path fill-rule="evenodd" clip-rule="evenodd" fill="#FFFFFF" stroke="#000000" stroke-width="0.25" d="M51.62,9.038
		c3.03-1.412,9.771-0.323,13.96-0.665c34.018,0.604,25.326,89.605,4.8,98.968c-3.681,2.426-17.222,2.575-19.382,2.575
		c-1.791-2.397-3.645-15.007,2.502-23.488c14.788,0.113,22.518-56.066-0.44-56.134C51.044,28.101,48.502,15.408,51.62,9.038z"/>
	<path fill-rule="evenodd" clip-rule="evenodd" fill="#FFFFFF" stroke="#000000" stroke-width="0.25" d="M33.74,8.373
		c2.88,0,10.48,0,12.4,0c-2.47,4.69-0.676,17.796,2.16,20.592c0.461,3.968-4.424,2.033-7.36,1.993
		C30.268,30.17,29.819,10.304,33.74,8.373z"/>
	<path fill-rule="evenodd" clip-rule="evenodd" fill="#FFFFFF" stroke="#000000" stroke-width="0.25" d="M49.02,86.756
		c-3.556,2.738-4.004,17.638-2.32,23.913c-0.134-0.984-13.817-1.202-14.4-1.328c-0.985-1.636-4.575-17.363,5.76-23.913
		C38.3,85.428,49.053,83.699,49.02,86.756z"/>
</g>
</svg>
