<?xml version="1.0" encoding="utf-8"?>
<!-- Generator: Adobe Illustrator 13.0.0, SVG Export Plug-In . SVG Version: 6.00 Build 14948)  -->
<!DOCTYPE svg PUBLIC "-//W3C//DTD SVG 1.1//EN" "http://www.w3.org/Graphics/SVG/1.1/DTD/svg11.dtd">
<svg version="1.1" id="Layer_1" xmlns="http://www.w3.org/2000/svg" xmlns:xlink="http://www.w3.org/1999/xlink" x="0px" y="0px"
	 width="120px" height="120px" viewBox="0 0 120 120" enable-background="new 0 0 120 120" xml:space="preserve">
<g>
	<path fill-rule="evenodd" clip-rule="evenodd" fill="#27A9E1" d="M79.29,15.595c12.774-1.628,16.539,5.837,17.158,7.508
		c-0.307,0.762,1.716,0,1.716,0s10.119-3.633,10.296-4.224c0.914-0.219,0.816,0.671,0.856,1.408
		c-1.136,4.362-8.06,9.798-8.149,10.325c0.572,0,7.22-0.861,7.293-1.408c4.172-0.522,1.281,1.355,0.428,2.816
		c-0.592,1.385-6.577,6.57-6.862,6.57c0,0.626,0,1.252,0,1.878c-4.472,87.687-91.367,61.166-91.367,61.009
		c10.358-1.411,21.768-5.014,28.311-11.263c1.502-0.796-18.174-4.051-18.874-16.426c0.429,0,8.484-0.573,8.579-0.938
		c-4.116-2.331-17.286-7.271-17.158-22.996c1.033-0.192,8.865,2.346,9.437,2.346c0.019-0.803-14.833-8.439-7.292-30.505
		c0.417-0.012,0.333-0.574,0.429-0.938c0.563,0.166,0.674,0.826,1.287,0.938c12.191,22.89,43.038,23.466,44.182,23.466
		C59.559,44.692,53.953,19.631,79.29,15.595z"/>
</g>
</svg>
