<?xml version="1.0" encoding="utf-8"?>
<!-- Generator: Adobe Illustrator 13.0.0, SVG Export Plug-In . SVG Version: 6.00 Build 14948)  -->
<!DOCTYPE svg PUBLIC "-//W3C//DTD SVG 1.1//EN" "http://www.w3.org/Graphics/SVG/1.1/DTD/svg11.dtd">
<svg version="1.1" id="Whatsapp" xmlns="http://www.w3.org/2000/svg" xmlns:xlink="http://www.w3.org/1999/xlink" x="0px" y="0px"
	 width="120px" height="120px" viewBox="0 0 120 120" enable-background="new 0 0 120 120" xml:space="preserve">
<g id="Fondo">
	<path opacity="0.4" d="M94.398,36.283c21.793,30.369,3.803,84.617-51.697,61.967c-2.733,0.595-22.818,5.774-22.818,5.774
		s6.506-21.484,6.863-23.979C2.413,31.054,68.729,0.511,94.398,36.283z M34.841,79.607c0,1.042-4.737,12.771-4.737,12.771
		S42.709,88.1,43.295,88.1c38.268,21.867,66.774-17.949,45.874-47.182C71.58,16.317,13.347,31.628,34.841,79.607z"/>
	<path opacity="0.4" d="M52.922,41.512c2.496,0.713,4.16,5.467,4.16,6.893c0.356,2.496-2.426,6.434-3.803,9.151
		c0.036,0.401,14.003,14.542,14.262,13.073c1.823-0.912,3.521-3.365,5.348-4.278c4.146-2.469,9.27,2.378,9.864,5.349
		c2.853,4.992-5.467,9.744-11.885,9.507c-14.142-1.308-28.268-24.648-28.166-26.74C42.277,41.85,48.673,40.298,52.922,41.512z"/>
</g>
<g id="Icono">
	<path fill="#1D9D48" d="M93.225,34.945c18.575,20.983,9.863,83.801-49.859,61.5c0.25-0.956-20.965,5.559-22.713,5.271
		c0-0.391,6.992-22.091,6.094-21.672C2.984,31.373,67.311,0.345,93.225,34.945z M33.788,80.018
		c-1.07,3.09-3.974,11.892-3.974,11.892s11.937-3.453,13.481-3.81c35.296,20.203,67.023-12.184,44.945-49.055
		C72.65,15.842,11.907,27.185,33.788,80.018z"/>
	<path fill="#1D9D48" d="M54.193,42.431c1.344,1.696,2.11,4.211,2.215,4.686c0.568,3.767-2.09,6.381-3.324,8.787
		c0.032,0.356,11.484,13.18,14.456,14.725c1.633-0.81,3.299-3.373,4.935-4.182c3.713-2.187,8.371,2.083,8.863,2.343
		c5.573,8.376-9.074,11.703-9.995,11.703C58.508,78.829,43.022,56,43.113,54.147C41.156,42.463,51.615,39.136,54.193,42.431z"/>
</g>
</svg>
